M48
;Layer_Color=9474304
;FILE_FORMAT=4:4
METRIC
;TYPE=PLATED
T1F00S00C0.3000
T2F00S00C0.9000
T3F00S00C1.0000
T4F00S00C1.0160
T5F00S00C2.5000
T6F00S00C3.0000
%
T01
X00612500Y00040000
X00599500Y00098500
X00595000Y00136500
X00581000
X00566000Y00136500
X00699750Y00145000
X00690000Y00188000
X00753000Y00171500
X00686000Y00265000
X00642196Y00278000
X00643000Y00151250
X00595000Y00148750
Y00161000
X00414000Y00316000
X00350000Y00363000
X00332500
X00314500
X00303433Y00394500
X00310500Y00459000
X00272000Y00457500
X00286000Y00510000
X00314500Y00523000
X00356000Y00501000
X00367000Y00464000
X00412537Y00505116
X00266000Y00483000
X00260645Y00303000
X00220000Y00219236
X00250000Y00556377
X00055000Y00567000
X00283826Y00580235
X00309009Y00584230
X00360000Y00575198
X00387137Y00572627
T02
X00494500Y00077800
X00514900
X00535300
X00545500Y00103200
X00525100
X00504700
T03
X00789500Y00409200
Y00434600
Y00485400
Y00510800
X00246900Y00618000
X00221500
X00196100
X00170700
X00145300
X00119900
X00094500
X00272300
X00297700
X00323100
X00348500
X00373900
X00399300
X00424700
X00450100
X00475500
T04
X00291500Y00189200
Y00214600
Y00240000
X00255400
X00230000
X00204600
Y00201000
X00230000
X00255400
T05
X00789500Y00308000
X00039500
Y00618000
X00789500
T06
X00120000Y00110000
X00720000
X00700000Y00540000
X00140000
M30
