M48
;Layer_Color=9474304
;FILE_FORMAT=4:4
METRIC
;TYPE=PLATED
T1F00S00C0.3000
T2F00S00C0.9000
T3F00S00C1.0000
T4F00S00C1.0160
T5F00S00C2.5000
T6F00S00C3.0000
%
T01
X00612500Y00040000
X00640000Y00084000
X00599500Y00098500
X00612500Y00129000
X00708081Y00269000
X00695000Y00294000
X00703000Y00431500
X00643250Y00439000
X00649750Y00405000
X00645000Y00373000
X00624000
X00593000Y00411250
X00531000Y00410000
X00519000
X00508000
X00496000
Y00398000
X00508000
X00519000
X00531000
X00550500Y00449000
X00550500Y00464000
Y00478000
X00538250
X00526000
X00513000Y00515000
X00636000Y00525000
X00342559Y00536921
X00327000Y00519493
X00311000Y00503000
X00278000Y00457000
X00279000Y00416000
X00275000Y00293000
X00288081Y00269000
X00428022
X00415000Y00293000
X00555000
X00568081Y00269000
X00198081
X00185003Y00294000
X00198078Y00357000
X00212000Y00371000
X00239000Y00379997
X00237744Y00440000
X00244198Y00456000
X00266452Y00457250
X00196000Y00445000
X00165000Y00417000
X00144000Y00399000
X00126750Y00459000
X00064750Y00417250
X00038000Y00517250
X00182613Y00584000
X00209000
X00234000Y00585000
X00259000Y00589205
X00284000Y00586007
X00310000Y00589380
X00335000Y00591000
X00412000Y00590000
X00385426Y00550323
T02
X00494500Y00077800
X00514900
X00535300
X00525100Y00103200
X00504700
X00545500
T03
X00789500Y00409200
Y00434600
Y00485400
Y00510800
X00246900Y00618000
X00221500
X00196100
X00170700
X00145300
X00119900
X00094500
X00272300
X00297700
X00323100
X00348500
X00373900
X00399300
X00424700
X00450100
X00475500
T04
X00534600Y00618000
X00560000
X00585400
T05
X00789500Y00308000
X00039500
Y00618000
X00789500
T06
X00120000Y00110000
X00720000
X00700000Y00540000
X00140000
M30
