G04 Layer_Color=128*
%FSAX44Y44*%
%MOMM*%
G71*
G01*
G75*
%ADD10R,1.0000X3.2000*%
%ADD15C,0.2000*%
%ADD25R,1.4000X1.2000*%
%ADD26R,1.2000X1.4000*%
%ADD27R,0.6000X0.6000*%
%ADD28R,0.6000X0.6000*%
%ADD29R,0.6500X1.1000*%
%ADD31R,0.8000X0.8000*%
%ADD32R,0.9000X0.6000*%
%ADD33O,0.3500X1.7000*%
%ADD34O,1.7000X0.5500*%
%ADD35O,0.5500X1.7000*%
%ADD36R,2.4000X1.9000*%
%ADD37R,0.5500X0.8000*%
%ADD38R,1.4500X1.2500*%
%ADD64C,0.0000*%
D10*
X00104750Y00383250D02*
D03*
X00064750D02*
D03*
X00104750Y00451250D02*
D03*
X00064750D02*
D03*
D15*
X00020000Y00000000D02*
X00820000Y00000000D01*
D02*
G03*
X00840000Y00020000I00000000J00020000D01*
G01*
Y00630000D01*
X00840000D02*
G03*
X00820000Y00650000I-00020000J-00000000D01*
G01*
X00020000D01*
D02*
G03*
X00000000Y00630000I00000000J-00020000D01*
G01*
Y00020000D01*
D02*
G03*
X00020000Y00000000I00020000J00000000D01*
G01*
D25*
X00272000Y00074202D02*
D03*
Y00092202D02*
D03*
X00535000Y00431000D02*
D03*
Y00449000D02*
D03*
D26*
X00241000Y00039000D02*
D03*
X00259000D02*
D03*
X00198078Y00370997D02*
D03*
X00180079D02*
D03*
X00085000Y00567000D02*
D03*
X00067000D02*
D03*
X00494000Y00482000D02*
D03*
X00512000D02*
D03*
D27*
X00203000Y00097494D02*
D03*
Y00107494D02*
D03*
X00191000D02*
D03*
Y00097494D02*
D03*
X00131500Y00372000D02*
D03*
Y00382000D02*
D03*
X00188078Y00387997D02*
D03*
X00198078D02*
D03*
Y00399997D02*
D03*
X00188078D02*
D03*
X00191250Y00455000D02*
D03*
Y00465000D02*
D03*
X00136750Y00480500D02*
D03*
X00126750D02*
D03*
Y00439500D02*
D03*
X00136750D02*
D03*
X00104750Y00482250D02*
D03*
X00094750D02*
D03*
X00110000Y00588000D02*
D03*
X00120000D02*
D03*
X00447000Y00455000D02*
D03*
Y00445000D02*
D03*
X00460000Y00579000D02*
D03*
X00450000D02*
D03*
X00611671Y00511000D02*
D03*
X00621671D02*
D03*
X00635000D02*
D03*
X00645000D02*
D03*
X00678000Y00478500D02*
D03*
Y00468500D02*
D03*
Y00431500D02*
D03*
Y00421500D02*
D03*
D28*
X00228000Y00107494D02*
D03*
X00240500D02*
D03*
X00250500D02*
D03*
X00218000D02*
D03*
X00275000Y00269000D02*
D03*
Y00279000D02*
D03*
X00274000Y00327000D02*
D03*
X00264000D02*
D03*
X00185003Y00327000D02*
D03*
X00175003D02*
D03*
X00185000Y00279000D02*
D03*
Y00269000D02*
D03*
X00414941D02*
D03*
Y00279000D02*
D03*
X00415000Y00327000D02*
D03*
X00405000D02*
D03*
X00555000Y00279000D02*
D03*
Y00269000D02*
D03*
X00555000Y00327000D02*
D03*
X00545000D02*
D03*
X00603000Y00411250D02*
D03*
Y00421250D02*
D03*
Y00445000D02*
D03*
Y00455000D02*
D03*
X00678000D02*
D03*
Y00445000D02*
D03*
X00636000Y00538000D02*
D03*
X00626000D02*
D03*
X00478000Y00482000D02*
D03*
X00468000D02*
D03*
X00457000D02*
D03*
X00447000D02*
D03*
X00695000Y00279000D02*
D03*
Y00269000D02*
D03*
X00695000Y00327000D02*
D03*
X00685000D02*
D03*
D29*
X00484500Y00431000D02*
D03*
X00494000D02*
D03*
Y00455000D02*
D03*
X00475000D02*
D03*
Y00431000D02*
D03*
D31*
X00131500Y00417000D02*
D03*
X00146500D02*
D03*
D32*
X00612500Y00058500D02*
D03*
Y00077500D02*
D03*
X00635500Y00068000D02*
D03*
X00612500Y00098500D02*
D03*
X00635500Y00108000D02*
D03*
X00612500Y00117500D02*
D03*
D33*
X00617250Y00421500D02*
D03*
X00623750D02*
D03*
X00630250D02*
D03*
X00636750D02*
D03*
X00643250D02*
D03*
X00649750D02*
D03*
X00656250D02*
D03*
X00662750D02*
D03*
Y00478500D02*
D03*
X00656250D02*
D03*
X00649750D02*
D03*
X00643250D02*
D03*
X00636750D02*
D03*
X00630250D02*
D03*
X00623750D02*
D03*
X00617250D02*
D03*
D34*
X00300500Y00408000D02*
D03*
Y00416000D02*
D03*
Y00424000D02*
D03*
Y00432000D02*
D03*
Y00440000D02*
D03*
Y00448000D02*
D03*
Y00456000D02*
D03*
Y00464000D02*
D03*
X00217500Y00464000D02*
D03*
Y00456000D02*
D03*
Y00448000D02*
D03*
Y00440000D02*
D03*
Y00432000D02*
D03*
Y00424000D02*
D03*
Y00416000D02*
D03*
Y00408000D02*
D03*
D35*
X00279000Y00394500D02*
D03*
X00287000D02*
D03*
X00271000D02*
D03*
X00263000D02*
D03*
X00255000D02*
D03*
X00247000D02*
D03*
X00239000D02*
D03*
X00231000D02*
D03*
X00279000Y00477500D02*
D03*
X00287000D02*
D03*
X00271000D02*
D03*
X00263000D02*
D03*
X00255000D02*
D03*
X00247000D02*
D03*
X00239000D02*
D03*
X00231000D02*
D03*
D36*
X00164000Y00439500D02*
D03*
Y00480500D02*
D03*
D37*
X00231500Y00062202D02*
D03*
X00241000D02*
D03*
X00250500D02*
D03*
Y00086202D02*
D03*
X00231500D02*
D03*
D38*
X00309000Y00074452D02*
D03*
Y00091952D02*
D03*
X00085000Y00517250D02*
D03*
Y00534750D02*
D03*
X00054000D02*
D03*
Y00517250D02*
D03*
D64*
X00415000Y00306000D02*
D03*
X00555000Y00306000D02*
D03*
X00649750Y00386000D02*
D03*
X00695000Y00306000D02*
D03*
X00610000Y00538000D02*
D03*
X00275000Y00306000D02*
D03*
X00185003Y00306000D02*
D03*
X00131500Y00399000D02*
D03*
M02*
