G04 Layer_Physical_Order=1*
G04 Layer_Color=255*
%FSAX44Y44*%
%MOMM*%
G71*
G01*
G75*
%ADD10C,0.2000*%
%ADD11R,1.5750X1.5750*%
%ADD12C,1.5750*%
%ADD13R,1.5750X1.5750*%
%ADD14C,5.0000*%
G04:AMPARAMS|DCode=15|XSize=1.8mm|YSize=3.6mm|CornerRadius=0.45mm|HoleSize=0mm|Usage=FLASHONLY|Rotation=0.000|XOffset=0mm|YOffset=0mm|HoleType=Round|Shape=RoundedRectangle|*
%AMROUNDEDRECTD15*
21,1,1.8000,2.7000,0,0,0.0*
21,1,0.9000,3.6000,0,0,0.0*
1,1,0.9000,0.4500,-1.3500*
1,1,0.9000,-0.4500,-1.3500*
1,1,0.9000,-0.4500,1.3500*
1,1,0.9000,0.4500,1.3500*
%
%ADD15ROUNDEDRECTD15*%
G04:AMPARAMS|DCode=16|XSize=1.8mm|YSize=1.8mm|CornerRadius=0.45mm|HoleSize=0mm|Usage=FLASHONLY|Rotation=0.000|XOffset=0mm|YOffset=0mm|HoleType=Round|Shape=RoundedRectangle|*
%AMROUNDEDRECTD16*
21,1,1.8000,0.9000,0,0,0.0*
21,1,0.9000,1.8000,0,0,0.0*
1,1,0.9000,0.4500,-0.4500*
1,1,0.9000,-0.4500,-0.4500*
1,1,0.9000,-0.4500,0.4500*
1,1,0.9000,0.4500,0.4500*
%
%ADD16ROUNDEDRECTD16*%
%ADD17C,6.0000*%
%ADD18C,2.0000*%
%ADD19C,1.5000*%
%ADD20C,0.7000*%
G36*
X00762392Y00628337D02*
X00761834Y00626989D01*
X00760769Y00622551D01*
X00760410Y00618000D01*
X00760769Y00613449D01*
X00761834Y00609011D01*
X00763581Y00604794D01*
X00765966Y00600901D01*
X00768931Y00597430D01*
X00772402Y00594466D01*
X00776294Y00592081D01*
X00780511Y00590334D01*
X00784949Y00589268D01*
X00789500Y00588910D01*
X00794051Y00589268D01*
X00798489Y00590334D01*
X00802707Y00592081D01*
X00806599Y00594466D01*
X00810070Y00597430D01*
X00813034Y00600901D01*
X00815419Y00604794D01*
X00817009Y00608632D01*
X00818127Y00609166D01*
X00819306Y00609357D01*
X00820000Y00608804D01*
Y00313752D01*
X00818000Y00313515D01*
X00817166Y00316989D01*
X00815419Y00321206D01*
X00813034Y00325098D01*
X00810070Y00328569D01*
X00806599Y00331534D01*
X00802707Y00333919D01*
X00798489Y00335666D01*
X00794051Y00336731D01*
X00789500Y00337090D01*
X00784949Y00336731D01*
X00780511Y00335666D01*
X00776294Y00333919D01*
X00772402Y00331534D01*
X00768931Y00328569D01*
X00765966Y00325098D01*
X00763581Y00321206D01*
X00761834Y00316989D01*
X00760769Y00312551D01*
X00760410Y00308000D01*
X00760769Y00303449D01*
X00761834Y00299011D01*
X00763581Y00294794D01*
X00765966Y00290902D01*
X00768931Y00287430D01*
X00772402Y00284466D01*
X00776294Y00282081D01*
X00780511Y00280334D01*
X00784949Y00279268D01*
X00789500Y00278910D01*
X00794051Y00279268D01*
X00798489Y00280334D01*
X00802707Y00282081D01*
X00806599Y00284466D01*
X00810070Y00287430D01*
X00813034Y00290902D01*
X00815419Y00294794D01*
X00817166Y00299011D01*
X00818000Y00302485D01*
X00820000Y00302248D01*
Y00040000D01*
X00800000Y00020000D01*
X00040000D01*
X00020000Y00040000D01*
Y00284128D01*
X00021816Y00284966D01*
X00022402Y00284466D01*
X00026294Y00282081D01*
X00030511Y00280334D01*
X00034949Y00279268D01*
X00039500Y00278910D01*
X00044051Y00279268D01*
X00048489Y00280334D01*
X00052706Y00282081D01*
X00056599Y00284466D01*
X00060069Y00287430D01*
X00063034Y00290902D01*
X00065419Y00294794D01*
X00067166Y00299011D01*
X00068232Y00303449D01*
X00068590Y00308000D01*
X00068232Y00312551D01*
X00067166Y00316989D01*
X00065419Y00321206D01*
X00063034Y00325098D01*
X00060069Y00328569D01*
X00056599Y00331534D01*
X00052706Y00333919D01*
X00048489Y00335666D01*
X00044051Y00336731D01*
X00039500Y00337090D01*
X00034949Y00336731D01*
X00030511Y00335666D01*
X00026294Y00333919D01*
X00022402Y00331534D01*
X00021816Y00331034D01*
X00020000Y00331871D01*
Y00590000D01*
X00023682Y00593682D01*
X00026294Y00592081D01*
X00030511Y00590334D01*
X00034949Y00589268D01*
X00039500Y00588910D01*
X00044051Y00589268D01*
X00048489Y00590334D01*
X00052706Y00592081D01*
X00056599Y00594466D01*
X00060069Y00597430D01*
X00063034Y00600901D01*
X00065419Y00604794D01*
X00067166Y00609011D01*
X00068232Y00613449D01*
X00068590Y00618000D01*
X00068232Y00622551D01*
X00067166Y00626989D01*
X00066608Y00628337D01*
X00067719Y00630000D01*
X00082435D01*
Y00620500D01*
X00094500D01*
Y00618000D01*
X00097000D01*
Y00596935D01*
X00099000D01*
X00100958Y00597193D01*
X00102782Y00597949D01*
X00104349Y00599151D01*
X00105551Y00600718D01*
X00105576Y00600779D01*
X00107741D01*
X00107975Y00600213D01*
X00109338Y00598438D01*
X00111113Y00597075D01*
X00113181Y00596219D01*
X00115400Y00595927D01*
X00124400D01*
X00126619Y00596219D01*
X00128687Y00597075D01*
X00130462Y00598438D01*
X00131426Y00599693D01*
X00132063Y00599863D01*
X00133137D01*
X00133774Y00599693D01*
X00134738Y00598438D01*
X00136513Y00597075D01*
X00138581Y00596219D01*
X00140800Y00595927D01*
X00149800D01*
X00152019Y00596219D01*
X00154087Y00597075D01*
X00155862Y00598438D01*
X00156826Y00599693D01*
X00157463Y00599863D01*
X00158537D01*
X00159174Y00599693D01*
X00160138Y00598438D01*
X00161913Y00597075D01*
X00163981Y00596219D01*
X00166200Y00595927D01*
X00175200D01*
X00177419Y00596219D01*
X00179487Y00597075D01*
X00181262Y00598438D01*
X00182226Y00599693D01*
X00182863Y00599863D01*
X00183937D01*
X00184574Y00599693D01*
X00185538Y00598438D01*
X00187313Y00597075D01*
X00189381Y00596219D01*
X00191002Y00596005D01*
Y00554900D01*
X00191390Y00552949D01*
X00192495Y00551295D01*
X00237395Y00506395D01*
X00239049Y00505290D01*
X00241000Y00504902D01*
X00280458D01*
X00280651Y00504651D01*
X00282218Y00503449D01*
X00284042Y00502693D01*
X00286000Y00502435D01*
X00287958Y00502693D01*
X00289782Y00503449D01*
X00291349Y00504651D01*
X00292551Y00506218D01*
X00293307Y00508042D01*
X00293565Y00510000D01*
X00293307Y00511958D01*
X00292551Y00513782D01*
X00291349Y00515349D01*
X00289782Y00516551D01*
X00287958Y00517307D01*
X00286000Y00517565D01*
X00284042Y00517307D01*
X00282218Y00516551D01*
X00280651Y00515349D01*
X00280458Y00515098D01*
X00243112D01*
X00201198Y00557012D01*
Y00596005D01*
X00202819Y00596219D01*
X00204887Y00597075D01*
X00206662Y00598438D01*
X00207626Y00599693D01*
X00208263Y00599863D01*
X00209337D01*
X00209974Y00599693D01*
X00210938Y00598438D01*
X00212713Y00597075D01*
X00214781Y00596219D01*
X00217000Y00595927D01*
X00226000D01*
X00228219Y00596219D01*
X00230287Y00597075D01*
X00232062Y00598438D01*
X00233026Y00599693D01*
X00233663Y00599863D01*
X00234737D01*
X00235374Y00599693D01*
X00236338Y00598438D01*
X00238113Y00597075D01*
X00240181Y00596219D01*
X00242400Y00595927D01*
X00251400D01*
X00253619Y00596219D01*
X00255687Y00597075D01*
X00257462Y00598438D01*
X00258426Y00599693D01*
X00259063Y00599863D01*
X00260137D01*
X00260774Y00599693D01*
X00261738Y00598438D01*
X00263513Y00597075D01*
X00265581Y00596219D01*
X00267800Y00595927D01*
X00276800D01*
X00279019Y00596219D01*
X00281087Y00597075D01*
X00282862Y00598438D01*
X00283826Y00599693D01*
X00284463Y00599863D01*
X00285537D01*
X00286174Y00599693D01*
X00287138Y00598438D01*
X00288913Y00597075D01*
X00290981Y00596219D01*
X00293200Y00595927D01*
X00302200D01*
X00304419Y00596219D01*
X00306487Y00597075D01*
X00308262Y00598438D01*
X00309226Y00599693D01*
X00309863Y00599863D01*
X00310937D01*
X00311574Y00599693D01*
X00312538Y00598438D01*
X00314313Y00597075D01*
X00316381Y00596219D01*
X00318600Y00595927D01*
X00327600D01*
X00329819Y00596219D01*
X00331887Y00597075D01*
X00333662Y00598438D01*
X00334626Y00599693D01*
X00335263Y00599863D01*
X00336337D01*
X00336974Y00599693D01*
X00337938Y00598438D01*
X00339713Y00597075D01*
X00341781Y00596219D01*
X00344000Y00595927D01*
X00353000D01*
X00355219Y00596219D01*
X00357287Y00597075D01*
X00359062Y00598438D01*
X00360026Y00599693D01*
X00360663Y00599863D01*
X00361737D01*
X00362374Y00599693D01*
X00363338Y00598438D01*
X00365113Y00597075D01*
X00367181Y00596219D01*
X00369400Y00595927D01*
X00378400D01*
X00380619Y00596219D01*
X00382687Y00597075D01*
X00384462Y00598438D01*
X00385426Y00599693D01*
X00386063Y00599863D01*
X00387137D01*
X00387774Y00599693D01*
X00388738Y00598438D01*
X00390513Y00597075D01*
X00392581Y00596219D01*
X00394800Y00595927D01*
X00403800D01*
X00406019Y00596219D01*
X00408087Y00597075D01*
X00409862Y00598438D01*
X00410826Y00599693D01*
X00411463Y00599863D01*
X00412537D01*
X00413174Y00599693D01*
X00414138Y00598438D01*
X00415913Y00597075D01*
X00417981Y00596219D01*
X00420200Y00595927D01*
X00429200D01*
X00431419Y00596219D01*
X00433487Y00597075D01*
X00435262Y00598438D01*
X00436226Y00599693D01*
X00436863Y00599863D01*
X00437937D01*
X00438574Y00599693D01*
X00439538Y00598438D01*
X00441313Y00597075D01*
X00443381Y00596219D01*
X00445600Y00595927D01*
X00454600D01*
X00456819Y00596219D01*
X00458887Y00597075D01*
X00460662Y00598438D01*
X00462025Y00600213D01*
X00462259Y00600779D01*
X00464424D01*
X00464449Y00600718D01*
X00465651Y00599151D01*
X00467218Y00597949D01*
X00469042Y00597193D01*
X00471000Y00596935D01*
X00473000D01*
Y00618000D01*
X00475500D01*
Y00620500D01*
X00487565D01*
Y00630000D01*
X00761281D01*
X00762392Y00628337D01*
D02*
G37*
%LPC*%
G36*
X00289000Y00200075D02*
X00280625D01*
Y00191700D01*
X00289000D01*
Y00200075D01*
D02*
G37*
G36*
X00302375Y00186700D02*
X00294000D01*
Y00178325D01*
X00302375D01*
Y00186700D01*
D02*
G37*
G36*
X00580000Y00070877D02*
X00576864Y00070568D01*
X00573848Y00069654D01*
X00571068Y00068168D01*
X00568632Y00066168D01*
X00566632Y00063732D01*
X00565146Y00060953D01*
X00564231Y00057937D01*
X00563923Y00054800D01*
X00564231Y00051663D01*
X00565146Y00048647D01*
X00566632Y00045868D01*
X00568632Y00043432D01*
X00571068Y00041432D01*
X00573848Y00039946D01*
X00576864Y00039032D01*
X00580000Y00038723D01*
X00583137Y00039032D01*
X00586153Y00039946D01*
X00588932Y00041432D01*
X00591368Y00043432D01*
X00593368Y00045868D01*
X00594854Y00048647D01*
X00595769Y00051663D01*
X00596077Y00054800D01*
X00595769Y00057937D01*
X00594854Y00060953D01*
X00593368Y00063732D01*
X00591368Y00066168D01*
X00588932Y00068168D01*
X00586153Y00069654D01*
X00583137Y00070568D01*
X00580000Y00070877D01*
D02*
G37*
G36*
X00302375Y00200075D02*
X00294000D01*
Y00191700D01*
X00302375D01*
Y00200075D01*
D02*
G37*
G36*
X00289000Y00186700D02*
X00280625D01*
Y00178325D01*
X00289000D01*
Y00186700D01*
D02*
G37*
G36*
X00493000Y00087184D02*
X00492020Y00087056D01*
X00489709Y00086098D01*
X00487725Y00084575D01*
X00486202Y00082591D01*
X00485245Y00080280D01*
X00485116Y00079300D01*
X00493000D01*
Y00087184D01*
D02*
G37*
G36*
Y00076300D02*
X00485116D01*
X00485245Y00075320D01*
X00486202Y00073009D01*
X00487725Y00071024D01*
X00489709Y00069502D01*
X00492020Y00068545D01*
X00493000Y00068415D01*
Y00076300D01*
D02*
G37*
G36*
X00545500Y00114799D02*
X00542498Y00114404D01*
X00539700Y00113245D01*
X00537298Y00111402D01*
X00536561Y00110441D01*
X00534040D01*
X00533302Y00111402D01*
X00530900Y00113245D01*
X00528102Y00114404D01*
X00525100Y00114799D01*
X00522098Y00114404D01*
X00519300Y00113245D01*
X00516898Y00111402D01*
X00516161Y00110441D01*
X00513640D01*
X00512902Y00111402D01*
X00510500Y00113245D01*
X00507702Y00114404D01*
X00504700Y00114799D01*
X00501698Y00114404D01*
X00498900Y00113245D01*
X00496498Y00111402D01*
X00494655Y00109000D01*
X00493496Y00106202D01*
X00493101Y00103200D01*
X00493496Y00100198D01*
X00494655Y00097400D01*
X00496498Y00094998D01*
X00498900Y00093155D01*
X00501698Y00091996D01*
X00504700Y00091601D01*
X00507702Y00091996D01*
X00510500Y00093155D01*
X00512902Y00094998D01*
X00513640Y00095959D01*
X00516161D01*
X00516898Y00094998D01*
X00519300Y00093155D01*
X00522098Y00091996D01*
X00525100Y00091601D01*
X00528102Y00091996D01*
X00530900Y00093155D01*
X00533302Y00094998D01*
X00534040Y00095959D01*
X00536561D01*
X00537298Y00094998D01*
X00539700Y00093155D01*
X00542498Y00091996D01*
X00545500Y00091601D01*
X00548502Y00091996D01*
X00551300Y00093155D01*
X00553702Y00094998D01*
X00555545Y00097400D01*
X00556704Y00100198D01*
X00557099Y00103200D01*
X00556704Y00106202D01*
X00555545Y00109000D01*
X00553702Y00111402D01*
X00551300Y00113245D01*
X00548502Y00114404D01*
X00545500Y00114799D01*
D02*
G37*
G36*
X00535300Y00089399D02*
X00532298Y00089004D01*
X00529500Y00087845D01*
X00527098Y00086002D01*
X00526361Y00085041D01*
X00523840D01*
X00523102Y00086002D01*
X00520700Y00087845D01*
X00517902Y00089004D01*
X00514900Y00089399D01*
X00511898Y00089004D01*
X00509100Y00087845D01*
X00506698Y00086002D01*
X00504855Y00083600D01*
X00504700Y00083226D01*
X00504036Y00083004D01*
X00502457Y00083036D01*
X00501275Y00084575D01*
X00499291Y00086098D01*
X00496980Y00087056D01*
X00496000Y00087184D01*
Y00077800D01*
Y00068415D01*
X00496980Y00068545D01*
X00499291Y00069502D01*
X00501275Y00071024D01*
X00502457Y00072564D01*
X00504036Y00072596D01*
X00504700Y00072374D01*
X00504855Y00072000D01*
X00506698Y00069598D01*
X00509100Y00067755D01*
X00511898Y00066596D01*
X00514900Y00066201D01*
X00517902Y00066596D01*
X00520700Y00067755D01*
X00523102Y00069598D01*
X00523840Y00070559D01*
X00526361D01*
X00527098Y00069598D01*
X00529500Y00067755D01*
X00532298Y00066596D01*
X00535300Y00066201D01*
X00538302Y00066596D01*
X00541100Y00067755D01*
X00543502Y00069598D01*
X00545345Y00072000D01*
X00546504Y00074798D01*
X00546899Y00077800D01*
X00546504Y00080802D01*
X00545345Y00083600D01*
X00543502Y00086002D01*
X00541100Y00087845D01*
X00538302Y00089004D01*
X00535300Y00089399D01*
D02*
G37*
G36*
X00794000Y00523873D02*
X00785000D01*
X00782781Y00523581D01*
X00780713Y00522725D01*
X00778938Y00521362D01*
X00777575Y00519587D01*
X00776719Y00517519D01*
X00776427Y00515300D01*
Y00506300D01*
X00776719Y00504081D01*
X00777575Y00502013D01*
X00778938Y00500238D01*
X00780193Y00499274D01*
X00780363Y00498637D01*
Y00497563D01*
X00780193Y00496926D01*
X00778938Y00495962D01*
X00777575Y00494187D01*
X00776719Y00492119D01*
X00776427Y00489900D01*
Y00480900D01*
X00776719Y00478681D01*
X00777575Y00476613D01*
X00778938Y00474838D01*
X00780713Y00473475D01*
X00782781Y00472619D01*
X00785000Y00472327D01*
X00794000D01*
X00796219Y00472619D01*
X00798287Y00473475D01*
X00800062Y00474838D01*
X00801425Y00476613D01*
X00802281Y00478681D01*
X00802573Y00480900D01*
Y00489900D01*
X00802281Y00492119D01*
X00801425Y00494187D01*
X00800062Y00495962D01*
X00798807Y00496926D01*
X00798637Y00497563D01*
Y00498637D01*
X00798807Y00499274D01*
X00800062Y00500238D01*
X00801425Y00502013D01*
X00802281Y00504081D01*
X00802573Y00506300D01*
Y00515300D01*
X00802281Y00517519D01*
X00801425Y00519587D01*
X00800062Y00521362D01*
X00798287Y00522725D01*
X00796219Y00523581D01*
X00794000Y00523873D01*
D02*
G37*
G36*
X00266000Y00490565D02*
X00264042Y00490307D01*
X00262218Y00489551D01*
X00260651Y00488349D01*
X00260458Y00488098D01*
X00248000D01*
X00246049Y00487710D01*
X00244395Y00486605D01*
X00226395Y00468605D01*
X00225290Y00466951D01*
X00224902Y00465000D01*
Y00250740D01*
X00223371Y00249921D01*
X00221562Y00248438D01*
X00220079Y00246629D01*
X00218976Y00244566D01*
X00218475Y00242915D01*
X00216475Y00243212D01*
Y00251875D01*
X00192725D01*
Y00228125D01*
X00216475D01*
Y00236788D01*
X00218475Y00237085D01*
X00218976Y00235434D01*
X00220079Y00233371D01*
X00221562Y00231562D01*
X00223371Y00230079D01*
X00225434Y00228976D01*
X00227672Y00228297D01*
X00230000Y00228068D01*
X00232328Y00228297D01*
X00234566Y00228976D01*
X00235902Y00229690D01*
X00237902Y00228717D01*
Y00216112D01*
X00233990Y00212199D01*
X00232328Y00212703D01*
X00230000Y00212932D01*
X00227672Y00212703D01*
X00225434Y00212024D01*
X00223371Y00210921D01*
X00221562Y00209438D01*
X00220079Y00207629D01*
X00218976Y00205566D01*
X00218297Y00203328D01*
X00216303D01*
X00215624Y00205566D01*
X00214522Y00207629D01*
X00213037Y00209438D01*
X00211229Y00210921D01*
X00209166Y00212024D01*
X00206928Y00212703D01*
X00204600Y00212932D01*
X00202272Y00212703D01*
X00200034Y00212024D01*
X00197971Y00210921D01*
X00196162Y00209438D01*
X00194679Y00207629D01*
X00193576Y00205566D01*
X00192897Y00203328D01*
X00192668Y00201000D01*
X00192897Y00198672D01*
X00193576Y00196434D01*
X00194679Y00194371D01*
X00196162Y00192563D01*
X00197971Y00191079D01*
X00200034Y00189976D01*
X00202272Y00189297D01*
X00204600Y00189068D01*
X00206928Y00189297D01*
X00209166Y00189976D01*
X00211229Y00191079D01*
X00213037Y00192563D01*
X00214522Y00194371D01*
X00215624Y00196434D01*
X00216303Y00198672D01*
X00218297D01*
X00218976Y00196434D01*
X00220079Y00194371D01*
X00221562Y00192563D01*
X00223371Y00191079D01*
X00225434Y00189976D01*
X00227672Y00189297D01*
X00230000Y00189068D01*
X00232328Y00189297D01*
X00234566Y00189976D01*
X00236629Y00191079D01*
X00238438Y00192563D01*
X00239921Y00194371D01*
X00241024Y00196434D01*
X00241525Y00198085D01*
X00243525Y00197788D01*
Y00189125D01*
X00267275D01*
Y00212875D01*
X00249021D01*
X00248098Y00214000D01*
Y00228170D01*
X00250098Y00229369D01*
X00250834Y00228976D01*
X00253072Y00228297D01*
X00255400Y00228068D01*
X00257728Y00228297D01*
X00259966Y00228976D01*
X00262029Y00230079D01*
X00263838Y00231562D01*
X00265322Y00233371D01*
X00266424Y00235434D01*
X00267103Y00237672D01*
X00267332Y00240000D01*
X00267103Y00242328D01*
X00266424Y00244566D01*
X00265322Y00246629D01*
X00263838Y00248438D01*
X00262029Y00249921D01*
X00259966Y00251024D01*
X00257728Y00251703D01*
X00255400Y00251933D01*
X00253072Y00251703D01*
X00250834Y00251024D01*
X00250098Y00250631D01*
X00248098Y00251830D01*
Y00455888D01*
X00260112Y00467902D01*
X00307167D01*
X00307565Y00465902D01*
X00306718Y00465551D01*
X00305151Y00464349D01*
X00303949Y00462782D01*
X00303193Y00460958D01*
X00302935Y00459000D01*
X00303193Y00457042D01*
X00303949Y00455218D01*
X00305151Y00453651D01*
X00306718Y00452449D01*
X00308542Y00451693D01*
X00310500Y00451435D01*
X00310814Y00451477D01*
X00415895Y00346395D01*
X00417549Y00345290D01*
X00419500Y00344902D01*
X00622888D01*
X00694652Y00273138D01*
Y00268937D01*
X00692652Y00268539D01*
X00692551Y00268782D01*
X00691349Y00270349D01*
X00689782Y00271551D01*
X00687958Y00272307D01*
X00686000Y00272565D01*
X00684042Y00272307D01*
X00682218Y00271551D01*
X00680651Y00270349D01*
X00679449Y00268782D01*
X00678693Y00266958D01*
X00678435Y00265000D01*
X00678693Y00263042D01*
X00679449Y00261218D01*
X00680651Y00259651D01*
X00680902Y00259458D01*
Y00195000D01*
X00681290Y00193049D01*
X00682395Y00191395D01*
X00683027Y00190764D01*
X00682693Y00189958D01*
X00682435Y00188000D01*
X00682693Y00186042D01*
X00683449Y00184218D01*
X00684651Y00182651D01*
X00686218Y00181449D01*
X00688042Y00180693D01*
X00690000Y00180435D01*
X00691958Y00180693D01*
X00692652Y00180981D01*
X00694652Y00179705D01*
Y00150542D01*
X00694401Y00150349D01*
X00693199Y00148782D01*
X00692443Y00146958D01*
X00692185Y00145000D01*
X00692443Y00143042D01*
X00693199Y00141218D01*
X00694401Y00139651D01*
X00695968Y00138449D01*
X00697792Y00137693D01*
X00699750Y00137435D01*
X00701708Y00137693D01*
X00703532Y00138449D01*
X00705099Y00139651D01*
X00706301Y00141218D01*
X00707057Y00143042D01*
X00707315Y00145000D01*
X00707057Y00146958D01*
X00706301Y00148782D01*
X00705099Y00150349D01*
X00704848Y00150542D01*
Y00275250D01*
X00704460Y00277201D01*
X00703355Y00278855D01*
X00628605Y00353605D01*
X00626951Y00354710D01*
X00625000Y00355098D01*
X00421612D01*
X00318023Y00458686D01*
X00318065Y00459000D01*
X00317807Y00460958D01*
X00317051Y00462782D01*
X00315849Y00464349D01*
X00314282Y00465551D01*
X00313435Y00465902D01*
X00313833Y00467902D01*
X00355888D01*
X00359477Y00464314D01*
X00359435Y00464000D01*
X00359693Y00462042D01*
X00360449Y00460218D01*
X00361651Y00458651D01*
X00363218Y00457449D01*
X00365042Y00456693D01*
X00367000Y00456435D01*
X00368958Y00456693D01*
X00370782Y00457449D01*
X00372349Y00458651D01*
X00373551Y00460218D01*
X00374307Y00462042D01*
X00374565Y00464000D01*
X00374307Y00465958D01*
X00373551Y00467782D01*
X00372349Y00469349D01*
X00370782Y00470551D01*
X00368958Y00471307D01*
X00367000Y00471565D01*
X00366686Y00471523D01*
X00361605Y00476605D01*
X00359951Y00477710D01*
X00358000Y00478098D01*
X00274045D01*
X00272916Y00480098D01*
X00273307Y00481042D01*
X00273565Y00483000D01*
X00273307Y00484958D01*
X00272551Y00486782D01*
X00271349Y00488349D01*
X00269782Y00489551D01*
X00267958Y00490307D01*
X00266000Y00490565D01*
D02*
G37*
G36*
X00487565Y00615500D02*
X00478000D01*
Y00596935D01*
X00480000D01*
X00481958Y00597193D01*
X00483782Y00597949D01*
X00485349Y00599151D01*
X00486551Y00600718D01*
X00487307Y00602542D01*
X00487565Y00604500D01*
Y00615500D01*
D02*
G37*
G36*
X00092000D02*
X00082435D01*
Y00604500D01*
X00082693Y00602542D01*
X00083449Y00600718D01*
X00084651Y00599151D01*
X00086218Y00597949D01*
X00088042Y00597193D01*
X00090000Y00596935D01*
X00092000D01*
Y00615500D01*
D02*
G37*
G36*
X00794000Y00447673D02*
X00785000D01*
X00782781Y00447381D01*
X00780713Y00446525D01*
X00778938Y00445162D01*
X00777575Y00443387D01*
X00776719Y00441319D01*
X00776427Y00439100D01*
Y00430100D01*
X00776719Y00427881D01*
X00777575Y00425813D01*
X00778938Y00424038D01*
X00780193Y00423074D01*
X00780363Y00422437D01*
Y00421363D01*
X00780193Y00420726D01*
X00778938Y00419762D01*
X00777575Y00417987D01*
X00776719Y00415919D01*
X00776427Y00413700D01*
Y00404700D01*
X00776719Y00402481D01*
X00777575Y00400413D01*
X00778938Y00398638D01*
X00780713Y00397275D01*
X00782781Y00396419D01*
X00785000Y00396127D01*
X00794000D01*
X00796219Y00396419D01*
X00798287Y00397275D01*
X00800062Y00398638D01*
X00801425Y00400413D01*
X00802281Y00402481D01*
X00802573Y00404700D01*
Y00413700D01*
X00802281Y00415919D01*
X00801425Y00417987D01*
X00800062Y00419762D01*
X00798807Y00420726D01*
X00798637Y00421363D01*
Y00422437D01*
X00798807Y00423074D01*
X00800062Y00424038D01*
X00801425Y00425813D01*
X00802281Y00427881D01*
X00802573Y00430100D01*
Y00439100D01*
X00802281Y00441319D01*
X00801425Y00443387D01*
X00800062Y00445162D01*
X00798287Y00446525D01*
X00796219Y00447381D01*
X00794000Y00447673D01*
D02*
G37*
G36*
X00460000Y00070877D02*
X00456864Y00070568D01*
X00453848Y00069654D01*
X00451068Y00068168D01*
X00448632Y00066168D01*
X00446632Y00063732D01*
X00445146Y00060953D01*
X00444231Y00057937D01*
X00443923Y00054800D01*
X00444231Y00051663D01*
X00445146Y00048647D01*
X00446632Y00045868D01*
X00448632Y00043432D01*
X00451068Y00041432D01*
X00453848Y00039946D01*
X00456864Y00039032D01*
X00460000Y00038723D01*
X00463137Y00039032D01*
X00466153Y00039946D01*
X00468932Y00041432D01*
X00471368Y00043432D01*
X00473368Y00045868D01*
X00474854Y00048647D01*
X00475769Y00051663D01*
X00476077Y00054800D01*
X00475769Y00057937D01*
X00474854Y00060953D01*
X00473368Y00063732D01*
X00471368Y00066168D01*
X00468932Y00068168D01*
X00466153Y00069654D01*
X00463137Y00070568D01*
X00460000Y00070877D01*
D02*
G37*
G36*
X00291500Y00251933D02*
X00289172Y00251703D01*
X00286934Y00251024D01*
X00284871Y00249921D01*
X00283062Y00248438D01*
X00281579Y00246629D01*
X00280476Y00244566D01*
X00279797Y00242328D01*
X00279568Y00240000D01*
X00279797Y00237672D01*
X00280476Y00235434D01*
X00281579Y00233371D01*
X00283062Y00231562D01*
X00284871Y00230079D01*
X00286934Y00228976D01*
X00289172Y00228297D01*
Y00226303D01*
X00286934Y00225624D01*
X00284871Y00224522D01*
X00283062Y00223037D01*
X00281579Y00221229D01*
X00280476Y00219166D01*
X00279797Y00216928D01*
X00279568Y00214600D01*
X00279797Y00212272D01*
X00280476Y00210034D01*
X00281579Y00207971D01*
X00283062Y00206162D01*
X00284871Y00204679D01*
X00286934Y00203576D01*
X00289172Y00202897D01*
X00291500Y00202668D01*
X00293828Y00202897D01*
X00296066Y00203576D01*
X00298129Y00204679D01*
X00299937Y00206162D01*
X00301422Y00207971D01*
X00302524Y00210034D01*
X00303203Y00212272D01*
X00303433Y00214600D01*
X00303203Y00216928D01*
X00302524Y00219166D01*
X00301422Y00221229D01*
X00299937Y00223037D01*
X00298129Y00224522D01*
X00296066Y00225624D01*
X00293828Y00226303D01*
Y00228297D01*
X00296066Y00228976D01*
X00298129Y00230079D01*
X00299937Y00231562D01*
X00301422Y00233371D01*
X00302524Y00235434D01*
X00303203Y00237672D01*
X00303433Y00240000D01*
X00303203Y00242328D01*
X00302524Y00244566D01*
X00301422Y00246629D01*
X00299937Y00248438D01*
X00298129Y00249921D01*
X00296066Y00251024D01*
X00293828Y00251703D01*
X00291500Y00251933D01*
D02*
G37*
G36*
X00314500Y00370565D02*
X00312542Y00370307D01*
X00310718Y00369551D01*
X00309151Y00368349D01*
X00307949Y00366782D01*
X00307193Y00364958D01*
X00306935Y00363000D01*
X00307193Y00361042D01*
X00307949Y00359218D01*
X00309151Y00357651D01*
X00310718Y00356449D01*
X00312542Y00355693D01*
X00314500Y00355435D01*
X00316458Y00355693D01*
X00318282Y00356449D01*
X00319849Y00357651D01*
X00321051Y00359218D01*
X00321807Y00361042D01*
X00322065Y00363000D01*
X00321807Y00364958D01*
X00321051Y00366782D01*
X00319849Y00368349D01*
X00318282Y00369551D01*
X00316458Y00370307D01*
X00314500Y00370565D01*
D02*
G37*
G36*
X00272000Y00465065D02*
X00270042Y00464807D01*
X00268218Y00464051D01*
X00266651Y00462849D01*
X00265449Y00461282D01*
X00264693Y00459458D01*
X00264435Y00457500D01*
X00264693Y00455542D01*
X00265449Y00453718D01*
X00266651Y00452151D01*
X00268218Y00450949D01*
X00270042Y00450193D01*
X00272000Y00449935D01*
X00272314Y00449977D01*
X00398895Y00323395D01*
X00400549Y00322290D01*
X00402500Y00321902D01*
X00512084D01*
X00559591Y00274395D01*
X00561245Y00273290D01*
X00563195Y00272902D01*
X00636654D01*
X00636847Y00272651D01*
X00638413Y00271449D01*
X00640238Y00270693D01*
X00642196Y00270435D01*
X00644153Y00270693D01*
X00645978Y00271449D01*
X00647545Y00272651D01*
X00648747Y00274218D01*
X00649502Y00276042D01*
X00649760Y00278000D01*
X00649502Y00279958D01*
X00648747Y00281782D01*
X00647545Y00283349D01*
X00645978Y00284551D01*
X00644153Y00285307D01*
X00642196Y00285565D01*
X00640238Y00285307D01*
X00638413Y00284551D01*
X00636847Y00283349D01*
X00636654Y00283098D01*
X00565307D01*
X00517800Y00330605D01*
X00516146Y00331710D01*
X00514196Y00332098D01*
X00404612D01*
X00279523Y00457186D01*
X00279565Y00457500D01*
X00279307Y00459458D01*
X00278551Y00461282D01*
X00277349Y00462849D01*
X00275782Y00464051D01*
X00273958Y00464807D01*
X00272000Y00465065D01*
D02*
G37*
%LPD*%
G36*
X00253692Y00475902D02*
X00239395Y00461605D01*
X00238290Y00459951D01*
X00237902Y00458000D01*
Y00252748D01*
X00235902Y00251640D01*
X00235098Y00252143D01*
Y00462888D01*
X00250112Y00477902D01*
X00252864D01*
X00253692Y00475902D01*
D02*
G37*
G36*
X00694652Y00261063D02*
Y00196386D01*
X00692652Y00195557D01*
X00691098Y00197112D01*
Y00259458D01*
X00691349Y00259651D01*
X00692551Y00261218D01*
X00692652Y00261461D01*
X00694652Y00261063D01*
D02*
G37*
D10*
X00020000Y00000000D02*
X00820000Y00000000D01*
D02*
G03*
X00840000Y00020000I00000000J00020000D01*
G01*
Y00630000D01*
X00840000D02*
G03*
X00820000Y00650000I-00020000J-00000000D01*
G01*
X00020000D01*
D02*
G03*
X00000000Y00630000I00000000J-00020000D01*
G01*
Y00020000D01*
D02*
G03*
X00020000Y00000000I00020000J00000000D01*
G01*
X00230000Y00201000D02*
X00243000Y00214000D01*
Y00458000D01*
X00258000Y00473000D01*
X00358000D01*
X00367000Y00464000D01*
X00310500Y00459000D02*
X00419500Y00350000D01*
X00625000D01*
X00699750Y00275250D01*
Y00145000D01*
X00690000Y00188000D02*
Y00191000D01*
X00686000Y00195000D01*
Y00265000D01*
X00642196Y00278000D02*
X00563195D01*
X00514196Y00327000D01*
X00402500D01*
X00272000Y00457500D01*
X00266000Y00483000D02*
X00248000D01*
X00230000Y00465000D01*
Y00240000D01*
X00286000Y00510000D02*
X00241000D01*
X00196100Y00554900D01*
Y00618000D01*
D11*
X00291500Y00189200D02*
D03*
D12*
X00230000Y00201000D02*
D03*
X00204600D02*
D03*
X00255400Y00240000D02*
D03*
X00291500Y00214600D02*
D03*
Y00240000D02*
D03*
X00230000D02*
D03*
D13*
X00255400Y00201000D02*
D03*
X00204600Y00240000D02*
D03*
D14*
X00039500Y00308000D02*
D03*
Y00618000D02*
D03*
X00789500Y00308000D02*
D03*
Y00618000D02*
D03*
D15*
X00475500Y00618000D02*
D03*
X00450100D02*
D03*
X00424700D02*
D03*
X00399300D02*
D03*
X00373900D02*
D03*
X00348500D02*
D03*
X00323100D02*
D03*
X00297700D02*
D03*
X00272300D02*
D03*
X00246900D02*
D03*
X00221500D02*
D03*
X00196100D02*
D03*
X00170700D02*
D03*
X00145300D02*
D03*
X00119900D02*
D03*
X00094500D02*
D03*
D16*
X00789500Y00409200D02*
D03*
Y00434600D02*
D03*
Y00485400D02*
D03*
Y00510800D02*
D03*
D17*
X00120000Y00110000D02*
D03*
X00140000Y00540000D02*
D03*
X00700000D02*
D03*
X00720000Y00110000D02*
D03*
D18*
X00460000Y00054800D02*
D03*
X00580000D02*
D03*
D19*
X00494500Y00077800D02*
D03*
X00514900D02*
D03*
X00535300D02*
D03*
X00545500Y00103200D02*
D03*
X00525100D02*
D03*
X00504700D02*
D03*
D20*
X00220000Y00219236D02*
D03*
X00260645Y00303000D02*
D03*
X00332500Y00363000D02*
D03*
X00350000D02*
D03*
X00303433Y00394500D02*
D03*
X00314500Y00363000D02*
D03*
X00310500Y00459000D02*
D03*
X00367000Y00464000D02*
D03*
X00356000Y00501000D02*
D03*
X00412537Y00505116D02*
D03*
X00387137Y00572627D02*
D03*
X00360000Y00575198D02*
D03*
X00309009Y00584230D02*
D03*
X00283826Y00580235D02*
D03*
X00314500Y00523000D02*
D03*
X00286000Y00510000D02*
D03*
X00266000Y00483000D02*
D03*
X00272000Y00457500D02*
D03*
X00250000Y00556377D02*
D03*
X00055000Y00567000D02*
D03*
X00414000Y00316000D02*
D03*
X00566000Y00136500D02*
D03*
X00581000Y00136500D02*
D03*
X00595000D02*
D03*
Y00148750D02*
D03*
Y00161000D02*
D03*
X00643000Y00151250D02*
D03*
X00699750Y00145000D02*
D03*
X00753000Y00171500D02*
D03*
X00690000Y00188000D02*
D03*
X00686000Y00265000D02*
D03*
X00642196Y00278000D02*
D03*
X00599500Y00098500D02*
D03*
X00612500Y00040000D02*
D03*
M02*
