G04 Layer_Physical_Order=1*
G04 Layer_Color=255*
%FSAX44Y44*%
%MOMM*%
G71*
G01*
G75*
%ADD10R,1.0000X3.2000*%
%ADD11C,0.4000*%
%ADD12C,0.3000*%
%ADD13C,0.5000*%
%ADD14C,1.0000*%
%ADD15C,0.2000*%
%ADD16C,1.5000*%
%ADD17C,2.0000*%
%ADD18C,6.0000*%
G04:AMPARAMS|DCode=19|XSize=1.8mm|YSize=1.8mm|CornerRadius=0.45mm|HoleSize=0mm|Usage=FLASHONLY|Rotation=0.000|XOffset=0mm|YOffset=0mm|HoleType=Round|Shape=RoundedRectangle|*
%AMROUNDEDRECTD19*
21,1,1.8000,0.9000,0,0,0.0*
21,1,0.9000,1.8000,0,0,0.0*
1,1,0.9000,0.4500,-0.4500*
1,1,0.9000,-0.4500,-0.4500*
1,1,0.9000,-0.4500,0.4500*
1,1,0.9000,0.4500,0.4500*
%
%ADD19ROUNDEDRECTD19*%
G04:AMPARAMS|DCode=20|XSize=1.8mm|YSize=3.6mm|CornerRadius=0.45mm|HoleSize=0mm|Usage=FLASHONLY|Rotation=0.000|XOffset=0mm|YOffset=0mm|HoleType=Round|Shape=RoundedRectangle|*
%AMROUNDEDRECTD20*
21,1,1.8000,2.7000,0,0,0.0*
21,1,0.9000,3.6000,0,0,0.0*
1,1,0.9000,0.4500,-1.3500*
1,1,0.9000,-0.4500,-1.3500*
1,1,0.9000,-0.4500,1.3500*
1,1,0.9000,0.4500,1.3500*
%
%ADD20ROUNDEDRECTD20*%
%ADD21C,5.0000*%
%ADD22C,1.5750*%
%ADD23R,1.5750X1.5750*%
%ADD24C,0.7000*%
G36*
X00761310Y00628337D02*
X00760880Y00627299D01*
X00759778Y00622707D01*
X00759407Y00618000D01*
X00759778Y00613293D01*
X00760880Y00608701D01*
X00762687Y00604338D01*
X00765154Y00600312D01*
X00768221Y00596721D01*
X00771812Y00593655D01*
X00775838Y00591187D01*
X00780201Y00589380D01*
X00784792Y00588278D01*
X00789500Y00587907D01*
X00794208Y00588278D01*
X00798799Y00589380D01*
X00803162Y00591187D01*
X00807188Y00593655D01*
X00810779Y00596721D01*
X00813846Y00600312D01*
X00816313Y00604338D01*
X00818120Y00608701D01*
X00820000Y00608145D01*
Y00317855D01*
X00818120Y00317299D01*
X00816313Y00321662D01*
X00813846Y00325688D01*
X00810779Y00329279D01*
X00807188Y00332346D01*
X00803162Y00334813D01*
X00798799Y00336620D01*
X00794208Y00337722D01*
X00789500Y00338093D01*
X00784792Y00337722D01*
X00780201Y00336620D01*
X00775838Y00334813D01*
X00771812Y00332346D01*
X00768221Y00329279D01*
X00765154Y00325688D01*
X00762687Y00321662D01*
X00760880Y00317299D01*
X00759778Y00312708D01*
X00759407Y00308000D01*
X00759778Y00303293D01*
X00760880Y00298701D01*
X00762687Y00294338D01*
X00765154Y00290312D01*
X00768221Y00286721D01*
X00771812Y00283654D01*
X00775838Y00281187D01*
X00780201Y00279380D01*
X00784792Y00278278D01*
X00789500Y00277907D01*
X00794208Y00278278D01*
X00798799Y00279380D01*
X00803162Y00281187D01*
X00807188Y00283654D01*
X00810779Y00286721D01*
X00813846Y00290312D01*
X00816313Y00294338D01*
X00818120Y00298701D01*
X00820000Y00298145D01*
Y00040000D01*
X00800000Y00020000D01*
X00040000D01*
X00020000Y00040000D01*
Y00282819D01*
X00020958Y00283261D01*
X00022000Y00283539D01*
X00025838Y00281187D01*
X00030201Y00279380D01*
X00034792Y00278278D01*
X00039500Y00277907D01*
X00044208Y00278278D01*
X00048799Y00279380D01*
X00053162Y00281187D01*
X00057188Y00283654D01*
X00060779Y00286721D01*
X00063846Y00290312D01*
X00066313Y00294338D01*
X00068120Y00298701D01*
X00069222Y00303293D01*
X00069593Y00308000D01*
X00069222Y00312708D01*
X00068120Y00317299D01*
X00066313Y00321662D01*
X00063846Y00325688D01*
X00060779Y00329279D01*
X00057188Y00332346D01*
X00053162Y00334813D01*
X00048799Y00336620D01*
X00044208Y00337722D01*
X00039500Y00338093D01*
X00034792Y00337722D01*
X00030201Y00336620D01*
X00025838Y00334813D01*
X00022000Y00332461D01*
X00020958Y00332739D01*
X00020000Y00333181D01*
Y00590000D01*
X00022954Y00592954D01*
X00025838Y00591187D01*
X00030201Y00589380D01*
X00034792Y00588278D01*
X00039500Y00587907D01*
X00044208Y00588278D01*
X00048799Y00589380D01*
X00053162Y00591187D01*
X00057188Y00593655D01*
X00060779Y00596721D01*
X00063846Y00600312D01*
X00066313Y00604338D01*
X00068120Y00608701D01*
X00069222Y00613293D01*
X00069593Y00618000D01*
X00069222Y00622707D01*
X00068120Y00627299D01*
X00067690Y00628337D01*
X00068801Y00630000D01*
X00082435D01*
Y00604500D01*
X00082693Y00602542D01*
X00083449Y00600718D01*
X00084651Y00599151D01*
X00086218Y00597949D01*
X00088042Y00597193D01*
X00090000Y00596935D01*
X00099000D01*
X00100958Y00597193D01*
X00102782Y00597949D01*
X00104349Y00599151D01*
X00105551Y00600718D01*
X00106162Y00602192D01*
X00107200Y00602380D01*
X00108238Y00602192D01*
X00108849Y00600718D01*
X00110051Y00599151D01*
X00111618Y00597949D01*
X00113442Y00597193D01*
X00115400Y00596935D01*
X00124400D01*
X00126358Y00597193D01*
X00128182Y00597949D01*
X00129749Y00599151D01*
X00130951Y00600718D01*
X00131562Y00602192D01*
X00132600Y00602380D01*
X00133638Y00602192D01*
X00134249Y00600718D01*
X00135451Y00599151D01*
X00137018Y00597949D01*
X00138842Y00597193D01*
X00140800Y00596935D01*
X00149800D01*
X00151758Y00597193D01*
X00153582Y00597949D01*
X00155149Y00599151D01*
X00156351Y00600718D01*
X00156962Y00602192D01*
X00158000Y00602380D01*
X00159038Y00602192D01*
X00159649Y00600718D01*
X00160851Y00599151D01*
X00162418Y00597949D01*
X00164242Y00597193D01*
X00166200Y00596935D01*
X00175200D01*
X00177158Y00597193D01*
X00178982Y00597949D01*
X00180549Y00599151D01*
X00181751Y00600718D01*
X00182362Y00602192D01*
X00183400Y00602380D01*
X00184438Y00602192D01*
X00185049Y00600718D01*
X00186251Y00599151D01*
X00187818Y00597949D01*
X00189642Y00597193D01*
X00191600Y00596935D01*
X00200600D01*
X00202558Y00597193D01*
X00204382Y00597949D01*
X00205949Y00599151D01*
X00207151Y00600718D01*
X00207762Y00602192D01*
X00208800Y00602380D01*
X00209838Y00602192D01*
X00210449Y00600718D01*
X00211651Y00599151D01*
X00213218Y00597949D01*
X00215042Y00597193D01*
X00217000Y00596935D01*
X00226000D01*
X00227958Y00597193D01*
X00229782Y00597949D01*
X00231349Y00599151D01*
X00232551Y00600718D01*
X00233162Y00602192D01*
X00234200Y00602380D01*
X00235238Y00602192D01*
X00235849Y00600718D01*
X00237051Y00599151D01*
X00238618Y00597949D01*
X00240442Y00597193D01*
X00242400Y00596935D01*
X00251400D01*
X00253358Y00597193D01*
X00255182Y00597949D01*
X00256749Y00599151D01*
X00257951Y00600718D01*
X00258562Y00602192D01*
X00259600Y00602380D01*
X00260638Y00602192D01*
X00261249Y00600718D01*
X00262451Y00599151D01*
X00264018Y00597949D01*
X00265842Y00597193D01*
X00267800Y00596935D01*
X00276800D01*
X00278758Y00597193D01*
X00280582Y00597949D01*
X00282149Y00599151D01*
X00283351Y00600718D01*
X00283962Y00602192D01*
X00285000Y00602380D01*
X00286038Y00602192D01*
X00286649Y00600718D01*
X00287851Y00599151D01*
X00289418Y00597949D01*
X00291242Y00597193D01*
X00293200Y00596935D01*
X00302200D01*
X00304158Y00597193D01*
X00305982Y00597949D01*
X00307549Y00599151D01*
X00308751Y00600718D01*
X00309362Y00602192D01*
X00310400Y00602380D01*
X00311438Y00602192D01*
X00312049Y00600718D01*
X00313251Y00599151D01*
X00314818Y00597949D01*
X00316642Y00597193D01*
X00318600Y00596935D01*
X00327600D01*
X00329558Y00597193D01*
X00331382Y00597949D01*
X00332949Y00599151D01*
X00334151Y00600718D01*
X00334762Y00602192D01*
X00335800Y00602380D01*
X00336838Y00602192D01*
X00337449Y00600718D01*
X00338651Y00599151D01*
X00340218Y00597949D01*
X00342042Y00597193D01*
X00344000Y00596935D01*
X00353000D01*
X00354958Y00597193D01*
X00356782Y00597949D01*
X00358349Y00599151D01*
X00359551Y00600718D01*
X00360162Y00602192D01*
X00361200Y00602380D01*
X00362238Y00602192D01*
X00362849Y00600718D01*
X00364051Y00599151D01*
X00365618Y00597949D01*
X00367442Y00597193D01*
X00369400Y00596935D01*
X00378400D01*
X00380358Y00597193D01*
X00382182Y00597949D01*
X00383749Y00599151D01*
X00384951Y00600718D01*
X00385562Y00602192D01*
X00386600Y00602380D01*
X00387638Y00602192D01*
X00388249Y00600718D01*
X00389451Y00599151D01*
X00391018Y00597949D01*
X00392842Y00597193D01*
X00394800Y00596935D01*
X00403800D01*
X00405758Y00597193D01*
X00407582Y00597949D01*
X00409149Y00599151D01*
X00410351Y00600718D01*
X00410962Y00602192D01*
X00412000Y00602380D01*
X00413038Y00602192D01*
X00413649Y00600718D01*
X00414851Y00599151D01*
X00416418Y00597949D01*
X00418242Y00597193D01*
X00420200Y00596935D01*
X00429200D01*
X00431158Y00597193D01*
X00432982Y00597949D01*
X00434549Y00599151D01*
X00435751Y00600718D01*
X00436362Y00602192D01*
X00437400Y00602380D01*
X00438438Y00602192D01*
X00439049Y00600718D01*
X00440251Y00599151D01*
X00441818Y00597949D01*
X00443642Y00597193D01*
X00445600Y00596935D01*
X00454600D01*
X00456558Y00597193D01*
X00458382Y00597949D01*
X00459949Y00599151D01*
X00461151Y00600718D01*
X00461762Y00602192D01*
X00462800Y00602380D01*
X00463838Y00602192D01*
X00464449Y00600718D01*
X00465651Y00599151D01*
X00467218Y00597949D01*
X00469042Y00597193D01*
X00471000Y00596935D01*
X00473000D01*
Y00618000D01*
X00475500D01*
Y00620500D01*
X00487565D01*
Y00630000D01*
X00529927D01*
X00530325Y00628000D01*
X00529116Y00627499D01*
X00526844Y00625756D01*
X00525101Y00623484D01*
X00524005Y00620839D01*
X00523631Y00618000D01*
X00524005Y00615161D01*
X00524165Y00614775D01*
X00493488Y00584098D01*
X00343500D01*
X00341549Y00583710D01*
X00339895Y00582605D01*
X00240593Y00483302D01*
X00239488Y00481648D01*
X00239100Y00479697D01*
Y00460034D01*
X00238520Y00459278D01*
X00237865Y00457697D01*
X00237642Y00456000D01*
X00237865Y00454303D01*
X00238520Y00452722D01*
X00239562Y00451364D01*
X00240919Y00450322D01*
X00242501Y00449667D01*
X00244198Y00449444D01*
X00245894Y00449667D01*
X00247476Y00450322D01*
X00248833Y00451364D01*
X00249875Y00452722D01*
X00250530Y00454303D01*
X00250754Y00456000D01*
X00250530Y00457697D01*
X00249875Y00459278D01*
X00249296Y00460034D01*
Y00477586D01*
X00345612Y00573902D01*
X00495600D01*
X00497551Y00574290D01*
X00499205Y00575395D01*
X00531375Y00607565D01*
X00531761Y00607405D01*
X00534600Y00607031D01*
X00537439Y00607405D01*
X00540084Y00608501D01*
X00541710Y00609748D01*
X00543032Y00608242D01*
X00499888Y00565098D01*
X00350000D01*
X00348049Y00564710D01*
X00346395Y00563605D01*
X00262847Y00480057D01*
X00261742Y00478403D01*
X00261354Y00476452D01*
Y00461284D01*
X00260774Y00460528D01*
X00260119Y00458947D01*
X00259896Y00457250D01*
X00260119Y00455553D01*
X00260774Y00453972D01*
X00261816Y00452614D01*
X00263174Y00451572D01*
X00264755Y00450917D01*
X00266452Y00450694D01*
X00268149Y00450917D01*
X00269730Y00451572D01*
X00271088Y00452614D01*
X00273364Y00452364D01*
X00274722Y00451322D01*
X00276303Y00450667D01*
X00278000Y00450444D01*
X00279697Y00450667D01*
X00281278Y00451322D01*
X00282034Y00451902D01*
X00455000D01*
X00456951Y00452290D01*
X00458605Y00453395D01*
X00513753Y00508543D01*
X00514697Y00508667D01*
X00516278Y00509322D01*
X00517636Y00510364D01*
X00518678Y00511722D01*
X00519333Y00513303D01*
X00519556Y00515000D01*
X00519333Y00516697D01*
X00518678Y00518278D01*
X00517636Y00519636D01*
X00516278Y00520678D01*
X00514697Y00521333D01*
X00513000Y00521556D01*
X00511303Y00521333D01*
X00509722Y00520678D01*
X00508364Y00519636D01*
X00507322Y00518278D01*
X00506667Y00516697D01*
X00506543Y00515753D01*
X00452888Y00462098D01*
X00282034D01*
X00281278Y00462678D01*
X00279697Y00463333D01*
X00278000Y00463556D01*
X00276303Y00463333D01*
X00274722Y00462678D01*
X00273550Y00461778D01*
X00272767Y00461939D01*
X00271550Y00462557D01*
Y00474340D01*
X00352112Y00554902D01*
X00502000D01*
X00503951Y00555290D01*
X00505605Y00556395D01*
X00556775Y00607565D01*
X00557161Y00607405D01*
X00560000Y00607031D01*
X00562839Y00607405D01*
X00565484Y00608501D01*
X00567756Y00610244D01*
X00569499Y00612516D01*
X00570595Y00615161D01*
X00570969Y00618000D01*
X00570595Y00620839D01*
X00569499Y00623484D01*
X00567756Y00625756D01*
X00565484Y00627499D01*
X00564276Y00628000D01*
X00564673Y00630000D01*
X00572991D01*
X00574525Y00628875D01*
X00574525Y00628000D01*
Y00620500D01*
X00596275D01*
Y00628000D01*
X00596275Y00628875D01*
X00597809Y00630000D01*
X00760199D01*
X00761310Y00628337D01*
D02*
G37*
%LPC*%
G36*
X00448000Y00200000D02*
X00442500D01*
Y00183500D01*
X00448000D01*
Y00200000D01*
D02*
G37*
G36*
X00577500D02*
X00572000D01*
Y00183500D01*
X00577500D01*
Y00200000D01*
D02*
G37*
G36*
X00588000D02*
X00582500D01*
Y00183500D01*
X00588000D01*
Y00200000D01*
D02*
G37*
G36*
X00437500D02*
X00432000D01*
Y00183500D01*
X00437500D01*
Y00200000D01*
D02*
G37*
G36*
X00168000Y00178500D02*
X00162500D01*
Y00162000D01*
X00168000D01*
Y00178500D01*
D02*
G37*
G36*
X00297500Y00200000D02*
X00292000D01*
Y00183500D01*
X00297500D01*
Y00200000D01*
D02*
G37*
G36*
X00308000D02*
X00302500D01*
Y00183500D01*
X00308000D01*
Y00200000D01*
D02*
G37*
G36*
X00717500D02*
X00712000D01*
Y00183500D01*
X00717500D01*
Y00200000D01*
D02*
G37*
G36*
X00308000Y00246500D02*
X00302500D01*
Y00230000D01*
X00308000D01*
Y00246500D01*
D02*
G37*
G36*
X00437500D02*
X00432000D01*
Y00230000D01*
X00437500D01*
Y00246500D01*
D02*
G37*
G36*
X00448000D02*
X00442500D01*
Y00230000D01*
X00448000D01*
Y00246500D01*
D02*
G37*
G36*
X00297500D02*
X00292000D01*
Y00230000D01*
X00297500D01*
Y00246500D01*
D02*
G37*
G36*
X00728000Y00200000D02*
X00722500D01*
Y00183500D01*
X00728000D01*
Y00200000D01*
D02*
G37*
G36*
X00157500Y00200000D02*
X00152000D01*
Y00183500D01*
X00157500D01*
Y00200000D01*
D02*
G37*
G36*
X00168000D02*
X00162500D01*
Y00183500D01*
X00168000D01*
Y00200000D01*
D02*
G37*
G36*
X00493000Y00087184D02*
X00492020Y00087056D01*
X00489709Y00086098D01*
X00487725Y00084575D01*
X00486202Y00082591D01*
X00485245Y00080280D01*
X00485116Y00079300D01*
X00493000D01*
Y00087184D01*
D02*
G37*
G36*
X00535300Y00088391D02*
X00532559Y00088030D01*
X00530005Y00086972D01*
X00527811Y00085289D01*
X00526199Y00083187D01*
X00525119Y00083027D01*
X00525081D01*
X00524002Y00083187D01*
X00522389Y00085289D01*
X00520195Y00086972D01*
X00517641Y00088030D01*
X00514900Y00088391D01*
X00512159Y00088030D01*
X00509605Y00086972D01*
X00507411Y00085289D01*
X00505728Y00083095D01*
X00505241Y00081919D01*
X00503076D01*
X00502798Y00082591D01*
X00501275Y00084575D01*
X00499291Y00086098D01*
X00496980Y00087056D01*
X00496000Y00087184D01*
Y00077800D01*
Y00068415D01*
X00496980Y00068545D01*
X00499291Y00069502D01*
X00501275Y00071024D01*
X00502798Y00073009D01*
X00503076Y00073681D01*
X00505241D01*
X00505728Y00072505D01*
X00507411Y00070311D01*
X00509605Y00068628D01*
X00512159Y00067570D01*
X00514900Y00067209D01*
X00517641Y00067570D01*
X00520195Y00068628D01*
X00522389Y00070311D01*
X00524002Y00072413D01*
X00525081Y00072573D01*
X00525119D01*
X00526199Y00072413D01*
X00527811Y00070311D01*
X00530005Y00068628D01*
X00532559Y00067570D01*
X00535300Y00067209D01*
X00538041Y00067570D01*
X00540595Y00068628D01*
X00542789Y00070311D01*
X00544472Y00072505D01*
X00545530Y00075059D01*
X00545891Y00077800D01*
X00545530Y00080541D01*
X00544472Y00083095D01*
X00542789Y00085289D01*
X00540595Y00086972D01*
X00538041Y00088030D01*
X00535300Y00088391D01*
D02*
G37*
G36*
X00297500Y00178500D02*
X00292000D01*
Y00162000D01*
X00297500D01*
Y00178500D01*
D02*
G37*
G36*
X00645000Y00379556D02*
X00643303Y00379333D01*
X00641722Y00378678D01*
X00640364Y00377636D01*
X00639322Y00376278D01*
X00638667Y00374697D01*
X00638444Y00373000D01*
X00638667Y00371303D01*
X00639322Y00369722D01*
X00640364Y00368364D01*
X00640412Y00368328D01*
Y00092479D01*
X00640000Y00090556D01*
X00638303Y00090333D01*
X00636722Y00089678D01*
X00635364Y00088636D01*
X00634322Y00087278D01*
X00633667Y00085697D01*
X00633444Y00084000D01*
X00633667Y00082303D01*
X00634322Y00080722D01*
X00635364Y00079364D01*
X00636722Y00078322D01*
X00638303Y00077667D01*
X00640000Y00077444D01*
X00641697Y00077667D01*
X00643278Y00078322D01*
X00644636Y00079364D01*
X00645678Y00080722D01*
X00646333Y00082303D01*
X00646556Y00084000D01*
X00646548Y00084060D01*
X00648244Y00085756D01*
X00649239Y00087244D01*
X00649588Y00089000D01*
Y00368328D01*
X00649636Y00368364D01*
X00650678Y00369722D01*
X00651333Y00371303D01*
X00651556Y00373000D01*
X00651333Y00374697D01*
X00650678Y00376278D01*
X00649636Y00377636D01*
X00648278Y00378678D01*
X00646697Y00379333D01*
X00645000Y00379556D01*
D02*
G37*
G36*
X00460000Y00069873D02*
X00457060Y00069583D01*
X00454232Y00068725D01*
X00451626Y00067332D01*
X00449342Y00065458D01*
X00447468Y00063174D01*
X00446075Y00060568D01*
X00445217Y00057741D01*
X00444927Y00054800D01*
X00445217Y00051859D01*
X00446075Y00049032D01*
X00447468Y00046426D01*
X00449342Y00044142D01*
X00451626Y00042268D01*
X00454232Y00040875D01*
X00457060Y00040017D01*
X00460000Y00039727D01*
X00462941Y00040017D01*
X00465768Y00040875D01*
X00468374Y00042268D01*
X00470658Y00044142D01*
X00472532Y00046426D01*
X00473925Y00049032D01*
X00474783Y00051859D01*
X00475073Y00054800D01*
X00474783Y00057741D01*
X00473925Y00060568D01*
X00472532Y00063174D01*
X00470658Y00065458D01*
X00468374Y00067332D01*
X00465768Y00068725D01*
X00462941Y00069583D01*
X00460000Y00069873D01*
D02*
G37*
G36*
X00580000D02*
X00577060Y00069583D01*
X00574232Y00068725D01*
X00571626Y00067332D01*
X00569342Y00065458D01*
X00567468Y00063174D01*
X00566075Y00060568D01*
X00565217Y00057741D01*
X00564927Y00054800D01*
X00565217Y00051859D01*
X00566075Y00049032D01*
X00567468Y00046426D01*
X00569342Y00044142D01*
X00571626Y00042268D01*
X00574232Y00040875D01*
X00577060Y00040017D01*
X00580000Y00039727D01*
X00582940Y00040017D01*
X00585768Y00040875D01*
X00588374Y00042268D01*
X00590658Y00044142D01*
X00592532Y00046426D01*
X00593925Y00049032D01*
X00594783Y00051859D01*
X00595073Y00054800D01*
X00594783Y00057741D01*
X00593925Y00060568D01*
X00592532Y00063174D01*
X00590658Y00065458D01*
X00588374Y00067332D01*
X00585768Y00068725D01*
X00582940Y00069583D01*
X00580000Y00069873D01*
D02*
G37*
G36*
X00493000Y00076300D02*
X00485116D01*
X00485245Y00075320D01*
X00486202Y00073009D01*
X00487725Y00071024D01*
X00489709Y00069502D01*
X00492020Y00068545D01*
X00493000Y00068415D01*
Y00076300D01*
D02*
G37*
G36*
X00308000Y00178500D02*
X00302500D01*
Y00162000D01*
X00308000D01*
Y00178500D01*
D02*
G37*
G36*
X00717500D02*
X00712000D01*
Y00162000D01*
X00717500D01*
Y00178500D01*
D02*
G37*
G36*
X00728000D02*
X00722500D01*
Y00162000D01*
X00728000D01*
Y00178500D01*
D02*
G37*
G36*
X00157500Y00178500D02*
X00152000D01*
Y00162000D01*
X00157500D01*
Y00178500D01*
D02*
G37*
G36*
X00588000Y00178500D02*
X00582500D01*
Y00162000D01*
X00588000D01*
Y00178500D01*
D02*
G37*
G36*
X00437500D02*
X00432000D01*
Y00162000D01*
X00437500D01*
Y00178500D01*
D02*
G37*
G36*
X00448000D02*
X00442500D01*
Y00162000D01*
X00448000D01*
Y00178500D01*
D02*
G37*
G36*
X00577500D02*
X00572000D01*
Y00162000D01*
X00577500D01*
Y00178500D01*
D02*
G37*
G36*
X00185003Y00300556D02*
X00183306Y00300333D01*
X00181725Y00299678D01*
X00180969Y00299098D01*
X00138790D01*
X00136839Y00298710D01*
X00135185Y00297605D01*
X00116395Y00278815D01*
X00115290Y00277161D01*
X00114902Y00275210D01*
Y00270000D01*
X00110000D01*
Y00228000D01*
X00114902D01*
Y00202000D01*
X00110000D01*
Y00160000D01*
X00130000D01*
Y00202000D01*
X00125098D01*
Y00228000D01*
X00130000D01*
Y00270000D01*
X00125098D01*
Y00273098D01*
X00140902Y00288902D01*
X00180969D01*
X00181725Y00288322D01*
X00183306Y00287667D01*
X00185003Y00287444D01*
X00186700Y00287667D01*
X00188281Y00288322D01*
X00189639Y00289364D01*
X00190680Y00290722D01*
X00191335Y00292303D01*
X00191559Y00294000D01*
X00191335Y00295697D01*
X00190680Y00297278D01*
X00189639Y00298636D01*
X00188281Y00299678D01*
X00186700Y00300333D01*
X00185003Y00300556D01*
D02*
G37*
G36*
X00695000D02*
X00693303Y00300333D01*
X00691722Y00299678D01*
X00690966Y00299098D01*
X00686000D01*
X00684049Y00298710D01*
X00682395Y00297605D01*
X00676395Y00291605D01*
X00675290Y00289951D01*
X00674902Y00288000D01*
Y00270000D01*
X00670000D01*
Y00228000D01*
X00674902D01*
Y00202000D01*
X00670000D01*
Y00160000D01*
X00690000D01*
Y00202000D01*
X00685098D01*
Y00228000D01*
X00690000D01*
Y00270000D01*
X00685098D01*
Y00285889D01*
X00688112Y00288902D01*
X00690967D01*
X00691722Y00288322D01*
X00693303Y00287667D01*
X00695000Y00287444D01*
X00696697Y00287667D01*
X00698278Y00288322D01*
X00699636Y00289364D01*
X00700678Y00290722D01*
X00701333Y00292303D01*
X00701556Y00294000D01*
X00701333Y00295697D01*
X00700678Y00297278D01*
X00699636Y00298636D01*
X00698278Y00299678D01*
X00696697Y00300333D01*
X00695000Y00300556D01*
D02*
G37*
G36*
X00624000Y00379556D02*
X00622303Y00379333D01*
X00620722Y00378678D01*
X00619364Y00377636D01*
X00618322Y00376278D01*
X00617667Y00374697D01*
X00617444Y00373000D01*
X00617452Y00372940D01*
X00609256Y00364744D01*
X00608261Y00363256D01*
X00607912Y00361500D01*
Y00133672D01*
X00607864Y00133636D01*
X00606822Y00132278D01*
X00606167Y00130697D01*
X00605944Y00129000D01*
X00606167Y00127303D01*
X00606822Y00125722D01*
X00607864Y00124364D01*
X00609222Y00123322D01*
X00610803Y00122667D01*
X00612500Y00122444D01*
X00614197Y00122667D01*
X00615778Y00123322D01*
X00617136Y00124364D01*
X00618178Y00125722D01*
X00618833Y00127303D01*
X00619056Y00129000D01*
X00618833Y00130697D01*
X00618178Y00132278D01*
X00617136Y00133636D01*
X00617088Y00133672D01*
Y00359599D01*
X00623940Y00366452D01*
X00624000Y00366444D01*
X00625697Y00366667D01*
X00627278Y00367322D01*
X00628636Y00368364D01*
X00629678Y00369722D01*
X00630333Y00371303D01*
X00630556Y00373000D01*
X00630333Y00374697D01*
X00629678Y00376278D01*
X00628636Y00377636D01*
X00627278Y00378678D01*
X00625697Y00379333D01*
X00624000Y00379556D01*
D02*
G37*
G36*
X00546000Y00423059D02*
X00546000Y00423059D01*
X00474000D01*
X00472829Y00422826D01*
X00471837Y00422163D01*
X00471837Y00422163D01*
X00467837Y00418163D01*
X00467174Y00417170D01*
X00466941Y00416000D01*
X00466941Y00416000D01*
Y00380000D01*
X00466941Y00133000D01*
X00466941Y00133000D01*
X00467174Y00131830D01*
X00467837Y00130837D01*
X00467837Y00130837D01*
X00491640Y00107034D01*
X00491803Y00106925D01*
X00491931Y00106778D01*
X00492295Y00106596D01*
X00492633Y00106371D01*
X00492850Y00106320D01*
X00492999Y00106245D01*
X00494099Y00104812D01*
X00494239Y00104185D01*
X00494109Y00103200D01*
X00494470Y00100459D01*
X00495528Y00097905D01*
X00497211Y00095711D01*
X00499405Y00094028D01*
X00501959Y00092970D01*
X00504700Y00092609D01*
X00507441Y00092970D01*
X00509995Y00094028D01*
X00512189Y00095711D01*
X00513801Y00097813D01*
X00514881Y00097973D01*
X00514919D01*
X00515999Y00097813D01*
X00517611Y00095711D01*
X00519805Y00094028D01*
X00522359Y00092970D01*
X00525100Y00092609D01*
X00527841Y00092970D01*
X00530395Y00094028D01*
X00532589Y00095711D01*
X00534202Y00097813D01*
X00535281Y00097973D01*
X00535319D01*
X00536399Y00097813D01*
X00538011Y00095711D01*
X00540205Y00094028D01*
X00542759Y00092970D01*
X00545500Y00092609D01*
X00548241Y00092970D01*
X00550795Y00094028D01*
X00552989Y00095711D01*
X00554672Y00097905D01*
X00555730Y00100459D01*
X00556091Y00103200D01*
X00555730Y00105941D01*
X00554672Y00108495D01*
X00553092Y00110554D01*
X00552794Y00111127D01*
X00552543Y00112802D01*
X00552659Y00113080D01*
X00552826Y00113331D01*
X00552885Y00113626D01*
X00553000Y00113904D01*
Y00114206D01*
X00553059Y00114501D01*
Y00160000D01*
X00552826Y00161171D01*
X00552163Y00162163D01*
X00551171Y00162826D01*
X00550000Y00163059D01*
Y00202000D01*
X00545098D01*
Y00228000D01*
X00550000D01*
Y00270000D01*
X00545098D01*
Y00284610D01*
X00548390Y00287902D01*
X00550966D01*
X00551722Y00287322D01*
X00553303Y00286667D01*
X00555000Y00286444D01*
X00556697Y00286667D01*
X00558278Y00287322D01*
X00559636Y00288364D01*
X00560678Y00289722D01*
X00561333Y00291303D01*
X00561556Y00293000D01*
X00561333Y00294697D01*
X00560678Y00296278D01*
X00559636Y00297636D01*
X00558278Y00298678D01*
X00556697Y00299333D01*
X00555000Y00299556D01*
X00553059Y00301318D01*
Y00416000D01*
X00552826Y00417171D01*
X00552163Y00418163D01*
X00552163Y00418163D01*
X00548163Y00422163D01*
X00547170Y00422826D01*
X00546000Y00423059D01*
D02*
G37*
G36*
X00168000Y00268000D02*
X00162500D01*
Y00251500D01*
X00168000D01*
Y00268000D01*
D02*
G37*
G36*
X00275000Y00299556D02*
X00273303Y00299333D01*
X00271722Y00298678D01*
X00270966Y00298098D01*
X00264333D01*
X00262382Y00297710D01*
X00260728Y00296605D01*
X00256395Y00292272D01*
X00255290Y00290618D01*
X00254902Y00288667D01*
Y00270000D01*
X00250000D01*
Y00228000D01*
X00254902D01*
Y00202000D01*
X00250000D01*
Y00160000D01*
X00270000D01*
Y00202000D01*
X00265098D01*
Y00228000D01*
X00270000D01*
Y00270000D01*
X00265098D01*
Y00286556D01*
X00266444Y00287902D01*
X00270966D01*
X00271722Y00287322D01*
X00273303Y00286667D01*
X00275000Y00286444D01*
X00276697Y00286667D01*
X00278278Y00287322D01*
X00279636Y00288364D01*
X00280678Y00289722D01*
X00281333Y00291303D01*
X00281556Y00293000D01*
X00281333Y00294697D01*
X00280678Y00296278D01*
X00279636Y00297636D01*
X00278278Y00298678D01*
X00276697Y00299333D01*
X00275000Y00299556D01*
D02*
G37*
G36*
X00415000D02*
X00413303Y00299333D01*
X00411722Y00298678D01*
X00410966Y00298098D01*
X00405000D01*
X00403049Y00297710D01*
X00401395Y00296605D01*
X00396395Y00291605D01*
X00395290Y00289951D01*
X00394902Y00288000D01*
Y00270000D01*
X00390000D01*
Y00228000D01*
X00394902D01*
Y00202000D01*
X00390000D01*
Y00160000D01*
X00410000D01*
Y00202000D01*
X00405098D01*
Y00228000D01*
X00410000D01*
Y00270000D01*
X00405098D01*
Y00285888D01*
X00407112Y00287902D01*
X00410966D01*
X00411722Y00287322D01*
X00413303Y00286667D01*
X00415000Y00286444D01*
X00416697Y00286667D01*
X00418278Y00287322D01*
X00419636Y00288364D01*
X00420678Y00289722D01*
X00421333Y00291303D01*
X00421556Y00293000D01*
X00421333Y00294697D01*
X00420678Y00296278D01*
X00419636Y00297636D01*
X00418278Y00298678D01*
X00416697Y00299333D01*
X00415000Y00299556D01*
D02*
G37*
G36*
X00144000Y00405556D02*
X00142303Y00405333D01*
X00140722Y00404678D01*
X00139364Y00403636D01*
X00138322Y00402278D01*
X00137667Y00400697D01*
X00137444Y00399000D01*
X00137667Y00397303D01*
X00138322Y00395722D01*
X00139364Y00394364D01*
X00140722Y00393322D01*
X00142303Y00392667D01*
X00144000Y00392444D01*
X00145697Y00392667D01*
X00147278Y00393322D01*
X00147448Y00393453D01*
X00217700D01*
X00232639Y00378513D01*
X00232667Y00378301D01*
X00233322Y00376719D01*
X00234364Y00375362D01*
X00235722Y00374320D01*
X00237303Y00373665D01*
X00239000Y00373441D01*
X00240697Y00373665D01*
X00242278Y00374320D01*
X00243636Y00375362D01*
X00244678Y00376719D01*
X00245333Y00378301D01*
X00245556Y00379997D01*
X00245333Y00381694D01*
X00244678Y00383275D01*
X00243636Y00384633D01*
X00242278Y00385675D01*
X00240697Y00386330D01*
X00240485Y00386358D01*
X00223920Y00402923D01*
X00222771Y00403804D01*
X00221433Y00404358D01*
X00219997Y00404547D01*
X00147448D01*
X00147278Y00404678D01*
X00145697Y00405333D01*
X00144000Y00405556D01*
D02*
G37*
G36*
X00487565Y00615500D02*
X00478000D01*
Y00596935D01*
X00480000D01*
X00481958Y00597193D01*
X00483782Y00597949D01*
X00485349Y00599151D01*
X00486551Y00600718D01*
X00487307Y00602542D01*
X00487565Y00604500D01*
Y00615500D01*
D02*
G37*
G36*
X00582900D02*
X00574525D01*
Y00607125D01*
X00582900D01*
Y00615500D01*
D02*
G37*
G36*
X00596275D02*
X00587900D01*
Y00607125D01*
X00596275D01*
Y00615500D01*
D02*
G37*
G36*
X00794000Y00522865D02*
X00785000D01*
X00783042Y00522607D01*
X00781218Y00521851D01*
X00779651Y00520649D01*
X00778449Y00519082D01*
X00777693Y00517258D01*
X00777435Y00515300D01*
Y00506300D01*
X00777693Y00504342D01*
X00778449Y00502518D01*
X00779651Y00500951D01*
X00781218Y00499749D01*
X00782692Y00499138D01*
X00782880Y00498100D01*
X00782692Y00497062D01*
X00781218Y00496451D01*
X00779651Y00495249D01*
X00778449Y00493682D01*
X00777693Y00491858D01*
X00777435Y00489900D01*
Y00480900D01*
X00777693Y00478942D01*
X00778449Y00477118D01*
X00779651Y00475551D01*
X00781218Y00474349D01*
X00783042Y00473593D01*
X00785000Y00473335D01*
X00794000D01*
X00795958Y00473593D01*
X00797782Y00474349D01*
X00799349Y00475551D01*
X00800551Y00477118D01*
X00801307Y00478942D01*
X00801565Y00480900D01*
Y00489900D01*
X00801307Y00491858D01*
X00800551Y00493682D01*
X00799349Y00495249D01*
X00797782Y00496451D01*
X00796308Y00497062D01*
X00796120Y00498100D01*
X00796308Y00499138D01*
X00797782Y00499749D01*
X00799349Y00500951D01*
X00800551Y00502518D01*
X00801307Y00504342D01*
X00801565Y00506300D01*
Y00515300D01*
X00801307Y00517258D01*
X00800551Y00519082D01*
X00799349Y00520649D01*
X00797782Y00521851D01*
X00795958Y00522607D01*
X00794000Y00522865D01*
D02*
G37*
G36*
Y00446665D02*
X00785000D01*
X00783042Y00446407D01*
X00781218Y00445651D01*
X00779651Y00444449D01*
X00778449Y00442882D01*
X00777693Y00441058D01*
X00777435Y00439100D01*
Y00430100D01*
X00777693Y00428142D01*
X00778449Y00426318D01*
X00779651Y00424751D01*
X00781218Y00423549D01*
X00782692Y00422938D01*
X00782880Y00421900D01*
X00782692Y00420862D01*
X00781218Y00420251D01*
X00779651Y00419049D01*
X00778449Y00417482D01*
X00777693Y00415658D01*
X00777435Y00413700D01*
Y00404700D01*
X00777693Y00402742D01*
X00778449Y00400918D01*
X00779651Y00399351D01*
X00781218Y00398149D01*
X00783042Y00397393D01*
X00785000Y00397135D01*
X00794000D01*
X00795958Y00397393D01*
X00797782Y00398149D01*
X00799349Y00399351D01*
X00800551Y00400918D01*
X00801307Y00402742D01*
X00801565Y00404700D01*
Y00413700D01*
X00801307Y00415658D01*
X00800551Y00417482D01*
X00799349Y00419049D01*
X00797782Y00420251D01*
X00796308Y00420862D01*
X00796120Y00421900D01*
X00796308Y00422938D01*
X00797782Y00423549D01*
X00799349Y00424751D01*
X00800551Y00426318D01*
X00801307Y00428142D01*
X00801565Y00430100D01*
Y00439100D01*
X00801307Y00441058D01*
X00800551Y00442882D01*
X00799349Y00444449D01*
X00797782Y00445651D01*
X00795958Y00446407D01*
X00794000Y00446665D01*
D02*
G37*
G36*
X00598561Y00445098D02*
X00291172D01*
X00289221Y00444710D01*
X00287567Y00443605D01*
X00275395Y00431433D01*
X00274290Y00429779D01*
X00273902Y00427828D01*
Y00420034D01*
X00273322Y00419278D01*
X00272667Y00417697D01*
X00272444Y00416000D01*
X00272667Y00414303D01*
X00273322Y00412722D01*
X00274364Y00411364D01*
X00275722Y00410322D01*
X00277303Y00409667D01*
X00279000Y00409444D01*
X00280697Y00409667D01*
X00282278Y00410322D01*
X00283636Y00411364D01*
X00284678Y00412722D01*
X00285333Y00414303D01*
X00285556Y00416000D01*
X00285333Y00417697D01*
X00284678Y00419278D01*
X00284098Y00420034D01*
Y00425717D01*
X00293283Y00434902D01*
X00596449D01*
X00629956Y00401395D01*
X00631610Y00400290D01*
X00633561Y00399902D01*
X00645716D01*
X00646472Y00399322D01*
X00648053Y00398667D01*
X00649750Y00398444D01*
X00651447Y00398667D01*
X00653028Y00399322D01*
X00654386Y00400364D01*
X00655428Y00401722D01*
X00656083Y00403303D01*
X00656306Y00405000D01*
X00656083Y00406697D01*
X00655428Y00408278D01*
X00654386Y00409636D01*
X00653028Y00410678D01*
X00651447Y00411333D01*
X00649750Y00411556D01*
X00648053Y00411333D01*
X00646472Y00410678D01*
X00645716Y00410098D01*
X00635672D01*
X00602165Y00443605D01*
X00600512Y00444710D01*
X00598561Y00445098D01*
D02*
G37*
G36*
X00636000Y00531556D02*
X00634303Y00531333D01*
X00632722Y00530678D01*
X00631364Y00529636D01*
X00630322Y00528278D01*
X00629667Y00526697D01*
X00629444Y00525000D01*
X00629667Y00523303D01*
X00630322Y00521722D01*
X00631364Y00520364D01*
X00631412Y00520328D01*
Y00455000D01*
X00631761Y00453244D01*
X00632756Y00451756D01*
X00638662Y00445849D01*
Y00443672D01*
X00638614Y00443636D01*
X00637572Y00442278D01*
X00636917Y00440697D01*
X00636694Y00439000D01*
X00636917Y00437303D01*
X00637572Y00435722D01*
X00638614Y00434364D01*
X00639972Y00433322D01*
X00641553Y00432667D01*
X00643250Y00432444D01*
X00644947Y00432667D01*
X00646528Y00433322D01*
X00647886Y00434364D01*
X00648928Y00435722D01*
X00649583Y00437303D01*
X00649806Y00439000D01*
X00649583Y00440697D01*
X00648928Y00442278D01*
X00647886Y00443636D01*
X00647838Y00443672D01*
Y00447750D01*
X00647489Y00449506D01*
X00646494Y00450994D01*
X00640588Y00456900D01*
Y00520328D01*
X00640636Y00520364D01*
X00641678Y00521722D01*
X00642333Y00523303D01*
X00642556Y00525000D01*
X00642333Y00526697D01*
X00641678Y00528278D01*
X00640636Y00529636D01*
X00639278Y00530678D01*
X00637697Y00531333D01*
X00636000Y00531556D01*
D02*
G37*
G36*
X00157500Y00246500D02*
X00152000D01*
Y00230000D01*
X00157500D01*
Y00246500D01*
D02*
G37*
G36*
X00168000D02*
X00162500D01*
Y00230000D01*
X00168000D01*
Y00246500D01*
D02*
G37*
G36*
X00297500Y00268000D02*
X00292000D01*
Y00251500D01*
X00297500D01*
Y00268000D01*
D02*
G37*
G36*
X00728000Y00246500D02*
X00722500D01*
Y00230000D01*
X00728000D01*
Y00246500D01*
D02*
G37*
G36*
X00577500D02*
X00572000D01*
Y00230000D01*
X00577500D01*
Y00246500D01*
D02*
G37*
G36*
X00588000D02*
X00582500D01*
Y00230000D01*
X00588000D01*
Y00246500D01*
D02*
G37*
G36*
X00717500D02*
X00712000D01*
Y00230000D01*
X00717500D01*
Y00246500D01*
D02*
G37*
G36*
X00308000Y00268000D02*
X00302500D01*
Y00251500D01*
X00308000D01*
Y00268000D01*
D02*
G37*
G36*
X00717500D02*
X00712000D01*
Y00251500D01*
X00717500D01*
Y00268000D01*
D02*
G37*
G36*
X00588000D02*
X00582500D01*
Y00251500D01*
X00588000D01*
Y00268000D01*
D02*
G37*
G36*
X00157500Y00268000D02*
X00152000D01*
Y00251500D01*
X00157500D01*
Y00268000D01*
D02*
G37*
G36*
X00728000Y00268000D02*
X00722500D01*
Y00251500D01*
X00728000D01*
Y00268000D01*
D02*
G37*
G36*
X00437500D02*
X00432000D01*
Y00251500D01*
X00437500D01*
Y00268000D01*
D02*
G37*
G36*
X00448000D02*
X00442500D01*
Y00251500D01*
X00448000D01*
Y00268000D01*
D02*
G37*
G36*
X00577500D02*
X00572000D01*
Y00251500D01*
X00577500D01*
Y00268000D01*
D02*
G37*
%LPD*%
G36*
X00550000Y00416000D02*
Y00298098D01*
X00546278D01*
X00544327Y00297710D01*
X00542673Y00296605D01*
X00536395Y00290327D01*
X00535290Y00288673D01*
X00534902Y00286722D01*
Y00270000D01*
X00530000D01*
Y00228000D01*
X00534902D01*
Y00202000D01*
X00530000D01*
Y00160000D01*
X00550000D01*
Y00114501D01*
X00548748Y00113665D01*
X00548000Y00113462D01*
X00545500Y00113791D01*
X00542759Y00113430D01*
X00540205Y00112372D01*
X00538011Y00110689D01*
X00536328Y00108495D01*
X00535841Y00107319D01*
X00533676D01*
X00533398Y00107991D01*
X00531875Y00109975D01*
X00529891Y00111498D01*
X00527580Y00112456D01*
X00526600Y00112584D01*
Y00103200D01*
X00523600D01*
Y00112584D01*
X00522620Y00112456D01*
X00520309Y00111498D01*
X00518325Y00109975D01*
X00516802Y00107991D01*
X00516524Y00107319D01*
X00514359D01*
X00513872Y00108495D01*
X00512189Y00110689D01*
X00509995Y00112372D01*
X00507441Y00113430D01*
X00504700Y00113791D01*
X00501959Y00113430D01*
X00499405Y00112372D01*
X00497211Y00110689D01*
X00496312Y00109516D01*
X00493803Y00109197D01*
X00470000Y00133000D01*
X00470000Y00380000D01*
Y00416000D01*
X00474000Y00420000D01*
X00546000D01*
X00550000Y00416000D01*
D02*
G37*
D10*
X00300000Y00181000D02*
D03*
X00260000D02*
D03*
X00300000Y00249000D02*
D03*
X00260000D02*
D03*
X00160000Y00249000D02*
D03*
X00120000D02*
D03*
Y00181000D02*
D03*
X00160000D02*
D03*
X00400000Y00181000D02*
D03*
X00440000D02*
D03*
Y00249000D02*
D03*
X00400000D02*
D03*
X00540000Y00181000D02*
D03*
X00580000D02*
D03*
Y00249000D02*
D03*
X00540000D02*
D03*
X00680000Y00181000D02*
D03*
X00720000D02*
D03*
Y00249000D02*
D03*
X00680000D02*
D03*
D11*
X00300000Y00181000D02*
Y00249000D01*
Y00268000D01*
X00285000Y00283000D01*
X00275000Y00293000D02*
X00275000Y00293000D01*
X00275000Y00293000D02*
X00264333D01*
X00260000Y00288667D01*
Y00249000D01*
Y00181000D01*
X00160000Y00268000D02*
X00145000Y00283000D01*
X00160000Y00249000D02*
Y00268000D01*
Y00249000D02*
Y00181000D01*
X00120000D02*
Y00249000D01*
Y00275210D01*
X00138790Y00294000D01*
X00185003D01*
X00279000Y00416000D02*
Y00427828D01*
X00291172Y00440000D01*
X00598561D01*
X00633561Y00405000D01*
X00649750D01*
X00680000Y00288000D02*
X00686000Y00294000D01*
X00695000D01*
X00705000Y00283000D02*
X00720000Y00268000D01*
Y00249000D01*
Y00181000D01*
X00680000D02*
Y00249000D01*
Y00288000D01*
X00565000Y00283000D02*
X00580000Y00268000D01*
Y00249000D01*
Y00181000D01*
X00540000D02*
Y00249000D01*
Y00286722D01*
X00546278Y00293000D01*
X00555000D01*
X00440000Y00268000D02*
X00425000Y00283000D01*
X00440000Y00249000D02*
Y00268000D01*
Y00249000D02*
Y00181000D01*
X00400000D02*
Y00249000D01*
Y00288000D01*
X00405000Y00293000D01*
X00415000D01*
X00455000Y00457000D02*
X00513000Y00515000D01*
X00502000Y00560000D02*
X00560000Y00618000D01*
X00534600D02*
X00495600Y00579000D01*
X00343500D01*
X00244198Y00479697D01*
Y00456000D01*
X00266452Y00457250D02*
Y00476452D01*
X00350000Y00560000D01*
X00502000D01*
X00455000Y00457000D02*
X00278000D01*
D12*
X00612500Y00129000D02*
Y00361500D01*
X00624000Y00373000D01*
X00645000D02*
Y00089000D01*
X00640000Y00084000D01*
X00643250Y00439000D02*
Y00447750D01*
X00636000Y00455000D01*
Y00525000D01*
D13*
X00239000Y00379997D02*
X00219997Y00399000D01*
X00144000D01*
D14*
X00525100Y00103200D02*
Y00128900D01*
D15*
X00020000Y00000000D02*
X00820000Y00000000D01*
D02*
G03*
X00840000Y00020000I00000000J00020000D01*
G01*
Y00630000D01*
X00840000D02*
G03*
X00820000Y00650000I-00020000J-00000000D01*
G01*
X00020000D01*
D02*
G03*
X00000000Y00630000I00000000J-00020000D01*
G01*
Y00020000D01*
D02*
G03*
X00020000Y00000000I00020000J00000000D01*
G01*
D16*
X00494500Y00077800D02*
D03*
X00514900D02*
D03*
X00535300D02*
D03*
X00545500Y00103200D02*
D03*
X00525100D02*
D03*
X00504700D02*
D03*
D17*
X00460000Y00054800D02*
D03*
X00580000D02*
D03*
D18*
X00120000Y00110000D02*
D03*
X00140000Y00540000D02*
D03*
X00700000D02*
D03*
X00720000Y00110000D02*
D03*
D19*
X00789500Y00409200D02*
D03*
Y00434600D02*
D03*
Y00485400D02*
D03*
Y00510800D02*
D03*
D20*
X00475500Y00618000D02*
D03*
X00450100D02*
D03*
X00424700D02*
D03*
X00399300D02*
D03*
X00373900D02*
D03*
X00348500D02*
D03*
X00323100D02*
D03*
X00297700D02*
D03*
X00272300D02*
D03*
X00246900D02*
D03*
X00221500D02*
D03*
X00196100D02*
D03*
X00170700D02*
D03*
X00145300D02*
D03*
X00119900D02*
D03*
X00094500D02*
D03*
D21*
X00039500Y00308000D02*
D03*
Y00618000D02*
D03*
X00789500Y00308000D02*
D03*
Y00618000D02*
D03*
D22*
X00560000Y00618000D02*
D03*
X00534600D02*
D03*
D23*
X00585400Y00618000D02*
D03*
D24*
X00288081Y00269000D02*
D03*
X00275000Y00293000D02*
D03*
X00239000Y00379997D02*
D03*
X00212000Y00371000D02*
D03*
X00198078Y00357000D02*
D03*
X00185003Y00294000D02*
D03*
X00198081Y00269000D02*
D03*
X00144000Y00399000D02*
D03*
X00165000Y00417000D02*
D03*
X00196000Y00445000D02*
D03*
X00237744Y00440000D02*
D03*
X00244198Y00456000D02*
D03*
X00266452Y00457250D02*
D03*
X00279000Y00416000D02*
D03*
X00278000Y00457000D02*
D03*
X00311000Y00503000D02*
D03*
X00342559Y00536921D02*
D03*
X00327000Y00519493D02*
D03*
X00284000Y00586007D02*
D03*
X00310000Y00589380D02*
D03*
X00335000Y00591000D02*
D03*
X00385426Y00550323D02*
D03*
X00412000Y00590000D02*
D03*
X00513000Y00515000D02*
D03*
X00526000Y00478000D02*
D03*
X00550500Y00449000D02*
D03*
X00550500Y00464000D02*
D03*
Y00478000D02*
D03*
X00538250D02*
D03*
X00593000Y00411250D02*
D03*
X00624000Y00373000D02*
D03*
X00645000D02*
D03*
X00649750Y00405000D02*
D03*
X00703000Y00431500D02*
D03*
X00643250Y00439000D02*
D03*
X00636000Y00525000D02*
D03*
X00531000Y00410000D02*
D03*
Y00398000D02*
D03*
X00519000D02*
D03*
X00508000D02*
D03*
Y00410000D02*
D03*
X00519000D02*
D03*
X00496000D02*
D03*
Y00398000D02*
D03*
X00415000Y00293000D02*
D03*
X00428022Y00269000D02*
D03*
X00555000Y00293000D02*
D03*
X00568081Y00269000D02*
D03*
X00708081D02*
D03*
X00695000Y00294000D02*
D03*
X00612500Y00129000D02*
D03*
X00640000Y00084000D02*
D03*
X00612500Y00040000D02*
D03*
X00599500Y00098500D02*
D03*
X00126750Y00459000D02*
D03*
X00064750Y00417250D02*
D03*
X00038000Y00517250D02*
D03*
X00182613Y00584000D02*
D03*
X00209000D02*
D03*
X00234000Y00585000D02*
D03*
X00259000Y00589205D02*
D03*
M02*
