G04 Layer_Color=65535*
%FSAX44Y44*%
%MOMM*%
G71*
G01*
G75*
%ADD11C,0.4000*%
%ADD15C,0.2000*%
%ADD39C,0.1000*%
D11*
X00274500Y00260500D02*
G03*
X00274500Y00260500I-00002000J00000000D01*
G01*
X00134500Y00260500D02*
G03*
X00134500Y00260500I-00002000J00000000D01*
G01*
X00414500Y00260500D02*
G03*
X00414500Y00260500I-00002000J00000000D01*
G01*
X00554500D02*
G03*
X00554500Y00260500I-00002000J00000000D01*
G01*
X00694500D02*
G03*
X00694500Y00260500I-00002000J00000000D01*
G01*
D15*
X00020000Y00000000D02*
X00820000Y00000000D01*
D02*
G03*
X00840000Y00020000I00000000J00020000D01*
G01*
Y00630000D01*
X00840000D02*
G03*
X00820000Y00650000I-00020000J-00000000D01*
G01*
X00020000D01*
D02*
G03*
X00000000Y00630000I00000000J-00020000D01*
G01*
Y00020000D01*
D02*
G03*
X00020000Y00000000I00020000J00000000D01*
G01*
X00064000Y00335000D02*
X00776000D01*
Y00590000D01*
X00064000D01*
Y00335000D01*
X00090000Y00380000D02*
Y00540000D01*
X00190000D02*
X00650000D01*
X00750000D02*
Y00380000D01*
X00090000D01*
D39*
X00124661Y00050000D02*
X00123328D01*
Y00057997D01*
X00121995Y00056665D01*
X00119329Y00057997D02*
Y00050000D01*
X00121995D02*
X00124661D01*
X00119329Y00057997D02*
Y00053999D01*
X00113997D01*
Y00050000D01*
Y00057997D01*
X00111332D02*
Y00050000D01*
X00106000D02*
Y00057997D01*
X00108666Y00055332D01*
X00111332Y00057997D01*
X00251001Y00274587D02*
Y00277252D01*
X00252334Y00278585D01*
X00253667D01*
X00255000Y00277252D01*
Y00274587D01*
X00253667Y00273254D01*
X00251001Y00274587D02*
X00249668Y00273254D01*
X00248335D01*
X00247003Y00274587D01*
Y00277252D01*
X00248335Y00278585D01*
X00247003Y00281251D02*
X00255000D01*
X00252334Y00283917D01*
X00255000Y00286583D01*
X00247003D01*
Y00289248D02*
X00251001D01*
X00249668Y00291914D01*
Y00293247D01*
X00251001Y00294580D01*
X00253667D01*
X00255000Y00293247D01*
Y00290581D01*
X00253667Y00289248D01*
X00247003D02*
Y00294580D01*
X00114000Y00291994D02*
X00112667Y00293326D01*
X00111334D01*
X00110001Y00291994D01*
Y00287995D01*
X00112667D01*
X00114000Y00289328D01*
Y00291994D01*
Y00285329D02*
X00106003D01*
X00107336Y00290661D02*
X00110001Y00287995D01*
X00107336Y00290661D02*
X00106003Y00293326D01*
X00114000Y00285329D02*
X00111334Y00282663D01*
X00114000Y00279997D01*
X00106003D01*
X00107336Y00277332D02*
X00106003Y00275999D01*
Y00273333D01*
X00107336Y00272000D01*
X00108668D01*
X00110001Y00273333D01*
Y00275999D01*
X00111334Y00277332D01*
X00112667D01*
X00114000Y00275999D01*
Y00273333D01*
X00112667Y00272000D01*
X00388335Y00274000D02*
X00389668D01*
X00391001Y00275333D01*
Y00277999D01*
X00392334Y00279332D01*
X00393667D01*
X00395000Y00277999D01*
Y00275333D01*
X00393667Y00274000D01*
X00388335D02*
X00387003Y00275333D01*
Y00277999D01*
X00388335Y00279332D01*
X00387003Y00281997D02*
X00395000D01*
X00392334Y00284663D01*
X00395000Y00287329D01*
X00387003D01*
X00391001Y00289995D02*
Y00295326D01*
X00387003Y00293994D02*
X00391001Y00289995D01*
X00387003Y00293994D02*
X00395000D01*
X00529467Y00281997D02*
X00537464D01*
X00534798Y00284663D01*
X00537464Y00287329D01*
X00529467D01*
Y00291328D02*
Y00293994D01*
X00530800Y00295326D01*
X00532132D01*
X00533465Y00293994D01*
Y00292661D01*
Y00293994D01*
X00534798Y00295326D01*
X00536131D01*
X00537464Y00293994D01*
Y00291328D01*
X00536131Y00289995D01*
X00530800D02*
X00529467Y00291328D01*
Y00277999D02*
Y00275333D01*
X00530800Y00274000D01*
X00532132D01*
X00533465Y00275333D01*
Y00277999D01*
X00534798Y00279332D01*
X00536131D01*
X00537464Y00277999D01*
Y00275333D01*
X00536131Y00274000D01*
X00530800Y00279332D02*
X00529467Y00277999D01*
X00453561Y00144284D02*
X00454894Y00145617D01*
X00457560D01*
X00458893Y00144284D01*
Y00142952D01*
X00453561Y00137620D01*
X00458893D01*
X00449563Y00138953D02*
X00448230Y00137620D01*
X00446897D01*
X00445564Y00138953D01*
X00449563D02*
Y00145617D01*
X00448230D01*
X00450896D01*
X00445000Y00131000D02*
X00595000D01*
Y00004000D01*
X00445000D01*
Y00131000D01*
X00668586Y00275000D02*
X00669918D01*
X00671251Y00276333D01*
Y00278999D01*
X00672584Y00280332D01*
X00673917D01*
X00675250Y00278999D01*
Y00276333D01*
X00673917Y00275000D01*
X00668586D02*
X00667253Y00276333D01*
Y00278999D01*
X00668586Y00280332D01*
X00667253Y00282997D02*
X00675250D01*
X00672584Y00285663D01*
X00675250Y00288329D01*
X00667253D01*
X00668586Y00290995D02*
X00667253Y00292328D01*
Y00294994D01*
X00668586Y00296327D01*
X00669918D01*
X00675250Y00290995D01*
Y00296327D01*
X00699250Y00310500D02*
Y00318497D01*
X00701916Y00315832D01*
X00704582Y00318497D01*
Y00310500D01*
X00707247D02*
X00709913D01*
X00708580D01*
Y00318497D01*
X00707247Y00317164D01*
X00661494Y00555250D02*
X00658828D01*
X00657495Y00556583D01*
Y00561914D02*
X00658828Y00563247D01*
X00661494D01*
X00662827Y00561914D01*
Y00560582D01*
X00661494Y00559249D01*
X00660161D01*
X00661494D01*
X00662827Y00557916D01*
Y00556583D01*
X00661494Y00555250D01*
X00654829Y00563247D02*
Y00555250D01*
Y00559249D02*
Y00563247D01*
X00649498D02*
Y00555250D01*
Y00559249D01*
X00654829D01*
X00644166Y00560582D02*
X00646832Y00563247D01*
Y00555250D01*
X00641500D02*
Y00563247D01*
X00644166Y00560582D01*
X00186000Y00563997D02*
X00182001D01*
Y00569329D01*
X00178003D01*
X00186000D01*
Y00563997D02*
X00178003D01*
X00182001Y00571995D02*
Y00577327D01*
X00178003Y00575994D02*
X00182001Y00571995D01*
X00178003Y00575994D02*
X00186000D01*
Y00561332D02*
X00178003D01*
X00180668Y00558666D01*
X00178003Y00556000D01*
X00186000D01*
X00701666Y00053332D02*
X00704332Y00055997D01*
Y00048000D01*
X00706997D02*
Y00051999D01*
X00712329D01*
Y00055997D01*
Y00048000D01*
X00714995D02*
X00720327Y00053332D01*
Y00054665D01*
X00718994Y00055997D01*
X00716328D01*
X00714995Y00054665D01*
Y00048000D02*
X00720327D01*
X00706997Y00055997D02*
Y00048000D01*
X00699000D02*
Y00055997D01*
X00701666Y00053332D01*
M02*
