G04 Layer_Color=128*
%FSAX44Y44*%
%MOMM*%
G71*
G01*
G75*
%ADD15C,0.2000*%
%ADD67C,0.1270*%
D15*
X00020000Y00000000D02*
X00820000Y00000000D01*
D02*
G03*
X00840000Y00020000I00000000J00020000D01*
G01*
Y00630000D01*
X00840000D02*
G03*
X00820000Y00650000I-00020000J-00000000D01*
G01*
X00020000D01*
D02*
G03*
X00000000Y00630000I00000000J-00020000D01*
G01*
Y00020000D01*
D02*
G03*
X00020000Y00000000I00020000J00000000D01*
G01*
D67*
X00120000Y00095000D02*
Y00125000D01*
X00105000Y00110000D02*
X00135000D01*
X00286581Y00269000D02*
X00289581D01*
X00288081Y00267500D02*
Y00270500D01*
X00276500Y00293000D02*
X00273500D01*
X00275000Y00291500D02*
Y00294500D01*
X00239000Y00378497D02*
Y00381497D01*
X00237500Y00379997D02*
X00240500D01*
X00213500Y00371000D02*
X00210500D01*
X00212000Y00369500D02*
Y00372500D01*
X00199578Y00357000D02*
X00196578D01*
X00198078Y00355500D02*
Y00358500D01*
X00186503Y00294000D02*
X00183503D01*
X00185003Y00292500D02*
Y00295500D01*
X00196581Y00269000D02*
X00199581D01*
X00198081Y00267500D02*
Y00270500D01*
X00144000Y00397500D02*
Y00400500D01*
X00142500Y00399000D02*
X00145500D01*
X00163500Y00417000D02*
X00166500D01*
X00165000Y00415500D02*
Y00418500D01*
X00194500Y00445000D02*
X00197500D01*
X00196000Y00443500D02*
Y00446500D01*
X00236244Y00440000D02*
X00239244D01*
X00237744Y00438500D02*
Y00441500D01*
X00242698Y00456000D02*
X00245697D01*
X00244198Y00454500D02*
Y00457500D01*
X00264952Y00457250D02*
X00267952D01*
X00266452Y00455750D02*
Y00458750D01*
X00277500Y00416000D02*
X00280500D01*
X00279000Y00414500D02*
Y00417500D01*
X00278000Y00455500D02*
Y00458500D01*
X00276500Y00457000D02*
X00279500D01*
X00309500Y00503000D02*
X00312500D01*
X00311000Y00501500D02*
Y00504500D01*
X00328500Y00519493D02*
X00325500D01*
X00327000Y00517993D02*
Y00520993D01*
X00341059Y00536921D02*
X00344058D01*
X00342559Y00535421D02*
Y00538421D01*
X00310000Y00587880D02*
Y00590880D01*
X00308500Y00589380D02*
X00311500D01*
X00323100Y00613000D02*
Y00623000D01*
X00318100Y00618000D02*
X00328100D01*
X00343500D02*
X00353500D01*
X00368900D02*
X00378900D01*
X00394300D02*
X00404300D01*
X00419700D02*
X00429700D01*
X00445100D02*
X00455100D01*
X00470500D02*
X00480500D01*
X00529520D02*
X00539680D01*
X00534600Y00623080D02*
Y00612920D01*
X00560000D02*
Y00623080D01*
X00565080Y00618000D02*
X00554920D01*
X00580320D02*
X00590480D01*
X00585400Y00623080D02*
Y00612920D01*
X00634500Y00525000D02*
X00637500D01*
X00636000Y00523500D02*
Y00526500D01*
X00700000Y00525000D02*
Y00555000D01*
X00685000Y00540000D02*
X00715000D01*
X00784500Y00485400D02*
X00794500D01*
X00789500Y00480400D02*
Y00490400D01*
Y00505800D02*
Y00515800D01*
X00784500Y00510800D02*
X00794500D01*
X00789500Y00439600D02*
Y00429600D01*
X00784500Y00434600D02*
X00794500D01*
X00789500Y00414200D02*
Y00404200D01*
X00784500Y00409200D02*
X00794500D01*
X00789500Y00320500D02*
Y00295500D01*
X00802000Y00308000D02*
X00777000D01*
X00709581Y00269000D02*
X00706581D01*
X00708081Y00267500D02*
Y00270500D01*
X00695000Y00292500D02*
Y00295500D01*
X00693500Y00294000D02*
X00696500D01*
X00645000Y00371500D02*
Y00374500D01*
X00643500Y00373000D02*
X00646500D01*
X00648250Y00405000D02*
X00651250D01*
X00649750Y00403500D02*
Y00406500D01*
X00625500Y00373000D02*
X00622500D01*
X00624000Y00371500D02*
Y00374500D01*
X00593000Y00409750D02*
Y00412750D01*
X00591500Y00411250D02*
X00594500D01*
X00641750Y00439000D02*
X00644750D01*
X00643250Y00437500D02*
Y00440500D01*
X00701500Y00431500D02*
X00704500D01*
X00703000Y00430000D02*
Y00433000D01*
X00556500Y00293000D02*
X00553500D01*
X00555000Y00291500D02*
Y00294500D01*
X00566581Y00269000D02*
X00569581D01*
X00568081Y00267500D02*
Y00270500D01*
X00531000Y00396500D02*
Y00399500D01*
X00532500Y00398000D02*
X00529500D01*
X00520500D02*
X00517500D01*
X00519000Y00396500D02*
Y00399500D01*
Y00408500D02*
Y00411500D01*
X00508000D02*
Y00408500D01*
X00506500Y00410000D02*
X00509500D01*
X00517500D02*
X00520500D01*
X00529500D02*
X00532500D01*
X00531000Y00408500D02*
Y00411500D01*
X00549000Y00449000D02*
X00552000D01*
X00550500Y00447500D02*
Y00450500D01*
X00550500Y00462500D02*
Y00465500D01*
X00549000Y00464000D02*
X00552000D01*
X00550500Y00476500D02*
Y00479500D01*
X00549000Y00478000D02*
X00552000D01*
X00539750D02*
X00536750D01*
X00538250Y00476500D02*
Y00479500D01*
X00527500Y00478000D02*
X00524500D01*
X00526000Y00476500D02*
Y00479500D01*
X00496000Y00411500D02*
Y00408500D01*
X00494500Y00410000D02*
X00497500D01*
Y00398000D02*
X00494500D01*
X00496000Y00396500D02*
Y00399500D01*
X00506500Y00398000D02*
X00509500D01*
X00508000Y00396500D02*
Y00399500D01*
X00416500Y00293000D02*
X00413500D01*
X00415000Y00291500D02*
Y00294500D01*
X00426522Y00269000D02*
X00429522D01*
X00428022Y00267500D02*
Y00270500D01*
X00504700Y00107700D02*
Y00098700D01*
X00500200Y00103200D02*
X00509200D01*
X00520600D02*
X00529600D01*
X00525100Y00098700D02*
Y00107700D01*
X00514900Y00082300D02*
Y00073300D01*
X00510400Y00077800D02*
X00519400D01*
X00530800D02*
X00539800D01*
X00535300Y00073300D02*
Y00082300D01*
X00541000Y00103200D02*
X00550000D01*
X00545500Y00098700D02*
Y00107700D01*
X00568000Y00054800D02*
X00592000D01*
X00611000Y00040000D02*
X00614000D01*
X00612500Y00038500D02*
Y00041500D01*
X00638500Y00084000D02*
X00641500D01*
X00640000Y00082500D02*
Y00085500D01*
X00612500Y00127500D02*
Y00130500D01*
X00611000Y00129000D02*
X00614000D01*
X00601000Y00098500D02*
X00598000D01*
X00599500Y00097000D02*
Y00100000D01*
X00580000Y00066800D02*
Y00042800D01*
X00494500Y00082300D02*
Y00073300D01*
X00490000Y00077800D02*
X00499000D01*
X00472000Y00054800D02*
X00448000D01*
X00460000Y00042800D02*
Y00066800D01*
X00705000Y00110000D02*
X00735000D01*
X00720000Y00125000D02*
Y00095000D01*
X00513000Y00513500D02*
Y00516500D01*
X00511500Y00515000D02*
X00514500D01*
X00475500Y00613000D02*
Y00623000D01*
X00450100D02*
Y00613000D01*
X00424700Y00623000D02*
Y00613000D01*
X00413500Y00590000D02*
X00410500D01*
X00412000Y00588500D02*
Y00591500D01*
X00399300Y00623000D02*
Y00613000D01*
X00373900Y00623000D02*
Y00613000D01*
X00348500Y00623000D02*
Y00613000D01*
X00336500Y00591000D02*
X00333500D01*
X00335000Y00589500D02*
Y00592500D01*
X00302700Y00618000D02*
X00292700D01*
X00297700Y00623000D02*
Y00613000D01*
X00285500Y00586007D02*
X00282500D01*
X00284000Y00584507D02*
Y00587507D01*
X00260500Y00589205D02*
X00257500D01*
X00259000Y00590705D02*
Y00587705D01*
X00272300Y00613000D02*
Y00623000D01*
X00267300Y00618000D02*
X00277300D01*
X00251900D02*
X00241900D01*
X00246900Y00623000D02*
Y00613000D01*
X00235500Y00585000D02*
X00232500D01*
X00234000Y00583500D02*
Y00586500D01*
X00221500Y00613000D02*
Y00623000D01*
X00216500Y00618000D02*
X00226500D01*
X00201100D02*
X00191100D01*
X00196100Y00623000D02*
Y00613000D01*
X00184113Y00584000D02*
X00181113D01*
X00182613Y00582500D02*
Y00585500D01*
X00207500Y00584000D02*
X00210500D01*
X00209000Y00582500D02*
Y00585500D01*
X00175700Y00618000D02*
X00165700D01*
X00170700Y00623000D02*
Y00613000D01*
X00150300Y00618000D02*
X00140300D01*
X00145300Y00623000D02*
Y00613000D01*
X00124900Y00618000D02*
X00114900D01*
X00119900Y00623000D02*
Y00613000D01*
X00099500Y00618000D02*
X00089500D01*
X00094500Y00623000D02*
Y00613000D01*
X00052000Y00618000D02*
X00027000D01*
X00039500Y00630500D02*
Y00605500D01*
X00039500Y00517250D02*
X00036500D01*
X00038000Y00515750D02*
Y00518750D01*
X00063250Y00417250D02*
X00066250D01*
X00064750Y00415750D02*
Y00418750D01*
X00125250Y00459000D02*
X00128250D01*
X00126750Y00457500D02*
Y00460500D01*
X00140000Y00525000D02*
Y00555000D01*
X00125000Y00540000D02*
X00155000D01*
X00039500Y00320500D02*
Y00295500D01*
X00027000Y00308000D02*
X00052000D01*
X00383926Y00550323D02*
X00386926D01*
X00385426Y00548823D02*
Y00551823D01*
X00777000Y00618000D02*
X00802000D01*
X00789500Y00630500D02*
Y00605500D01*
M02*
