G04 Layer_Physical_Order=2*
G04 Layer_Color=16711680*
%FSAX44Y44*%
%MOMM*%
G71*
G01*
G75*
%ADD10R,1.0000X3.2000*%
%ADD11C,0.4000*%
%ADD12C,0.3000*%
%ADD13C,0.5000*%
%ADD14C,1.0000*%
%ADD15C,0.2000*%
%ADD16C,1.5000*%
%ADD17C,2.0000*%
%ADD18C,6.0000*%
G04:AMPARAMS|DCode=19|XSize=1.8mm|YSize=1.8mm|CornerRadius=0.45mm|HoleSize=0mm|Usage=FLASHONLY|Rotation=0.000|XOffset=0mm|YOffset=0mm|HoleType=Round|Shape=RoundedRectangle|*
%AMROUNDEDRECTD19*
21,1,1.8000,0.9000,0,0,0.0*
21,1,0.9000,1.8000,0,0,0.0*
1,1,0.9000,0.4500,-0.4500*
1,1,0.9000,-0.4500,-0.4500*
1,1,0.9000,-0.4500,0.4500*
1,1,0.9000,0.4500,0.4500*
%
%ADD19ROUNDEDRECTD19*%
G04:AMPARAMS|DCode=20|XSize=1.8mm|YSize=3.6mm|CornerRadius=0.45mm|HoleSize=0mm|Usage=FLASHONLY|Rotation=0.000|XOffset=0mm|YOffset=0mm|HoleType=Round|Shape=RoundedRectangle|*
%AMROUNDEDRECTD20*
21,1,1.8000,2.7000,0,0,0.0*
21,1,0.9000,3.6000,0,0,0.0*
1,1,0.9000,0.4500,-1.3500*
1,1,0.9000,-0.4500,-1.3500*
1,1,0.9000,-0.4500,1.3500*
1,1,0.9000,0.4500,1.3500*
%
%ADD20ROUNDEDRECTD20*%
%ADD21C,5.0000*%
%ADD22C,1.5750*%
%ADD23R,1.5750X1.5750*%
%ADD24C,0.7000*%
%ADD25R,1.4000X1.2000*%
%ADD26R,1.2000X1.4000*%
%ADD27R,0.6000X0.6000*%
%ADD28R,0.6000X0.6000*%
%ADD29R,0.6500X1.1000*%
%ADD30C,1.0000*%
%ADD31R,0.8000X0.8000*%
%ADD32R,0.9000X0.6000*%
%ADD33O,0.3500X1.7000*%
%ADD34O,1.7000X0.5500*%
%ADD35O,0.5500X1.7000*%
%ADD36R,2.4000X1.9000*%
%ADD37R,0.5500X0.8000*%
%ADD38R,1.4500X1.2500*%
G36*
X00413038Y00602192D02*
X00413649Y00600718D01*
X00414851Y00599151D01*
X00416418Y00597949D01*
X00418242Y00597193D01*
X00419602Y00597014D01*
Y00543312D01*
X00406151Y00529860D01*
X00404308Y00530846D01*
X00404398Y00531300D01*
Y00597014D01*
X00405758Y00597193D01*
X00407582Y00597949D01*
X00409149Y00599151D01*
X00410351Y00600718D01*
X00410962Y00602192D01*
X00412000Y00602380D01*
X00413038Y00602192D01*
D02*
G37*
G36*
X00209838D02*
X00210449Y00600718D01*
X00211651Y00599151D01*
X00213218Y00597949D01*
X00215042Y00597193D01*
X00216402Y00597014D01*
Y00569500D01*
X00216790Y00567549D01*
X00217895Y00565895D01*
X00241902Y00541888D01*
Y00530671D01*
X00240054Y00529905D01*
X00201198Y00568762D01*
Y00597014D01*
X00202558Y00597193D01*
X00204382Y00597949D01*
X00205949Y00599151D01*
X00207151Y00600718D01*
X00207762Y00602192D01*
X00208800Y00602380D01*
X00209838Y00602192D01*
D02*
G37*
G36*
X00387638D02*
X00388249Y00600718D01*
X00389451Y00599151D01*
X00391018Y00597949D01*
X00392842Y00597193D01*
X00394202Y00597014D01*
Y00533412D01*
X00380905Y00520115D01*
X00379607Y00520566D01*
X00378998Y00521036D01*
Y00597014D01*
X00380358Y00597193D01*
X00382182Y00597949D01*
X00383749Y00599151D01*
X00384951Y00600718D01*
X00385562Y00602192D01*
X00386600Y00602380D01*
X00387638Y00602192D01*
D02*
G37*
G36*
X00336838D02*
X00337449Y00600718D01*
X00338651Y00599151D01*
X00340218Y00597949D01*
X00342042Y00597193D01*
X00343402Y00597014D01*
Y00585612D01*
X00285946Y00528155D01*
X00284098Y00528921D01*
Y00531388D01*
X00326705Y00573995D01*
X00327810Y00575649D01*
X00328198Y00577600D01*
Y00597014D01*
X00329558Y00597193D01*
X00331382Y00597949D01*
X00332949Y00599151D01*
X00334151Y00600718D01*
X00334762Y00602192D01*
X00335800Y00602380D01*
X00336838Y00602192D01*
D02*
G37*
G36*
X00235238D02*
X00235849Y00600718D01*
X00237051Y00599151D01*
X00238618Y00597949D01*
X00240442Y00597193D01*
X00241802Y00597014D01*
Y00563100D01*
X00242190Y00561149D01*
X00243295Y00559495D01*
X00249902Y00552888D01*
Y00550921D01*
X00248054Y00550155D01*
X00226598Y00571612D01*
Y00597014D01*
X00227958Y00597193D01*
X00229782Y00597949D01*
X00231349Y00599151D01*
X00232551Y00600718D01*
X00233162Y00602192D01*
X00234200Y00602380D01*
X00235238Y00602192D01*
D02*
G37*
G36*
X00286038D02*
X00286649Y00600718D01*
X00287851Y00599151D01*
X00289418Y00597949D01*
X00291242Y00597193D01*
X00292602Y00597014D01*
Y00579812D01*
X00269946Y00557155D01*
X00268098Y00557921D01*
Y00568888D01*
X00275905Y00576695D01*
X00277010Y00578349D01*
X00277398Y00580300D01*
Y00597014D01*
X00278758Y00597193D01*
X00280582Y00597949D01*
X00282149Y00599151D01*
X00283351Y00600718D01*
X00283962Y00602192D01*
X00285000Y00602380D01*
X00286038Y00602192D01*
D02*
G37*
G36*
X00311438D02*
X00312049Y00600718D01*
X00313251Y00599151D01*
X00314818Y00597949D01*
X00316642Y00597193D01*
X00318002Y00597014D01*
Y00579712D01*
X00277946Y00539655D01*
X00276098Y00540421D01*
Y00548888D01*
X00301305Y00574095D01*
X00302410Y00575749D01*
X00302798Y00577700D01*
Y00597014D01*
X00304158Y00597193D01*
X00305982Y00597949D01*
X00307549Y00599151D01*
X00308751Y00600718D01*
X00309362Y00602192D01*
X00310400Y00602380D01*
X00311438Y00602192D01*
D02*
G37*
G36*
X00206368Y00416219D02*
X00206936Y00415854D01*
X00207276Y00414147D01*
X00207746Y00413443D01*
X00208160Y00412000D01*
X00207746Y00410557D01*
X00207276Y00409853D01*
X00206907Y00408000D01*
X00207276Y00406147D01*
X00208325Y00404575D01*
X00209897Y00403526D01*
X00211750Y00403157D01*
X00223250D01*
X00223902Y00403287D01*
X00225902Y00401837D01*
Y00394500D01*
X00226157Y00393218D01*
Y00388750D01*
X00226526Y00386897D01*
X00227575Y00385325D01*
X00229147Y00384276D01*
X00231000Y00383907D01*
X00231453Y00383997D01*
X00231459Y00383995D01*
X00232895Y00382245D01*
X00232667Y00381694D01*
X00232444Y00379997D01*
X00232667Y00378301D01*
X00233322Y00376719D01*
X00234364Y00375362D01*
X00235722Y00374320D01*
X00237303Y00373665D01*
X00239000Y00373441D01*
X00240697Y00373665D01*
X00242278Y00374320D01*
X00243636Y00375362D01*
X00244678Y00376719D01*
X00245333Y00378301D01*
X00245556Y00379997D01*
X00245333Y00381694D01*
X00245105Y00382245D01*
X00246541Y00383995D01*
X00246547Y00383997D01*
X00247000Y00383907D01*
X00248853Y00384276D01*
X00249557Y00384746D01*
X00251000Y00385160D01*
X00252443Y00384746D01*
X00253147Y00384276D01*
X00255000Y00383907D01*
X00256853Y00384276D01*
X00257557Y00384746D01*
X00259000Y00385160D01*
X00260443Y00384746D01*
X00261147Y00384276D01*
X00263000Y00383907D01*
X00264853Y00384276D01*
X00265557Y00384746D01*
X00267000Y00385160D01*
X00268443Y00384746D01*
X00269147Y00384276D01*
X00271000Y00383907D01*
X00272853Y00384276D01*
X00273557Y00384746D01*
X00275000Y00385160D01*
X00276443Y00384746D01*
X00277147Y00384276D01*
X00279000Y00383907D01*
X00280853Y00384276D01*
X00281557Y00384746D01*
X00283000Y00385160D01*
X00284443Y00384746D01*
X00285147Y00384276D01*
X00287000Y00383907D01*
X00288853Y00384276D01*
X00290425Y00385325D01*
X00291474Y00386897D01*
X00291843Y00388750D01*
Y00400250D01*
X00291482Y00402066D01*
X00291586Y00402215D01*
X00292785Y00403414D01*
X00292934Y00403518D01*
X00294750Y00403157D01*
X00299219D01*
X00300500Y00402902D01*
X00320888D01*
X00324902Y00398888D01*
Y00366112D01*
X00313138Y00354348D01*
X00222410D01*
X00220459Y00353960D01*
X00218805Y00352855D01*
X00217894Y00351943D01*
X00217575Y00351862D01*
X00215500Y00352163D01*
X00214880Y00352577D01*
X00214508Y00352826D01*
X00213337Y00353059D01*
X00193208D01*
X00190059Y00356254D01*
Y00360006D01*
X00190079Y00361997D01*
X00191266Y00361997D01*
X00196578D01*
Y00370997D01*
Y00379997D01*
X00192893D01*
X00192059Y00381997D01*
X00192059Y00381997D01*
X00194078D01*
Y00382997D01*
X00196578D01*
Y00387997D01*
X00198078D01*
Y00389497D01*
X00203078D01*
Y00392997D01*
X00197519D01*
X00196881Y00393997D01*
X00197519Y00394997D01*
X00203078D01*
Y00398497D01*
X00198078D01*
Y00399997D01*
X00196578D01*
Y00404997D01*
X00196079D01*
X00195251Y00406997D01*
X00205020Y00416767D01*
X00206368Y00416219D01*
D02*
G37*
G36*
X00070931Y00301842D02*
Y00047732D01*
X00071206Y00045644D01*
X00072012Y00043698D01*
X00073294Y00042027D01*
X00094026Y00021294D01*
X00095698Y00020012D01*
X00097644Y00019206D01*
X00099732Y00018931D01*
X00177169D01*
X00177174Y00018908D01*
X00177837Y00017916D01*
X00177837Y00017916D01*
X00183905Y00011848D01*
X00183140Y00010000D01*
X00030000D01*
X00010000Y00030000D01*
Y00295599D01*
X00012000Y00295997D01*
X00012687Y00294338D01*
X00015155Y00290312D01*
X00018221Y00286721D01*
X00021812Y00283654D01*
X00025838Y00281187D01*
X00030201Y00279380D01*
X00034792Y00278278D01*
X00039500Y00277907D01*
X00044208Y00278278D01*
X00048799Y00279380D01*
X00053162Y00281187D01*
X00057188Y00283654D01*
X00060779Y00286721D01*
X00063846Y00290312D01*
X00066313Y00294338D01*
X00068120Y00298701D01*
X00068931Y00302079D01*
X00070931Y00301842D01*
D02*
G37*
G36*
X00205676Y00433500D02*
X00217500D01*
Y00430500D01*
X00207205D01*
X00207276Y00430147D01*
X00207746Y00429443D01*
X00208160Y00428000D01*
X00207746Y00426557D01*
X00207276Y00425853D01*
X00207205Y00425500D01*
X00217500D01*
Y00422500D01*
X00206784D01*
X00205819Y00421000D01*
X00204928D01*
X00191000Y00407072D01*
X00191000Y00406412D01*
X00189586Y00404997D01*
X00189578D01*
Y00399997D01*
Y00394997D01*
X00191000D01*
Y00392997D01*
X00189578D01*
Y00387997D01*
X00188078D01*
Y00386497D01*
X00183078D01*
Y00382997D01*
X00186936D01*
X00187000Y00382842D01*
Y00379997D01*
X00181579D01*
Y00370997D01*
Y00361997D01*
X00187000D01*
Y00355000D01*
X00191928Y00350000D01*
Y00350000D01*
X00213337D01*
X00214103Y00348152D01*
X00198049Y00332098D01*
X00191003D01*
Y00333000D01*
X00179003D01*
Y00332000D01*
X00176503D01*
Y00327000D01*
Y00322000D01*
X00179003D01*
Y00321000D01*
X00179905D01*
Y00312172D01*
X00179297Y00311706D01*
X00178015Y00310035D01*
X00177209Y00308088D01*
X00176934Y00306000D01*
X00177209Y00303912D01*
X00178015Y00301966D01*
X00179297Y00300294D01*
X00179668Y00300010D01*
X00179829Y00297935D01*
X00179325Y00297278D01*
X00178670Y00295697D01*
X00178447Y00294000D01*
X00178670Y00292303D01*
X00179325Y00290722D01*
X00179902Y00289970D01*
Y00285000D01*
X00179000D01*
Y00273000D01*
Y00263000D01*
X00191000D01*
Y00264412D01*
X00193409D01*
X00193445Y00264364D01*
X00194803Y00263322D01*
X00196384Y00262667D01*
X00198081Y00262444D01*
X00199778Y00262667D01*
X00201359Y00263322D01*
X00202717Y00264364D01*
X00203759Y00265722D01*
X00204414Y00267303D01*
X00204637Y00269000D01*
X00204414Y00270697D01*
X00203759Y00272278D01*
X00202717Y00273636D01*
X00201359Y00274678D01*
X00199778Y00275333D01*
X00198081Y00275556D01*
X00196384Y00275333D01*
X00194803Y00274678D01*
X00193445Y00273636D01*
X00193409Y00273588D01*
X00191000D01*
Y00285000D01*
X00190098D01*
Y00289963D01*
X00190680Y00290722D01*
X00191335Y00292303D01*
X00191559Y00294000D01*
X00191335Y00295697D01*
X00190680Y00297278D01*
X00190176Y00297935D01*
X00190338Y00300010D01*
X00190708Y00300294D01*
X00191991Y00301966D01*
X00192797Y00303912D01*
X00193072Y00306000D01*
X00192797Y00308088D01*
X00191991Y00310035D01*
X00190708Y00311706D01*
X00190101Y00312172D01*
Y00321000D01*
X00191003D01*
Y00321902D01*
X00200160D01*
X00202111Y00322290D01*
X00203765Y00323395D01*
X00224522Y00344152D01*
X00315250D01*
X00317201Y00344540D01*
X00318855Y00345645D01*
X00323210Y00350000D01*
X00342488D01*
X00343902Y00348586D01*
Y00344112D01*
X00331888Y00332098D01*
X00280000D01*
Y00333000D01*
X00268000D01*
Y00332000D01*
X00265500D01*
Y00327000D01*
Y00322000D01*
X00268000D01*
Y00321000D01*
X00269902D01*
Y00312172D01*
X00269294Y00311706D01*
X00268012Y00310035D01*
X00267206Y00308088D01*
X00266931Y00306000D01*
X00267206Y00303912D01*
X00268012Y00301966D01*
X00269294Y00300294D01*
X00269902Y00299828D01*
Y00297034D01*
X00269322Y00296278D01*
X00268667Y00294697D01*
X00268444Y00293000D01*
X00268667Y00291303D01*
X00269322Y00289722D01*
X00269902Y00288966D01*
Y00285000D01*
X00269000D01*
Y00273000D01*
Y00263000D01*
X00281000D01*
Y00264412D01*
X00283409D01*
X00283445Y00264364D01*
X00284803Y00263322D01*
X00286384Y00262667D01*
X00288081Y00262444D01*
X00289778Y00262667D01*
X00291359Y00263322D01*
X00292717Y00264364D01*
X00293759Y00265722D01*
X00294414Y00267303D01*
X00294637Y00269000D01*
X00294414Y00270697D01*
X00293759Y00272278D01*
X00292717Y00273636D01*
X00291359Y00274678D01*
X00289778Y00275333D01*
X00288081Y00275556D01*
X00286384Y00275333D01*
X00284803Y00274678D01*
X00283445Y00273636D01*
X00283409Y00273588D01*
X00281000D01*
Y00285000D01*
X00280098D01*
Y00288967D01*
X00280678Y00289722D01*
X00281333Y00291303D01*
X00281556Y00293000D01*
X00281333Y00294697D01*
X00280678Y00296278D01*
X00280098Y00297034D01*
Y00299828D01*
X00280706Y00300294D01*
X00281988Y00301966D01*
X00282794Y00303912D01*
X00283069Y00306000D01*
X00282794Y00308088D01*
X00281988Y00310035D01*
X00280706Y00311706D01*
X00280098Y00312172D01*
Y00321902D01*
X00334000D01*
X00335951Y00322290D01*
X00337605Y00323395D01*
X00352605Y00338395D01*
X00353710Y00340049D01*
X00354098Y00342000D01*
Y00350000D01*
X00408488D01*
X00409902Y00348586D01*
Y00333000D01*
X00409000D01*
Y00332000D01*
X00406500D01*
Y00327000D01*
Y00322000D01*
X00409000D01*
Y00321000D01*
X00409902D01*
Y00312172D01*
X00409294Y00311706D01*
X00408012Y00310035D01*
X00407206Y00308088D01*
X00406931Y00306000D01*
X00407206Y00303912D01*
X00408012Y00301966D01*
X00409294Y00300294D01*
X00409902Y00299828D01*
Y00297034D01*
X00409322Y00296278D01*
X00408667Y00294697D01*
X00408444Y00293000D01*
X00408667Y00291303D01*
X00409322Y00289722D01*
X00409843Y00289043D01*
Y00285000D01*
X00408941D01*
Y00273000D01*
Y00263000D01*
X00420941D01*
Y00264412D01*
X00423350D01*
X00423386Y00264364D01*
X00424744Y00263322D01*
X00426325Y00262667D01*
X00428022Y00262444D01*
X00429719Y00262667D01*
X00431300Y00263322D01*
X00432658Y00264364D01*
X00433700Y00265722D01*
X00434355Y00267303D01*
X00434578Y00269000D01*
X00434355Y00270697D01*
X00433700Y00272278D01*
X00432658Y00273636D01*
X00431300Y00274678D01*
X00429719Y00275333D01*
X00428022Y00275556D01*
X00426325Y00275333D01*
X00424744Y00274678D01*
X00423386Y00273636D01*
X00423350Y00273588D01*
X00420941D01*
Y00285000D01*
X00420039D01*
Y00288889D01*
X00420678Y00289722D01*
X00421333Y00291303D01*
X00421556Y00293000D01*
X00421333Y00294697D01*
X00420678Y00296278D01*
X00420098Y00297034D01*
Y00299828D01*
X00420706Y00300294D01*
X00421988Y00301966D01*
X00422794Y00303912D01*
X00423069Y00306000D01*
X00422794Y00308088D01*
X00421988Y00310035D01*
X00420706Y00311706D01*
X00420098Y00312172D01*
Y00321000D01*
X00421000D01*
Y00333000D01*
X00420098D01*
Y00350000D01*
X00431790D01*
X00436809Y00344981D01*
X00438463Y00343876D01*
X00440414Y00343488D01*
X00549902D01*
Y00333000D01*
X00549000D01*
Y00332000D01*
X00546500D01*
Y00327000D01*
Y00322000D01*
X00549000D01*
Y00321000D01*
X00549902D01*
Y00312172D01*
X00549294Y00311706D01*
X00548012Y00310035D01*
X00547206Y00308088D01*
X00546931Y00306000D01*
X00547206Y00303912D01*
X00548012Y00301966D01*
X00549294Y00300294D01*
X00549902Y00299828D01*
Y00297034D01*
X00549322Y00296278D01*
X00548667Y00294697D01*
X00548444Y00293000D01*
X00548667Y00291303D01*
X00549322Y00289722D01*
X00549902Y00288967D01*
Y00285000D01*
X00549000D01*
Y00273000D01*
Y00263000D01*
X00561000D01*
Y00264412D01*
X00563409D01*
X00563445Y00264364D01*
X00564803Y00263322D01*
X00566384Y00262667D01*
X00568081Y00262444D01*
X00569778Y00262667D01*
X00571359Y00263322D01*
X00572717Y00264364D01*
X00573759Y00265722D01*
X00574414Y00267303D01*
X00574637Y00269000D01*
X00574414Y00270697D01*
X00573759Y00272278D01*
X00572717Y00273636D01*
X00571359Y00274678D01*
X00569778Y00275333D01*
X00568081Y00275556D01*
X00566384Y00275333D01*
X00564803Y00274678D01*
X00563445Y00273636D01*
X00563409Y00273588D01*
X00561000D01*
Y00285000D01*
X00560098D01*
Y00288966D01*
X00560678Y00289722D01*
X00561333Y00291303D01*
X00561556Y00293000D01*
X00561333Y00294697D01*
X00560678Y00296278D01*
X00560098Y00297034D01*
Y00299828D01*
X00560706Y00300294D01*
X00561988Y00301966D01*
X00562794Y00303912D01*
X00563069Y00306000D01*
X00562794Y00308088D01*
X00561988Y00310035D01*
X00560706Y00311706D01*
X00560098Y00312172D01*
Y00321000D01*
X00561000D01*
Y00333000D01*
X00560098D01*
Y00346000D01*
X00559710Y00347951D01*
X00559677Y00348000D01*
X00560746Y00350000D01*
X00679790D01*
X00689902Y00339888D01*
Y00333000D01*
X00689000D01*
Y00332000D01*
X00686500D01*
Y00327000D01*
Y00322000D01*
X00689000D01*
Y00321000D01*
X00689902D01*
Y00312172D01*
X00689295Y00311706D01*
X00688012Y00310035D01*
X00687206Y00308088D01*
X00686931Y00306000D01*
X00687206Y00303912D01*
X00688012Y00301966D01*
X00689295Y00300294D01*
X00689665Y00300010D01*
X00689827Y00297935D01*
X00689322Y00297278D01*
X00688667Y00295697D01*
X00688444Y00294000D01*
X00688667Y00292303D01*
X00689322Y00290722D01*
X00689902Y00289966D01*
Y00285000D01*
X00689000D01*
Y00273000D01*
Y00263000D01*
X00698586D01*
X00700000Y00261586D01*
Y00243000D01*
X00648000Y00191000D01*
X00450000Y00191000D01*
X00344000Y00085000D01*
X00318250D01*
Y00090452D01*
X00299750D01*
Y00086414D01*
X00298336Y00085000D01*
X00281000D01*
Y00090702D01*
X00263000D01*
Y00086414D01*
X00261586Y00085000D01*
X00255250D01*
Y00092202D01*
X00252000D01*
Y00086202D01*
X00249000D01*
Y00092202D01*
X00245750D01*
Y00086414D01*
X00244336Y00085000D01*
X00237250D01*
Y00093202D01*
X00225750D01*
X00225750Y00093202D01*
Y00093202D01*
X00223800Y00093409D01*
X00223098Y00094112D01*
Y00101495D01*
X00234000D01*
Y00101494D01*
X00234500D01*
Y00101495D01*
X00246500D01*
Y00102494D01*
X00249000D01*
Y00107494D01*
Y00112494D01*
X00246500D01*
Y00113495D01*
X00234500D01*
Y00113495D01*
X00234000D01*
Y00113495D01*
X00212000D01*
Y00112592D01*
X00209000D01*
Y00113495D01*
X00199000D01*
X00197000Y00113495D01*
Y00113495D01*
X00197000D01*
X00197000Y00113495D01*
X00185000D01*
Y00101495D01*
Y00091495D01*
X00197000D01*
X00197453Y00089682D01*
Y00085000D01*
X00147288D01*
X00146382Y00087000D01*
X00147827Y00088648D01*
X00150376Y00092463D01*
X00152405Y00096577D01*
X00153880Y00100922D01*
X00154775Y00105422D01*
X00155075Y00110000D01*
X00154775Y00114578D01*
X00153880Y00119078D01*
X00152405Y00123423D01*
X00150376Y00127537D01*
X00147827Y00131352D01*
X00144802Y00134802D01*
X00141352Y00137827D01*
X00137538Y00140376D01*
X00133423Y00142405D01*
X00129078Y00143880D01*
X00124578Y00144775D01*
X00120000Y00145075D01*
X00115422Y00144775D01*
X00110922Y00143880D01*
X00106577Y00142405D01*
X00102463Y00140376D01*
X00098648Y00137827D01*
X00095198Y00134802D01*
X00092173Y00131352D01*
X00091914Y00130964D01*
X00090000Y00131545D01*
X00090000Y00299000D01*
X00090000Y00327000D01*
X00113000Y00350000D01*
X00141000D01*
X00146000Y00355000D01*
X00146000Y00387000D01*
X00181666Y00422666D01*
X00181666Y00428226D01*
X00187439Y00434000D01*
X00205266Y00434000D01*
X00205676Y00433500D01*
D02*
G37*
G36*
X00550000Y00130000D02*
Y00114501D01*
X00548748Y00113665D01*
X00548000Y00113462D01*
X00545500Y00113791D01*
X00542759Y00113430D01*
X00540205Y00112372D01*
X00538011Y00110689D01*
X00536328Y00108495D01*
X00535841Y00107319D01*
X00533676D01*
X00533398Y00107991D01*
X00531875Y00109975D01*
X00529891Y00111498D01*
X00527580Y00112456D01*
X00526600Y00112584D01*
Y00103200D01*
X00523600D01*
Y00112584D01*
X00522620Y00112456D01*
X00520309Y00111498D01*
X00518325Y00109975D01*
X00516802Y00107991D01*
X00516524Y00107319D01*
X00514359D01*
X00513872Y00108495D01*
X00512189Y00110689D01*
X00509995Y00112372D01*
X00507441Y00113430D01*
X00504700Y00113791D01*
X00501959Y00113430D01*
X00499405Y00112372D01*
X00497211Y00110689D01*
X00495528Y00108495D01*
X00494470Y00105941D01*
X00494109Y00103200D01*
X00494470Y00100459D01*
X00495528Y00097905D01*
X00497211Y00095711D01*
X00499405Y00094028D01*
X00501959Y00092970D01*
X00504700Y00092609D01*
X00507441Y00092970D01*
X00508148Y00093263D01*
X00511534Y00089878D01*
X00511024Y00087559D01*
X00509605Y00086972D01*
X00507411Y00085289D01*
X00505799Y00083187D01*
X00504719Y00083027D01*
X00504681D01*
X00503601Y00083187D01*
X00501989Y00085289D01*
X00499795Y00086972D01*
X00497241Y00088030D01*
X00494500Y00088391D01*
X00491759Y00088030D01*
X00489205Y00086972D01*
X00487011Y00085289D01*
X00485328Y00083095D01*
X00484270Y00080541D01*
X00483909Y00077800D01*
X00484270Y00075059D01*
X00485328Y00072505D01*
X00487011Y00070311D01*
X00489205Y00068628D01*
X00491759Y00067570D01*
X00494500Y00067209D01*
X00497241Y00067570D01*
X00499795Y00068628D01*
X00501989Y00070311D01*
X00503601Y00072413D01*
X00504681Y00072573D01*
X00504719D01*
X00505799Y00072413D01*
X00507411Y00070311D01*
X00509605Y00068628D01*
X00510312Y00068335D01*
Y00064100D01*
X00510661Y00062344D01*
X00511656Y00060856D01*
X00515756Y00056756D01*
X00517244Y00055761D01*
X00519000Y00055412D01*
X00548500D01*
X00550000Y00054181D01*
Y00030000D01*
X00530000Y00010000D01*
X00190078D01*
X00180000Y00020078D01*
Y00061000D01*
X00186000Y00067000D01*
X00225336Y00067000D01*
X00226750Y00065586D01*
Y00063702D01*
X00231500D01*
Y00062202D01*
X00233000D01*
Y00056202D01*
X00235250D01*
Y00055202D01*
X00235452D01*
Y00049000D01*
X00232000D01*
Y00029000D01*
X00249414D01*
X00250000Y00029000D01*
X00251586Y00030000D01*
X00252000Y00030000D01*
X00257500D01*
Y00039000D01*
Y00048000D01*
X00251586Y00048000D01*
X00250000Y00049000D01*
X00249414Y00049000D01*
X00246547D01*
Y00055202D01*
X00246750D01*
Y00056202D01*
X00249000D01*
Y00062202D01*
X00250500D01*
Y00063702D01*
X00255250D01*
Y00067000D01*
X00260586Y00067000D01*
X00262000Y00065586D01*
Y00065202D01*
X00282000D01*
Y00067000D01*
X00282780D01*
X00282780Y00076219D01*
X00286561Y00080000D01*
X00293078Y00080000D01*
X00298336D01*
X00299750Y00078586D01*
Y00075952D01*
X00318250D01*
Y00080000D01*
X00390000D01*
X00420000Y00110000D01*
X00450000Y00140000D01*
X00540000D01*
X00550000Y00130000D01*
D02*
G37*
G36*
X00124178Y00141736D02*
X00128285Y00140919D01*
X00132250Y00139573D01*
X00136005Y00137721D01*
X00139486Y00135395D01*
X00142634Y00132634D01*
X00145395Y00129486D01*
X00147721Y00126005D01*
X00149573Y00122249D01*
X00150919Y00118285D01*
X00151736Y00114178D01*
X00152010Y00110000D01*
X00151736Y00105822D01*
X00150919Y00101715D01*
X00149573Y00097750D01*
X00147721Y00093995D01*
X00145395Y00090514D01*
X00144082Y00089017D01*
X00143808Y00088542D01*
X00143519Y00088077D01*
X00143511Y00088027D01*
X00143486Y00087983D01*
X00143414Y00087440D01*
X00143325Y00086900D01*
X00143336Y00086851D01*
X00143330Y00086800D01*
X00143472Y00086271D01*
X00143596Y00085738D01*
X00144502Y00083738D01*
X00144821Y00083293D01*
X00145125Y00082837D01*
X00145168Y00082809D01*
X00145197Y00082768D01*
X00145662Y00082478D01*
X00146118Y00082174D01*
X00146167Y00082164D01*
X00146211Y00082137D01*
X00146751Y00082048D01*
X00147288Y00081941D01*
X00197453D01*
X00198623Y00082174D01*
X00199615Y00082837D01*
X00200278Y00083829D01*
X00200511Y00085000D01*
Y00089682D01*
X00200438Y00090049D01*
X00200420Y00090423D01*
X00200402Y00090494D01*
X00201500Y00091900D01*
Y00097494D01*
X00203000D01*
Y00098995D01*
X00208000D01*
Y00101495D01*
X00209000D01*
Y00102396D01*
X00212000D01*
Y00101495D01*
X00212902D01*
Y00092000D01*
X00213290Y00090049D01*
X00214395Y00088395D01*
X00220193Y00082597D01*
X00221847Y00081492D01*
X00223798Y00081104D01*
X00225750D01*
Y00079202D01*
X00237250D01*
Y00081941D01*
X00244336D01*
X00244336Y00081941D01*
X00244750Y00081601D01*
Y00079202D01*
X00256250D01*
Y00080527D01*
X00257664Y00081941D01*
X00261108D01*
X00261586Y00081941D01*
X00261586Y00081941D01*
X00263000Y00080183D01*
Y00075702D01*
X00272000D01*
Y00072702D01*
X00263000D01*
Y00071400D01*
X00262582Y00070871D01*
X00262430Y00070745D01*
X00261000Y00069976D01*
X00260586Y00070059D01*
X00260586Y00070059D01*
X00255250Y00070059D01*
X00254079Y00069826D01*
X00253146Y00069202D01*
X00244750D01*
Y00068202D01*
X00242500D01*
Y00062202D01*
X00239500D01*
Y00068202D01*
X00237250D01*
Y00069202D01*
X00227440D01*
X00226506Y00069826D01*
X00225336Y00070059D01*
X00225336Y00070059D01*
X00186000Y00070059D01*
X00184829Y00069826D01*
X00183837Y00069163D01*
X00177837Y00063163D01*
X00177174Y00062171D01*
X00176941Y00061000D01*
X00176941Y00061000D01*
Y00035069D01*
X00103074D01*
X00087069Y00051074D01*
Y00127475D01*
X00087547Y00127990D01*
X00088354Y00128448D01*
X00089069Y00128641D01*
X00089112Y00128618D01*
X00091026Y00128037D01*
X00091177Y00128022D01*
X00091317Y00127964D01*
X00091766D01*
X00092214Y00127920D01*
X00092359Y00127964D01*
X00092511D01*
X00092926Y00128136D01*
X00093356Y00128267D01*
X00093473Y00128363D01*
X00093613Y00128421D01*
X00093931Y00128739D01*
X00094278Y00129024D01*
X00094350Y00129158D01*
X00094457Y00129265D01*
X00094605Y00129486D01*
X00097366Y00132634D01*
X00100514Y00135395D01*
X00103995Y00137721D01*
X00107750Y00139573D01*
X00111715Y00140919D01*
X00115822Y00141736D01*
X00120000Y00142010D01*
X00124178Y00141736D01*
D02*
G37*
G36*
X00550000Y00067989D02*
X00546600Y00064588D01*
X00520900D01*
X00519488Y00066000D01*
Y00068335D01*
X00520195Y00068628D01*
X00522389Y00070311D01*
X00524002Y00072413D01*
X00525081Y00072573D01*
X00525119D01*
X00526199Y00072413D01*
X00527811Y00070311D01*
X00530005Y00068628D01*
X00532559Y00067570D01*
X00535300Y00067209D01*
X00538041Y00067570D01*
X00540595Y00068628D01*
X00542789Y00070311D01*
X00544472Y00072505D01*
X00545530Y00075059D01*
X00545891Y00077800D01*
X00545530Y00080541D01*
X00544472Y00083095D01*
X00543845Y00083912D01*
X00544832Y00085912D01*
X00550000D01*
Y00067989D01*
D02*
G37*
G36*
X00184438Y00602192D02*
X00185049Y00600718D01*
X00186251Y00599151D01*
X00187818Y00597949D01*
X00189642Y00597193D01*
X00191002Y00597014D01*
Y00566650D01*
X00191390Y00564699D01*
X00192495Y00563045D01*
X00233902Y00521638D01*
Y00509921D01*
X00232054Y00509155D01*
X00175798Y00565412D01*
Y00597014D01*
X00177158Y00597193D01*
X00178982Y00597949D01*
X00180549Y00599151D01*
X00181751Y00600718D01*
X00182362Y00602192D01*
X00183400Y00602380D01*
X00184438Y00602192D01*
D02*
G37*
G36*
X00284443Y00467746D02*
X00285147Y00467276D01*
X00287000Y00466907D01*
X00288815Y00467268D01*
X00288965Y00467164D01*
X00290164Y00465965D01*
X00290268Y00465816D01*
X00289907Y00464000D01*
X00290276Y00462147D01*
X00290746Y00461443D01*
X00291160Y00460000D01*
X00290746Y00458557D01*
X00290276Y00457853D01*
X00289907Y00456000D01*
X00290276Y00454147D01*
X00290746Y00453443D01*
X00291160Y00452000D01*
X00290746Y00450557D01*
X00290276Y00449853D01*
X00289907Y00448000D01*
X00290276Y00446147D01*
X00290746Y00445443D01*
X00291160Y00444000D01*
X00290746Y00442557D01*
X00290276Y00441853D01*
X00289907Y00440000D01*
X00290276Y00438147D01*
X00290746Y00437443D01*
X00291160Y00436000D01*
X00290746Y00434557D01*
X00290276Y00433853D01*
X00289907Y00432000D01*
X00290276Y00430147D01*
X00290746Y00429443D01*
X00291160Y00428000D01*
X00290746Y00426557D01*
X00290276Y00425853D01*
X00289907Y00424000D01*
X00290276Y00422147D01*
X00291325Y00420575D01*
Y00419425D01*
X00290276Y00417853D01*
X00289907Y00416000D01*
X00290276Y00414147D01*
X00290746Y00413443D01*
X00291160Y00412000D01*
X00290746Y00410557D01*
X00290276Y00409853D01*
X00289907Y00408000D01*
X00290268Y00406185D01*
X00290164Y00406035D01*
X00288965Y00404836D01*
X00288815Y00404732D01*
X00287000Y00405093D01*
X00285147Y00404724D01*
X00284443Y00404254D01*
X00283000Y00403840D01*
X00281557Y00404254D01*
X00280853Y00404724D01*
X00279000Y00405093D01*
X00278098Y00404914D01*
X00277825Y00405047D01*
X00276930Y00406721D01*
X00279753Y00409543D01*
X00280697Y00409667D01*
X00282278Y00410322D01*
X00283636Y00411364D01*
X00284678Y00412722D01*
X00285333Y00414303D01*
X00285556Y00416000D01*
X00285333Y00417697D01*
X00284678Y00419278D01*
X00283636Y00420636D01*
X00282278Y00421678D01*
X00280697Y00422333D01*
X00279000Y00422556D01*
X00277303Y00422333D01*
X00275722Y00421678D01*
X00274364Y00420636D01*
X00273322Y00419278D01*
X00272667Y00417697D01*
X00272543Y00416753D01*
X00269946Y00414155D01*
X00268098Y00414921D01*
Y00420115D01*
X00281605Y00433622D01*
X00282710Y00435275D01*
X00283098Y00437226D01*
Y00452966D01*
X00283678Y00453722D01*
X00284333Y00455303D01*
X00284556Y00457000D01*
X00284333Y00458697D01*
X00283678Y00460278D01*
X00282636Y00461636D01*
X00281278Y00462678D01*
X00279697Y00463333D01*
X00278000Y00463556D01*
X00276303Y00463333D01*
X00274722Y00462678D01*
X00273364Y00461636D01*
X00271088Y00461886D01*
X00269730Y00462928D01*
X00268149Y00463583D01*
X00266452Y00463806D01*
X00264755Y00463583D01*
X00263174Y00462928D01*
X00261816Y00461886D01*
X00260774Y00460528D01*
X00260119Y00458947D01*
X00259896Y00457250D01*
X00260119Y00455553D01*
X00260774Y00453972D01*
X00261354Y00453216D01*
Y00439564D01*
X00243395Y00421605D01*
X00242290Y00419951D01*
X00241902Y00418000D01*
Y00406246D01*
X00239902Y00404914D01*
X00239000Y00405093D01*
X00238098Y00404914D01*
X00236098Y00406246D01*
Y00417888D01*
X00249849Y00431639D01*
X00250954Y00433293D01*
X00251342Y00435244D01*
Y00445567D01*
X00250954Y00447518D01*
X00249849Y00449172D01*
X00249296Y00449725D01*
Y00451966D01*
X00249875Y00452722D01*
X00250530Y00454303D01*
X00250754Y00456000D01*
X00250530Y00457697D01*
X00249875Y00459278D01*
X00248833Y00460636D01*
X00247476Y00461678D01*
X00245894Y00462333D01*
X00244198Y00462556D01*
X00242501Y00462333D01*
X00240919Y00461678D01*
X00239562Y00460636D01*
X00238520Y00459278D01*
X00237865Y00457697D01*
X00237642Y00456000D01*
X00237865Y00454303D01*
X00238520Y00452722D01*
X00239100Y00451966D01*
Y00447614D01*
X00239488Y00445663D01*
X00240593Y00444009D01*
X00241146Y00443456D01*
Y00437356D01*
X00229704Y00425914D01*
X00227816Y00426310D01*
X00226897Y00428198D01*
X00227254Y00429443D01*
X00227724Y00430147D01*
X00228093Y00432000D01*
X00227724Y00433853D01*
X00227254Y00434557D01*
X00226840Y00436000D01*
X00227254Y00437443D01*
X00227724Y00438147D01*
X00227795Y00438500D01*
X00206688D01*
X00205754Y00437098D01*
X00191250D01*
X00191053Y00437059D01*
X00187439D01*
X00187439Y00437059D01*
X00186269Y00436826D01*
X00185276Y00436163D01*
X00181000Y00431887D01*
X00179000Y00432715D01*
Y00445511D01*
X00183250Y00449761D01*
X00185250Y00449000D01*
Y00449000D01*
X00197250D01*
Y00451412D01*
X00206095D01*
X00207140Y00449500D01*
X00227795D01*
X00227724Y00449853D01*
X00227254Y00450557D01*
X00226840Y00452000D01*
X00227254Y00453443D01*
X00227724Y00454147D01*
X00228093Y00456000D01*
X00227724Y00457853D01*
X00227254Y00458557D01*
X00226840Y00460000D01*
X00227254Y00461443D01*
X00227724Y00462147D01*
X00228093Y00464000D01*
X00227732Y00465816D01*
X00227836Y00465965D01*
X00229035Y00467164D01*
X00229184Y00467268D01*
X00231000Y00466907D01*
X00232853Y00467276D01*
X00233557Y00467746D01*
X00235000Y00468160D01*
X00236443Y00467746D01*
X00237147Y00467276D01*
X00239000Y00466907D01*
X00240853Y00467276D01*
X00241557Y00467746D01*
X00243000Y00468160D01*
X00244443Y00467746D01*
X00245147Y00467276D01*
X00247000Y00466907D01*
X00248853Y00467276D01*
X00249557Y00467746D01*
X00251000Y00468160D01*
X00252443Y00467746D01*
X00253147Y00467276D01*
X00255000Y00466907D01*
X00256853Y00467276D01*
X00257557Y00467746D01*
X00259000Y00468160D01*
X00260443Y00467746D01*
X00261147Y00467276D01*
X00263000Y00466907D01*
X00264853Y00467276D01*
X00265557Y00467746D01*
X00267000Y00468160D01*
X00268443Y00467746D01*
X00269147Y00467276D01*
X00271000Y00466907D01*
X00272853Y00467276D01*
X00273557Y00467746D01*
X00275000Y00468160D01*
X00276443Y00467746D01*
X00277147Y00467276D01*
X00279000Y00466907D01*
X00280853Y00467276D01*
X00281557Y00467746D01*
X00283000Y00468160D01*
X00284443Y00467746D01*
D02*
G37*
G36*
X00362238Y00602192D02*
X00362849Y00600718D01*
X00364051Y00599151D01*
X00365618Y00597949D01*
X00367442Y00597193D01*
X00368802Y00597014D01*
Y00522890D01*
X00315010Y00469098D01*
X00300500D01*
X00299219Y00468843D01*
X00294750D01*
X00292934Y00468482D01*
X00292785Y00468586D01*
X00291586Y00469785D01*
X00291482Y00469935D01*
X00291843Y00471750D01*
Y00476218D01*
X00292098Y00477500D01*
Y00519888D01*
X00352105Y00579895D01*
X00353210Y00581549D01*
X00353598Y00583500D01*
Y00597014D01*
X00354958Y00597193D01*
X00356782Y00597949D01*
X00358349Y00599151D01*
X00359551Y00600718D01*
X00360162Y00602192D01*
X00361200Y00602380D01*
X00362238Y00602192D01*
D02*
G37*
G36*
X00260638D02*
X00261249Y00600718D01*
X00262451Y00599151D01*
X00264018Y00597949D01*
X00265842Y00597193D01*
X00267202Y00597014D01*
Y00582412D01*
X00259395Y00574605D01*
X00258290Y00572951D01*
X00257902Y00571000D01*
Y00561921D01*
X00256054Y00561155D01*
X00251998Y00565212D01*
Y00597014D01*
X00253358Y00597193D01*
X00255182Y00597949D01*
X00256749Y00599151D01*
X00257951Y00600718D01*
X00258562Y00602192D01*
X00259600Y00602380D01*
X00260638Y00602192D01*
D02*
G37*
G36*
X00159038D02*
X00159649Y00600718D01*
X00160851Y00599151D01*
X00162418Y00597949D01*
X00164242Y00597193D01*
X00165602Y00597014D01*
Y00563300D01*
X00165990Y00561349D01*
X00167095Y00559695D01*
X00225902Y00500888D01*
Y00477500D01*
X00226157Y00476218D01*
Y00471750D01*
X00226518Y00469935D01*
X00226414Y00469785D01*
X00225215Y00468586D01*
X00225065Y00468482D01*
X00223250Y00468843D01*
X00211750D01*
X00210469Y00468588D01*
X00197250D01*
Y00471000D01*
X00185250D01*
Y00471000D01*
X00183250Y00470239D01*
X00179000Y00474489D01*
Y00493000D01*
X00149000D01*
Y00485088D01*
X00142750D01*
Y00486500D01*
X00130750D01*
Y00485500D01*
X00128250D01*
Y00480500D01*
Y00475500D01*
X00130750D01*
Y00474500D01*
X00142750D01*
Y00475912D01*
X00149000D01*
Y00468000D01*
X00172511D01*
X00178756Y00461756D01*
X00179720Y00461111D01*
X00179827Y00460730D01*
Y00459270D01*
X00179720Y00458889D01*
X00178756Y00458244D01*
X00172511Y00452000D01*
X00149000D01*
Y00444088D01*
X00142750D01*
Y00445500D01*
X00130750D01*
Y00444500D01*
X00128250D01*
Y00439500D01*
Y00434500D01*
X00130750D01*
Y00433500D01*
X00142750D01*
Y00434912D01*
X00149000D01*
Y00427000D01*
X00177193D01*
X00178607Y00425586D01*
X00178607Y00423933D01*
X00152406Y00397732D01*
X00150512Y00398666D01*
X00150556Y00399000D01*
X00150333Y00400697D01*
X00149678Y00402278D01*
X00148636Y00403636D01*
X00147278Y00404678D01*
X00145697Y00405333D01*
X00144000Y00405556D01*
X00142303Y00405333D01*
X00140722Y00404678D01*
X00140552Y00404547D01*
X00137327D01*
X00137206Y00404706D01*
X00137048Y00404827D01*
Y00410000D01*
X00138500D01*
Y00424000D01*
X00124500D01*
Y00422547D01*
X00110297D01*
Y00430250D01*
X00114750D01*
Y00472250D01*
X00110297D01*
Y00476250D01*
X00110750D01*
Y00488250D01*
X00098750D01*
Y00487250D01*
X00096250D01*
Y00482250D01*
Y00477250D01*
X00098750D01*
Y00476250D01*
X00099203D01*
Y00472250D01*
X00094750D01*
Y00430250D01*
X00099203D01*
Y00427000D01*
Y00404250D01*
X00094750D01*
Y00362250D01*
X00114750D01*
Y00404250D01*
X00110297D01*
Y00411452D01*
X00124500D01*
Y00410000D01*
X00125953D01*
Y00404827D01*
X00125794Y00404706D01*
X00124512Y00403035D01*
X00123706Y00401088D01*
X00123431Y00399000D01*
X00123706Y00396912D01*
X00124512Y00394966D01*
X00125794Y00393294D01*
X00125953Y00393173D01*
Y00388000D01*
X00125500D01*
Y00376000D01*
Y00366000D01*
X00137500D01*
Y00366902D01*
X00142941D01*
Y00356267D01*
X00139733Y00353059D01*
X00113000D01*
X00111829Y00352826D01*
X00110837Y00352163D01*
X00110837Y00352163D01*
X00087837Y00329163D01*
X00087338Y00328416D01*
X00086113Y00328101D01*
X00085108Y00328036D01*
X00084706Y00328560D01*
X00048069Y00365197D01*
Y00480658D01*
X00056342Y00488931D01*
X00080000D01*
X00082088Y00489206D01*
X00084035Y00490012D01*
X00085706Y00491294D01*
X00090706Y00496294D01*
X00091988Y00497966D01*
X00092794Y00499912D01*
X00093069Y00502000D01*
Y00508000D01*
X00095250D01*
Y00525500D01*
Y00544000D01*
X00090547D01*
Y00557000D01*
X00094000D01*
Y00561453D01*
X00107000D01*
X00108436Y00561642D01*
X00109774Y00562196D01*
X00110923Y00563077D01*
X00123923Y00576077D01*
X00124804Y00577226D01*
X00125358Y00578564D01*
X00125548Y00580000D01*
Y00582000D01*
X00126000D01*
Y00594000D01*
X00125448D01*
Y00597073D01*
X00126358Y00597193D01*
X00128182Y00597949D01*
X00129749Y00599151D01*
X00130951Y00600718D01*
X00131562Y00602192D01*
X00132600Y00602380D01*
X00133638Y00602192D01*
X00134249Y00600718D01*
X00135451Y00599151D01*
X00137018Y00597949D01*
X00138842Y00597193D01*
X00140800Y00596935D01*
X00149800D01*
X00151758Y00597193D01*
X00153582Y00597949D01*
X00155149Y00599151D01*
X00156351Y00600718D01*
X00156962Y00602192D01*
X00158000Y00602380D01*
X00159038Y00602192D01*
D02*
G37*
G36*
X00086171Y00638196D02*
X00086151Y00638000D01*
X00084651Y00636849D01*
X00083449Y00635282D01*
X00082693Y00633458D01*
X00082435Y00631500D01*
Y00623547D01*
X00080000D01*
X00078564Y00623358D01*
X00077226Y00622804D01*
X00076077Y00621923D01*
X00073077Y00618923D01*
X00072196Y00617774D01*
X00071642Y00616436D01*
X00071453Y00615000D01*
Y00598224D01*
X00063077Y00589849D01*
X00062196Y00588700D01*
X00061642Y00587363D01*
X00061453Y00585927D01*
Y00577000D01*
X00058000D01*
Y00557000D01*
X00061453D01*
Y00550048D01*
X00055405Y00544000D01*
X00043750D01*
Y00525500D01*
X00044750D01*
Y00518750D01*
X00063250D01*
Y00525500D01*
X00064250D01*
Y00537155D01*
X00070923Y00543827D01*
X00071804Y00544976D01*
X00072358Y00546314D01*
X00072547Y00547750D01*
Y00555586D01*
X00073962Y00557000D01*
X00076000Y00557000D01*
Y00557000D01*
X00076000D01*
X00076000Y00557000D01*
X00079453D01*
Y00544000D01*
X00074750D01*
Y00525500D01*
Y00508000D01*
X00076931D01*
Y00505342D01*
X00076658Y00505069D01*
X00053000D01*
X00050912Y00504794D01*
X00048966Y00503988D01*
X00047294Y00502706D01*
X00034294Y00489706D01*
X00033012Y00488035D01*
X00032206Y00486088D01*
X00031931Y00484000D01*
Y00361855D01*
X00032206Y00359766D01*
X00033012Y00357820D01*
X00034294Y00356149D01*
X00053681Y00336763D01*
X00052548Y00335067D01*
X00048799Y00336620D01*
X00044208Y00337722D01*
X00039500Y00338093D01*
X00034792Y00337722D01*
X00030201Y00336620D01*
X00025838Y00334813D01*
X00021812Y00332346D01*
X00018221Y00329279D01*
X00015155Y00325688D01*
X00012687Y00321662D01*
X00012000Y00320003D01*
X00010000Y00320401D01*
Y00600000D01*
X00012172Y00602172D01*
X00014159Y00601937D01*
X00015155Y00600312D01*
X00018221Y00596721D01*
X00021812Y00593655D01*
X00025838Y00591187D01*
X00030201Y00589380D01*
X00034792Y00588278D01*
X00039500Y00587907D01*
X00044208Y00588278D01*
X00048799Y00589380D01*
X00053162Y00591187D01*
X00057188Y00593655D01*
X00060779Y00596721D01*
X00063846Y00600312D01*
X00066313Y00604338D01*
X00068120Y00608701D01*
X00069222Y00613293D01*
X00069593Y00618000D01*
X00069222Y00622707D01*
X00068120Y00627299D01*
X00066313Y00631662D01*
X00063846Y00635688D01*
X00061871Y00638000D01*
X00062793Y00640000D01*
X00085680D01*
X00086171Y00638196D01*
D02*
G37*
G36*
X00767129Y00638000D02*
X00765154Y00635688D01*
X00762687Y00631662D01*
X00760880Y00627299D01*
X00759778Y00622707D01*
X00759407Y00618000D01*
X00759778Y00613293D01*
X00760880Y00608701D01*
X00762687Y00604338D01*
X00765154Y00600312D01*
X00768221Y00596721D01*
X00771812Y00593655D01*
X00775838Y00591187D01*
X00780201Y00589380D01*
X00784792Y00588278D01*
X00789500Y00587907D01*
X00794208Y00588278D01*
X00798799Y00589380D01*
X00803162Y00591187D01*
X00807188Y00593655D01*
X00810779Y00596721D01*
X00813846Y00600312D01*
X00816313Y00604338D01*
X00818120Y00608701D01*
X00819222Y00613293D01*
X00819593Y00618000D01*
X00819222Y00622707D01*
X00818120Y00627299D01*
X00816881Y00630291D01*
X00818576Y00631424D01*
X00830000Y00620000D01*
X00830000Y00030000D01*
X00810000Y00010000D01*
X00536939D01*
X00536174Y00011848D01*
X00552163Y00027837D01*
X00552826Y00028830D01*
X00553059Y00030000D01*
X00553059Y00030000D01*
Y00054181D01*
X00553029Y00054330D01*
X00553044Y00054481D01*
X00552914Y00054911D01*
X00552826Y00055351D01*
X00552742Y00055477D01*
X00552698Y00055623D01*
X00552413Y00055970D01*
X00552163Y00056344D01*
X00553062Y00058048D01*
X00553138Y00058150D01*
X00567901Y00072912D01*
X00605000D01*
Y00071500D01*
X00620000D01*
Y00072912D01*
X00628000D01*
Y00062000D01*
X00643000D01*
Y00074000D01*
X00639317D01*
X00638489Y00076000D01*
X00639940Y00077452D01*
X00640000Y00077444D01*
X00641697Y00077667D01*
X00643278Y00078322D01*
X00644636Y00079364D01*
X00645678Y00080722D01*
X00646333Y00082303D01*
X00646556Y00084000D01*
X00646333Y00085697D01*
X00645678Y00087278D01*
X00644636Y00088636D01*
X00643278Y00089678D01*
X00641697Y00090333D01*
X00640000Y00090556D01*
X00638303Y00090333D01*
X00636722Y00089678D01*
X00635364Y00088636D01*
X00634322Y00087278D01*
X00633667Y00085697D01*
X00633444Y00084000D01*
X00633452Y00083940D01*
X00631600Y00082088D01*
X00620000D01*
Y00083500D01*
X00605000D01*
Y00082088D01*
X00566000D01*
X00564244Y00081739D01*
X00562756Y00080744D01*
X00554907Y00072895D01*
X00553059Y00073660D01*
Y00085912D01*
X00571500D01*
X00573256Y00086261D01*
X00574744Y00087256D01*
X00600401Y00112912D01*
X00605000D01*
Y00111500D01*
X00620000D01*
Y00123500D01*
X00618994D01*
X00618007Y00125500D01*
X00618178Y00125722D01*
X00618833Y00127303D01*
X00619056Y00129000D01*
X00618833Y00130697D01*
X00618178Y00132278D01*
X00617136Y00133636D01*
X00615778Y00134678D01*
X00614197Y00135333D01*
X00612500Y00135556D01*
X00610803Y00135333D01*
X00609222Y00134678D01*
X00607864Y00133636D01*
X00606822Y00132278D01*
X00606167Y00130697D01*
X00605944Y00129000D01*
X00606167Y00127303D01*
X00606822Y00125722D01*
X00606993Y00125500D01*
X00606006Y00123500D01*
X00605000D01*
Y00122088D01*
X00598500D01*
X00596744Y00121739D01*
X00595256Y00120744D01*
X00569599Y00095088D01*
X00555032D01*
X00554045Y00097088D01*
X00554672Y00097905D01*
X00555730Y00100459D01*
X00556091Y00103200D01*
X00555730Y00105941D01*
X00554672Y00108495D01*
X00553092Y00110554D01*
X00552794Y00111127D01*
X00552543Y00112802D01*
X00552659Y00113080D01*
X00552826Y00113331D01*
X00552885Y00113626D01*
X00553000Y00113904D01*
Y00114206D01*
X00553059Y00114501D01*
Y00130000D01*
X00553059Y00130000D01*
X00552826Y00131171D01*
X00552163Y00132163D01*
X00542163Y00142163D01*
X00541171Y00142826D01*
X00540000Y00143059D01*
X00540000Y00143059D01*
X00450000D01*
X00448829Y00142826D01*
X00447837Y00142163D01*
X00447837Y00142163D01*
X00417837Y00112163D01*
X00388733Y00083059D01*
X00348998D01*
X00348232Y00084907D01*
X00451267Y00187941D01*
X00648000Y00187941D01*
X00648000Y00187941D01*
X00649171Y00188174D01*
X00650163Y00188837D01*
X00650163Y00188837D01*
X00702163Y00240837D01*
X00702826Y00241829D01*
X00703059Y00243000D01*
X00703059Y00243000D01*
Y00261586D01*
X00703059Y00261586D01*
X00702826Y00262756D01*
X00702163Y00263749D01*
X00702163Y00263749D01*
X00700749Y00265163D01*
X00700000Y00265663D01*
Y00267500D01*
X00695000D01*
Y00270500D01*
X00700000D01*
Y00273000D01*
X00701000D01*
Y00285000D01*
X00700098D01*
Y00289966D01*
X00700678Y00290722D01*
X00701333Y00292303D01*
X00701556Y00294000D01*
X00701333Y00295697D01*
X00700678Y00297278D01*
X00700173Y00297935D01*
X00700335Y00300010D01*
X00700706Y00300294D01*
X00701988Y00301966D01*
X00702794Y00303912D01*
X00703069Y00306000D01*
X00702794Y00308088D01*
X00701988Y00310035D01*
X00700706Y00311706D01*
X00700098Y00312172D01*
Y00321000D01*
X00701000D01*
Y00333000D01*
X00700098D01*
Y00342000D01*
X00699710Y00343951D01*
X00698605Y00345605D01*
X00681605Y00362605D01*
X00679951Y00363710D01*
X00678000Y00364098D01*
X00448112D01*
X00368605Y00443605D01*
X00366951Y00444710D01*
X00365000Y00445098D01*
X00338421D01*
X00337655Y00446946D01*
X00428305Y00537595D01*
X00429410Y00539249D01*
X00429798Y00541200D01*
Y00597014D01*
X00431158Y00597193D01*
X00432982Y00597949D01*
X00434549Y00599151D01*
X00435751Y00600718D01*
X00436362Y00602192D01*
X00437400Y00602380D01*
X00438438Y00602192D01*
X00439049Y00600718D01*
X00439283Y00600413D01*
X00438837Y00598316D01*
X00438679Y00598079D01*
X00438475Y00597880D01*
X00438350Y00597588D01*
X00438174Y00597324D01*
X00438119Y00597044D01*
X00438007Y00596782D01*
X00438003Y00596465D01*
X00437941Y00596153D01*
Y00528000D01*
X00438174Y00526829D01*
X00438837Y00525837D01*
X00467837Y00496837D01*
X00467837Y00496837D01*
X00471941Y00492733D01*
Y00488000D01*
X00441000D01*
Y00476000D01*
X00442412D01*
Y00461000D01*
X00441000D01*
Y00449000D01*
X00442000D01*
Y00446500D01*
X00452000D01*
Y00449000D01*
X00453000D01*
Y00450412D01*
X00468750D01*
Y00446500D01*
X00481250D01*
Y00463500D01*
X00468750D01*
Y00459588D01*
X00453000D01*
Y00461000D01*
X00451588D01*
Y00476000D01*
X00473560D01*
X00474017Y00475889D01*
X00475507Y00474640D01*
X00475565Y00474499D01*
X00475580Y00474348D01*
X00475792Y00473952D01*
X00475835Y00473846D01*
X00475839Y00473829D01*
X00475848Y00473815D01*
X00475964Y00473537D01*
X00476121Y00473301D01*
X00476334Y00473088D01*
X00476502Y00472837D01*
X00476752Y00472670D01*
X00476965Y00472457D01*
X00477244Y00472341D01*
X00477494Y00472174D01*
X00477790Y00472115D01*
X00478068Y00472000D01*
X00478369Y00472000D01*
X00478665Y00471941D01*
X00486000D01*
X00486296Y00472000D01*
X00489412D01*
Y00463500D01*
X00487750D01*
Y00447000D01*
Y00446500D01*
X00500250D01*
Y00463500D01*
X00498588D01*
Y00470586D01*
X00500002Y00472000D01*
X00503000Y00472000D01*
X00504586Y00473000D01*
X00505000Y00473000D01*
X00510500D01*
Y00482000D01*
Y00491000D01*
X00505059D01*
X00504000Y00491000D01*
X00503059Y00492610D01*
Y00497000D01*
X00502826Y00498171D01*
X00502163Y00499163D01*
X00502163Y00499163D01*
X00491163Y00510163D01*
X00491163Y00510163D01*
X00463059Y00538267D01*
Y00556000D01*
X00462826Y00557170D01*
X00462163Y00558163D01*
X00456059Y00564267D01*
Y00574000D01*
X00458500D01*
Y00579000D01*
X00460000D01*
Y00580500D01*
X00465000D01*
Y00583000D01*
Y00584000D01*
X00459939D01*
X00459174Y00585848D01*
X00461163Y00587837D01*
X00461826Y00588829D01*
X00462059Y00590000D01*
X00462059Y00590000D01*
Y00596040D01*
X00462000Y00596335D01*
Y00596637D01*
X00461885Y00596915D01*
X00461826Y00597210D01*
X00461659Y00597461D01*
X00461543Y00597739D01*
X00461330Y00597952D01*
X00461163Y00598203D01*
X00460918Y00599644D01*
X00461135Y00600697D01*
X00461151Y00600718D01*
X00461762Y00602192D01*
X00462800Y00602380D01*
X00463838Y00602192D01*
X00464449Y00600718D01*
X00465651Y00599151D01*
X00467218Y00597949D01*
X00469042Y00597193D01*
D01*
X00471000Y00596935D01*
X00473000D01*
Y00618000D01*
X00475500D01*
Y00620500D01*
X00487565D01*
Y00631500D01*
X00487307Y00633458D01*
X00486551Y00635282D01*
X00485349Y00636849D01*
X00483849Y00638000D01*
X00483829Y00638196D01*
X00484320Y00640000D01*
X00766207D01*
X00767129Y00638000D01*
D02*
G37*
G36*
X00452600Y00596935D02*
X00454600D01*
X00456558Y00597193D01*
X00457000Y00597376D01*
X00459000Y00596040D01*
Y00590000D01*
X00453000Y00584000D01*
X00451500D01*
Y00579000D01*
Y00574000D01*
X00453000D01*
Y00563000D01*
X00460000Y00556000D01*
Y00537000D01*
X00489000Y00508000D01*
X00500000Y00497000D01*
Y00491000D01*
X00495500D01*
Y00482000D01*
X00494000D01*
Y00480500D01*
X00486000D01*
Y00475000D01*
X00478665D01*
X00478507Y00475236D01*
X00479450Y00477000D01*
X00483000D01*
Y00480500D01*
X00478000D01*
Y00482000D01*
X00476500D01*
Y00487000D01*
X00475000D01*
Y00494000D01*
X00470000Y00499000D01*
X00441000Y00528000D01*
Y00596153D01*
X00443000Y00597459D01*
X00443642Y00597193D01*
X00445600Y00596935D01*
X00447600D01*
Y00618000D01*
X00452600D01*
Y00596935D01*
D02*
G37*
G36*
X00343902Y00395888D02*
Y00354817D01*
X00342488Y00353059D01*
X00342488Y00353059D01*
X00328881D01*
X00328116Y00354907D01*
X00333605Y00360395D01*
X00334710Y00362049D01*
X00335098Y00364000D01*
Y00401000D01*
X00334883Y00402079D01*
X00336727Y00403064D01*
X00343902Y00395888D01*
D02*
G37*
G36*
X00084651Y00599151D02*
X00086218Y00597949D01*
X00088042Y00597193D01*
X00088953Y00597073D01*
Y00591500D01*
X00089142Y00590064D01*
X00089696Y00588726D01*
X00090577Y00587577D01*
X00094077Y00584077D01*
X00095226Y00583196D01*
X00096564Y00582642D01*
X00098000Y00582453D01*
X00104000D01*
Y00582000D01*
X00111542D01*
X00112307Y00580152D01*
X00104702Y00572547D01*
X00094000D01*
Y00577000D01*
X00078000D01*
X00076000Y00577000D01*
Y00577000D01*
X00076000D01*
X00076000Y00577000D01*
X00072547D01*
Y00583629D01*
X00080923Y00592004D01*
X00081804Y00593153D01*
X00082358Y00594491D01*
X00082548Y00595927D01*
Y00598607D01*
X00084548Y00599286D01*
X00084651Y00599151D01*
D02*
G37*
G36*
X00409902Y00356888D02*
Y00354817D01*
X00408488Y00353059D01*
X00408488Y00353059D01*
X00354098D01*
Y00398000D01*
X00353710Y00399951D01*
X00352605Y00401605D01*
X00337155Y00417054D01*
X00337921Y00418902D01*
X00347888D01*
X00409902Y00356888D01*
D02*
G37*
%LPC*%
G36*
X00789500Y00338093D02*
X00784792Y00337722D01*
X00780201Y00336620D01*
X00775838Y00334813D01*
X00771812Y00332346D01*
X00768221Y00329279D01*
X00765154Y00325688D01*
X00762687Y00321662D01*
X00760880Y00317299D01*
X00759778Y00312708D01*
X00759407Y00308000D01*
X00759778Y00303293D01*
X00760880Y00298701D01*
X00762687Y00294338D01*
X00765154Y00290312D01*
X00768221Y00286721D01*
X00771812Y00283654D01*
X00775838Y00281187D01*
X00780201Y00279380D01*
X00784792Y00278278D01*
X00789500Y00277907D01*
X00794208Y00278278D01*
X00798799Y00279380D01*
X00803162Y00281187D01*
X00807188Y00283654D01*
X00810779Y00286721D01*
X00813846Y00290312D01*
X00816313Y00294338D01*
X00818120Y00298701D01*
X00819222Y00303293D01*
X00819593Y00308000D01*
X00819222Y00312708D01*
X00818120Y00317299D01*
X00816313Y00321662D01*
X00813846Y00325688D01*
X00810779Y00329279D01*
X00807188Y00332346D01*
X00803162Y00334813D01*
X00798799Y00336620D01*
X00794208Y00337722D01*
X00789500Y00338093D01*
D02*
G37*
G36*
X00072750Y00380750D02*
X00067250D01*
Y00364250D01*
X00072750D01*
Y00380750D01*
D02*
G37*
G36*
X00262500Y00325500D02*
X00259000D01*
Y00322000D01*
X00262500D01*
Y00325500D01*
D02*
G37*
G36*
X00543500D02*
X00540000D01*
Y00322000D01*
X00543500D01*
Y00325500D01*
D02*
G37*
G36*
X00403500D02*
X00400000D01*
Y00322000D01*
X00403500D01*
Y00325500D01*
D02*
G37*
G36*
X00062250Y00402250D02*
X00056750D01*
Y00385750D01*
X00062250D01*
Y00402250D01*
D02*
G37*
G36*
X00072750D02*
X00067250D01*
Y00385750D01*
X00072750D01*
Y00402250D01*
D02*
G37*
G36*
X00203078Y00386497D02*
X00199578D01*
Y00382997D01*
X00203078D01*
Y00386497D01*
D02*
G37*
G36*
X00178578Y00379997D02*
X00172078D01*
Y00372497D01*
X00178578D01*
Y00379997D01*
D02*
G37*
G36*
X00199578D02*
Y00372497D01*
X00206078D01*
Y00379997D01*
X00199578D01*
D02*
G37*
G36*
X00683500Y00332000D02*
X00680000D01*
Y00328500D01*
X00683500D01*
Y00332000D01*
D02*
G37*
G36*
X00062250Y00380750D02*
X00056750D01*
Y00364250D01*
X00062250D01*
Y00380750D01*
D02*
G37*
G36*
X00178578Y00369497D02*
X00172078D01*
Y00361997D01*
X00178578D01*
Y00369497D01*
D02*
G37*
G36*
X00206078D02*
X00199578D01*
Y00361997D01*
X00206078D01*
Y00369497D01*
D02*
G37*
G36*
X00173503Y00332000D02*
X00170003D01*
Y00328500D01*
X00173503D01*
Y00332000D01*
D02*
G37*
G36*
Y00325500D02*
X00170003D01*
Y00322000D01*
X00173503D01*
Y00325500D01*
D02*
G37*
G36*
X00683500Y00325500D02*
X00680000D01*
Y00322000D01*
X00683500D01*
Y00325500D01*
D02*
G37*
G36*
X00262500Y00332000D02*
X00259000D01*
Y00328500D01*
X00262500D01*
Y00332000D01*
D02*
G37*
G36*
X00543500D02*
X00540000D01*
Y00328500D01*
X00543500D01*
Y00332000D01*
D02*
G37*
G36*
X00403500D02*
X00400000D01*
Y00328500D01*
X00403500D01*
Y00332000D01*
D02*
G37*
G36*
X00255250Y00060702D02*
X00252000D01*
Y00056202D01*
X00255250D01*
Y00060702D01*
D02*
G37*
G36*
X00230000D02*
X00226750D01*
Y00056202D01*
X00230000D01*
Y00060702D01*
D02*
G37*
G36*
X00619000Y00057000D02*
X00614000D01*
Y00053500D01*
X00619000D01*
Y00057000D01*
D02*
G37*
G36*
X00307500Y00072952D02*
X00299750D01*
Y00066202D01*
X00307500D01*
Y00072952D01*
D02*
G37*
G36*
X00619000Y00063500D02*
X00614000D01*
Y00060000D01*
X00619000D01*
Y00063500D01*
D02*
G37*
G36*
X00611000D02*
X00606000D01*
Y00060000D01*
X00611000D01*
Y00063500D01*
D02*
G37*
G36*
Y00057000D02*
X00606000D01*
Y00053500D01*
X00611000D01*
Y00057000D01*
D02*
G37*
G36*
X00041000Y00058063D02*
X00038452Y00057812D01*
X00036001Y00057069D01*
X00033743Y00055861D01*
X00031763Y00054237D01*
X00030139Y00052257D01*
X00028932Y00049999D01*
X00028188Y00047548D01*
X00027937Y00045000D01*
X00028188Y00042452D01*
X00028932Y00040001D01*
X00030139Y00037743D01*
X00031763Y00035763D01*
X00033743Y00034139D01*
X00036001Y00032931D01*
X00038452Y00032188D01*
X00041000Y00031937D01*
X00043548Y00032188D01*
X00045999Y00032931D01*
X00048257Y00034139D01*
X00050237Y00035763D01*
X00051861Y00037743D01*
X00053069Y00040001D01*
X00053812Y00042452D01*
X00054063Y00045000D01*
X00053812Y00047548D01*
X00053069Y00049999D01*
X00051861Y00052257D01*
X00050237Y00054237D01*
X00048257Y00055861D01*
X00045999Y00057069D01*
X00043548Y00057812D01*
X00041000Y00058063D01*
D02*
G37*
G36*
X00267000Y00037500D02*
X00260500D01*
Y00030000D01*
X00267000D01*
Y00037500D01*
D02*
G37*
G36*
X00804000Y00047063D02*
X00801452Y00046812D01*
X00799001Y00046069D01*
X00796743Y00044861D01*
X00794763Y00043237D01*
X00793139Y00041257D01*
X00791932Y00038999D01*
X00791188Y00036548D01*
X00790937Y00034000D01*
X00791188Y00031452D01*
X00791932Y00029001D01*
X00793139Y00026743D01*
X00794763Y00024763D01*
X00796743Y00023139D01*
X00799001Y00021932D01*
X00801452Y00021188D01*
X00804000Y00020937D01*
X00806548Y00021188D01*
X00808999Y00021932D01*
X00811257Y00023139D01*
X00813237Y00024763D01*
X00814861Y00026743D01*
X00816069Y00029001D01*
X00816812Y00031452D01*
X00817063Y00034000D01*
X00816812Y00036548D01*
X00816069Y00038999D01*
X00814861Y00041257D01*
X00813237Y00043237D01*
X00811257Y00044861D01*
X00808999Y00046069D01*
X00806548Y00046812D01*
X00804000Y00047063D01*
D02*
G37*
G36*
X00260500Y00048000D02*
Y00040500D01*
X00267000D01*
Y00048000D01*
X00260500D01*
D02*
G37*
G36*
X00580000Y00069873D02*
X00577060Y00069583D01*
X00574232Y00068725D01*
X00571626Y00067332D01*
X00569342Y00065458D01*
X00567468Y00063174D01*
X00566075Y00060568D01*
X00565217Y00057741D01*
X00564927Y00054800D01*
X00565217Y00051859D01*
X00566075Y00049032D01*
X00567468Y00046426D01*
X00569342Y00044142D01*
X00571626Y00042268D01*
X00574232Y00040875D01*
X00577060Y00040017D01*
X00580000Y00039727D01*
X00582940Y00040017D01*
X00585768Y00040875D01*
X00588374Y00042268D01*
X00590658Y00044142D01*
X00592532Y00046426D01*
X00593925Y00049032D01*
X00594783Y00051859D01*
X00595073Y00054800D01*
X00594783Y00057741D01*
X00593925Y00060568D01*
X00592532Y00063174D01*
X00590658Y00065458D01*
X00588374Y00067332D01*
X00585768Y00068725D01*
X00582940Y00069583D01*
X00580000Y00069873D01*
D02*
G37*
G36*
X00460000D02*
X00457060Y00069583D01*
X00454232Y00068725D01*
X00451626Y00067332D01*
X00449342Y00065458D01*
X00447468Y00063174D01*
X00446075Y00060568D01*
X00445217Y00057741D01*
X00444927Y00054800D01*
X00445217Y00051859D01*
X00446075Y00049032D01*
X00447468Y00046426D01*
X00449342Y00044142D01*
X00451626Y00042268D01*
X00454232Y00040875D01*
X00457060Y00040017D01*
X00460000Y00039727D01*
X00462941Y00040017D01*
X00465768Y00040875D01*
X00468374Y00042268D01*
X00470658Y00044142D01*
X00472532Y00046426D01*
X00473925Y00049032D01*
X00474783Y00051859D01*
X00475073Y00054800D01*
X00474783Y00057741D01*
X00473925Y00060568D01*
X00472532Y00063174D01*
X00470658Y00065458D01*
X00468374Y00067332D01*
X00465768Y00068725D01*
X00462941Y00069583D01*
X00460000Y00069873D01*
D02*
G37*
G36*
X00619000Y00103500D02*
X00614000D01*
Y00100000D01*
X00619000D01*
Y00103500D01*
D02*
G37*
G36*
X00611000D02*
X00606000D01*
Y00100000D01*
X00611000D01*
Y00103500D01*
D02*
G37*
G36*
X00281000Y00100202D02*
X00273500D01*
Y00093702D01*
X00281000D01*
Y00100202D01*
D02*
G37*
G36*
X00255500Y00112494D02*
X00252000D01*
Y00108995D01*
X00255500D01*
Y00112494D01*
D02*
G37*
G36*
Y00105995D02*
X00252000D01*
Y00102494D01*
X00255500D01*
Y00105995D01*
D02*
G37*
G36*
X00643000Y00114000D02*
X00628000D01*
Y00102000D01*
X00643000D01*
Y00114000D01*
D02*
G37*
G36*
X00270500Y00100202D02*
X00263000D01*
Y00093702D01*
X00270500D01*
Y00100202D01*
D02*
G37*
G36*
X00307500Y00100202D02*
X00299750D01*
Y00093452D01*
X00307500D01*
Y00100202D01*
D02*
G37*
G36*
X00208000Y00095995D02*
X00204500D01*
Y00092494D01*
X00208000D01*
Y00095995D01*
D02*
G37*
G36*
X00318250Y00072952D02*
X00310500D01*
Y00066202D01*
X00318250D01*
Y00072952D01*
D02*
G37*
G36*
X00619000Y00097000D02*
X00614000D01*
Y00093500D01*
X00619000D01*
Y00097000D01*
D02*
G37*
G36*
X00611000D02*
X00606000D01*
Y00093500D01*
X00611000D01*
Y00097000D01*
D02*
G37*
G36*
X00318250Y00100202D02*
X00310500D01*
Y00093452D01*
X00318250D01*
Y00100202D01*
D02*
G37*
G36*
X00186578Y00392997D02*
X00183078D01*
Y00389497D01*
X00186578D01*
Y00392997D01*
D02*
G37*
G36*
X00492500Y00491000D02*
X00486000D01*
Y00483500D01*
X00492500D01*
Y00491000D01*
D02*
G37*
G36*
X00483000Y00487000D02*
X00479500D01*
Y00483500D01*
X00483000D01*
Y00487000D01*
D02*
G37*
G36*
X00125250Y00485500D02*
X00121750D01*
Y00482000D01*
X00125250D01*
Y00485500D01*
D02*
G37*
G36*
X00052500Y00515750D02*
X00044750D01*
Y00509000D01*
X00052500D01*
Y00515750D01*
D02*
G37*
G36*
X00093250Y00487250D02*
X00089750D01*
Y00483750D01*
X00093250D01*
Y00487250D01*
D02*
G37*
G36*
X00520000Y00491000D02*
X00513500D01*
Y00483500D01*
X00520000D01*
Y00491000D01*
D02*
G37*
G36*
X00093250Y00480750D02*
X00089750D01*
Y00477250D01*
X00093250D01*
Y00480750D01*
D02*
G37*
G36*
X00683000Y00467000D02*
X00679500D01*
Y00463500D01*
X00683000D01*
Y00467000D01*
D02*
G37*
G36*
X00676500D02*
X00673000D01*
Y00463500D01*
X00676500D01*
Y00467000D01*
D02*
G37*
G36*
X00072750Y00470250D02*
X00067250D01*
Y00453750D01*
X00072750D01*
Y00470250D01*
D02*
G37*
G36*
X00125250Y00479000D02*
X00121750D01*
Y00475500D01*
X00125250D01*
Y00479000D01*
D02*
G37*
G36*
X00794000Y00522865D02*
X00785000D01*
X00783042Y00522607D01*
X00781218Y00521851D01*
X00779651Y00520649D01*
X00778449Y00519082D01*
X00777693Y00517258D01*
X00777435Y00515300D01*
Y00506300D01*
X00777693Y00504342D01*
X00778449Y00502518D01*
X00779651Y00500951D01*
X00781218Y00499749D01*
X00782692Y00499138D01*
X00782880Y00498100D01*
X00782692Y00497062D01*
X00781218Y00496451D01*
X00779651Y00495249D01*
X00778449Y00493682D01*
X00777693Y00491858D01*
X00777435Y00489900D01*
Y00480900D01*
X00777693Y00478942D01*
X00778449Y00477118D01*
X00779651Y00475551D01*
X00781218Y00474349D01*
X00783042Y00473593D01*
X00785000Y00473335D01*
X00794000D01*
X00795958Y00473593D01*
X00797782Y00474349D01*
X00799349Y00475551D01*
X00800551Y00477118D01*
X00801307Y00478942D01*
X00801565Y00480900D01*
Y00489900D01*
X00801307Y00491858D01*
X00800551Y00493682D01*
X00799349Y00495249D01*
X00797782Y00496451D01*
X00796308Y00497062D01*
X00796120Y00498100D01*
X00796308Y00499138D01*
X00797782Y00499749D01*
X00799349Y00500951D01*
X00800551Y00502518D01*
X00801307Y00504342D01*
X00801565Y00506300D01*
Y00515300D01*
X00801307Y00517258D01*
X00800551Y00519082D01*
X00799349Y00520649D01*
X00797782Y00521851D01*
X00795958Y00522607D01*
X00794000Y00522865D01*
D02*
G37*
G36*
X00520000Y00480500D02*
X00513500D01*
Y00473000D01*
X00520000D01*
Y00480500D01*
D02*
G37*
G36*
X00063250Y00515750D02*
X00055500D01*
Y00509000D01*
X00063250D01*
Y00515750D01*
D02*
G37*
G36*
X00582900Y00615500D02*
X00574525D01*
Y00607125D01*
X00582900D01*
Y00615500D01*
D02*
G37*
G36*
X00560000Y00628969D02*
X00557161Y00628595D01*
X00554516Y00627499D01*
X00552244Y00625756D01*
X00550501Y00623484D01*
X00549405Y00620839D01*
X00549031Y00618000D01*
X00549405Y00615161D01*
X00550501Y00612516D01*
X00552244Y00610244D01*
X00554516Y00608501D01*
X00557161Y00607405D01*
X00560000Y00607031D01*
X00562839Y00607405D01*
X00565484Y00608501D01*
X00567756Y00610244D01*
X00569499Y00612516D01*
X00570595Y00615161D01*
X00570969Y00618000D01*
X00570595Y00620839D01*
X00569499Y00623484D01*
X00567756Y00625756D01*
X00565484Y00627499D01*
X00562839Y00628595D01*
X00560000Y00628969D01*
D02*
G37*
G36*
X00534600D02*
X00531761Y00628595D01*
X00529116Y00627499D01*
X00526844Y00625756D01*
X00525101Y00623484D01*
X00524005Y00620839D01*
X00523631Y00618000D01*
X00524005Y00615161D01*
X00525101Y00612516D01*
X00526844Y00610244D01*
X00529116Y00608501D01*
X00531761Y00607405D01*
X00534600Y00607031D01*
X00537439Y00607405D01*
X00540084Y00608501D01*
X00542356Y00610244D01*
X00544099Y00612516D01*
X00545195Y00615161D01*
X00545569Y00618000D01*
X00545195Y00620839D01*
X00544099Y00623484D01*
X00542356Y00625756D01*
X00540084Y00627499D01*
X00537439Y00628595D01*
X00534600Y00628969D01*
D02*
G37*
G36*
X00596275Y00628875D02*
X00587900D01*
Y00620500D01*
X00596275D01*
Y00628875D01*
D02*
G37*
G36*
X00582900D02*
X00574525D01*
Y00620500D01*
X00582900D01*
Y00628875D01*
D02*
G37*
G36*
X00596275Y00615500D02*
X00587900D01*
Y00607125D01*
X00596275D01*
Y00615500D01*
D02*
G37*
G36*
X00733000Y00632063D02*
X00730452Y00631812D01*
X00728001Y00631068D01*
X00725743Y00629861D01*
X00723763Y00628237D01*
X00722139Y00626257D01*
X00720931Y00623999D01*
X00720188Y00621548D01*
X00719937Y00619000D01*
X00720188Y00616452D01*
X00720931Y00614001D01*
X00722139Y00611743D01*
X00723763Y00609763D01*
X00725743Y00608139D01*
X00728001Y00606931D01*
X00730452Y00606188D01*
X00733000Y00605937D01*
X00735548Y00606188D01*
X00737999Y00606931D01*
X00740257Y00608139D01*
X00742237Y00609763D01*
X00743861Y00611743D01*
X00745069Y00614001D01*
X00745812Y00616452D01*
X00746063Y00619000D01*
X00745812Y00621548D01*
X00745069Y00623999D01*
X00743861Y00626257D01*
X00742237Y00628237D01*
X00740257Y00629861D01*
X00737999Y00631068D01*
X00735548Y00631812D01*
X00733000Y00632063D01*
D02*
G37*
G36*
X00448500Y00577500D02*
X00445000D01*
Y00574000D01*
X00448500D01*
Y00577500D01*
D02*
G37*
G36*
X00031000Y00576063D02*
X00028452Y00575812D01*
X00026001Y00575069D01*
X00023743Y00573861D01*
X00021763Y00572237D01*
X00020139Y00570257D01*
X00018931Y00567999D01*
X00018188Y00565548D01*
X00017937Y00563000D01*
X00018188Y00560452D01*
X00018931Y00558001D01*
X00020139Y00555743D01*
X00021763Y00553763D01*
X00023743Y00552139D01*
X00026001Y00550932D01*
X00028452Y00550188D01*
X00031000Y00549937D01*
X00033549Y00550188D01*
X00035999Y00550932D01*
X00038257Y00552139D01*
X00040237Y00553763D01*
X00041861Y00555743D01*
X00043069Y00558001D01*
X00043812Y00560452D01*
X00044063Y00563000D01*
X00043812Y00565548D01*
X00043069Y00567999D01*
X00041861Y00570257D01*
X00040237Y00572237D01*
X00038257Y00573861D01*
X00035999Y00575069D01*
X00033549Y00575812D01*
X00031000Y00576063D01*
D02*
G37*
G36*
X00610000Y00546069D02*
X00607912Y00545794D01*
X00605965Y00544988D01*
X00604294Y00543706D01*
X00603437Y00542588D01*
X00536000D01*
X00534244Y00542239D01*
X00532756Y00541244D01*
X00513060Y00521548D01*
X00513000Y00521556D01*
X00511303Y00521333D01*
X00509722Y00520678D01*
X00508364Y00519636D01*
X00507322Y00518278D01*
X00506667Y00516697D01*
X00506444Y00515000D01*
X00506667Y00513303D01*
X00507322Y00511722D01*
X00508364Y00510364D01*
X00509722Y00509322D01*
X00511303Y00508667D01*
X00513000Y00508444D01*
X00514697Y00508667D01*
X00516278Y00509322D01*
X00517636Y00510364D01*
X00518678Y00511722D01*
X00519333Y00513303D01*
X00519556Y00515000D01*
X00519548Y00515060D01*
X00537901Y00533412D01*
X00603437D01*
X00604294Y00532294D01*
X00605965Y00531012D01*
X00607912Y00530206D01*
X00610000Y00529931D01*
X00612088Y00530206D01*
X00614035Y00531012D01*
X00615706Y00532294D01*
X00616563Y00533412D01*
X00620000D01*
Y00532000D01*
X00631412D01*
Y00529672D01*
X00631364Y00529636D01*
X00630322Y00528278D01*
X00629667Y00526697D01*
X00629444Y00525000D01*
X00629667Y00523303D01*
X00630322Y00521722D01*
X00631364Y00520364D01*
X00632722Y00519322D01*
X00633500Y00519000D01*
X00633102Y00517000D01*
X00629000D01*
Y00517000D01*
X00627671D01*
Y00517000D01*
X00605671D01*
Y00505000D01*
X00607083D01*
Y00496329D01*
X00607432Y00494573D01*
X00608427Y00493085D01*
X00612662Y00488849D01*
Y00486531D01*
X00612407Y00485250D01*
Y00471750D01*
X00612776Y00469897D01*
X00613825Y00468326D01*
X00615397Y00467276D01*
X00617250Y00466907D01*
X00618068Y00466197D01*
X00618149Y00463638D01*
X00614100Y00459588D01*
X00609000D01*
Y00461000D01*
X00597000D01*
Y00449000D01*
Y00439000D01*
X00598412D01*
Y00427250D01*
X00597000D01*
Y00425838D01*
X00579650D01*
X00571244Y00434244D01*
X00569756Y00435239D01*
X00568000Y00435588D01*
X00546414D01*
X00545000Y00437002D01*
X00545000Y00440000D01*
X00544369Y00441000D01*
X00544000Y00441000D01*
X00544000Y00441659D01*
Y00442000D01*
Y00443000D01*
Y00447500D01*
X00526000D01*
Y00443000D01*
D01*
Y00442059D01*
X00526000Y00441000D01*
X00524390Y00440059D01*
X00499250D01*
X00498079Y00439826D01*
X00497592Y00439500D01*
X00487750D01*
Y00438500D01*
X00486000D01*
Y00431000D01*
X00483000D01*
Y00438500D01*
X00481250D01*
Y00439500D01*
X00468750D01*
Y00422500D01*
X00470412D01*
Y00421000D01*
X00470761Y00419244D01*
X00471756Y00417756D01*
X00474756Y00414756D01*
X00476244Y00413761D01*
X00478000Y00413412D01*
X00485527D01*
X00486941Y00411998D01*
X00486941Y00393417D01*
X00487035Y00392944D01*
X00487093Y00392466D01*
X00487151Y00392363D01*
X00487174Y00392246D01*
X00487441Y00391846D01*
X00487677Y00391426D01*
X00490606Y00388009D01*
X00490700Y00387936D01*
X00490765Y00387837D01*
X00491166Y00387570D01*
X00491544Y00387272D01*
X00491659Y00387240D01*
X00491758Y00387174D01*
X00492230Y00387080D01*
X00492694Y00386950D01*
X00492812Y00386964D01*
X00492928Y00386941D01*
X00534000Y00386941D01*
X00534000Y00386941D01*
X00535170Y00387174D01*
X00536163Y00387837D01*
X00536163Y00387837D01*
X00539163Y00390837D01*
X00539163Y00390837D01*
X00539826Y00391829D01*
X00540059Y00393000D01*
X00540059Y00393000D01*
Y00422000D01*
X00545000D01*
Y00426412D01*
X00566100D01*
X00574506Y00418006D01*
X00575994Y00417011D01*
X00577750Y00416662D01*
X00597000D01*
Y00415250D01*
X00598000D01*
Y00412750D01*
X00608000D01*
Y00415250D01*
X00609000D01*
Y00416912D01*
X00612407D01*
Y00414750D01*
X00612776Y00412897D01*
X00613825Y00411325D01*
X00615397Y00410276D01*
X00617250Y00409907D01*
X00619103Y00410276D01*
X00620675Y00411325D01*
X00621793Y00411548D01*
X00622287Y00411218D01*
X00623750Y00410927D01*
X00625662Y00409295D01*
Y00381151D01*
X00624060Y00379548D01*
X00624000Y00379556D01*
X00622303Y00379333D01*
X00620722Y00378678D01*
X00619364Y00377636D01*
X00618322Y00376278D01*
X00617667Y00374697D01*
X00617444Y00373000D01*
X00617667Y00371303D01*
X00618322Y00369722D01*
X00619364Y00368364D01*
X00620722Y00367322D01*
X00622303Y00366667D01*
X00624000Y00366444D01*
X00625697Y00366667D01*
X00627278Y00367322D01*
X00628636Y00368364D01*
X00629678Y00369722D01*
X00630333Y00371303D01*
X00630556Y00373000D01*
X00630548Y00373060D01*
X00633494Y00376006D01*
X00635325Y00376186D01*
X00638452Y00373060D01*
X00638444Y00373000D01*
X00638667Y00371303D01*
X00639322Y00369722D01*
X00640364Y00368364D01*
X00641722Y00367322D01*
X00643303Y00366667D01*
X00645000Y00366444D01*
X00646697Y00366667D01*
X00648278Y00367322D01*
X00649636Y00368364D01*
X00650678Y00369722D01*
X00651333Y00371303D01*
X00651556Y00373000D01*
X00651333Y00374697D01*
X00650773Y00376048D01*
X00650920Y00376719D01*
X00651730Y00378192D01*
X00651838Y00378206D01*
X00653784Y00379012D01*
X00655456Y00380294D01*
X00656738Y00381965D01*
X00657544Y00383912D01*
X00657819Y00386000D01*
X00657544Y00388088D01*
X00656738Y00390035D01*
X00655456Y00391706D01*
X00654338Y00392563D01*
Y00400328D01*
X00654386Y00400364D01*
X00655400Y00401686D01*
X00655434Y00401725D01*
X00655831Y00401963D01*
X00657834Y00402305D01*
X00658648Y00401761D01*
X00660404Y00401412D01*
X00673000D01*
X00674756Y00401761D01*
X00676244Y00402756D01*
X00681244Y00407756D01*
X00682239Y00409244D01*
X00682588Y00411000D01*
Y00415500D01*
X00684000D01*
Y00427500D01*
X00683000D01*
Y00430000D01*
X00673000D01*
Y00427500D01*
X00672000D01*
Y00415500D01*
X00673412D01*
Y00412901D01*
X00671099Y00410588D01*
X00668087D01*
X00667018Y00412588D01*
X00667224Y00412897D01*
X00667593Y00414750D01*
Y00428250D01*
X00667224Y00430103D01*
X00666175Y00431675D01*
X00664603Y00432724D01*
X00662750Y00433093D01*
X00660897Y00432724D01*
X00659500Y00431791D01*
X00658103Y00432724D01*
X00656250Y00433093D01*
X00654397Y00432724D01*
X00653000Y00431791D01*
X00651603Y00432724D01*
X00649750Y00433093D01*
X00649362Y00433344D01*
X00648812Y00435571D01*
X00648928Y00435722D01*
X00649583Y00437303D01*
X00649806Y00439000D01*
X00649583Y00440697D01*
X00648928Y00442278D01*
X00647886Y00443636D01*
X00646528Y00444678D01*
X00644947Y00445333D01*
X00643250Y00445556D01*
X00641553Y00445333D01*
X00639972Y00444678D01*
X00638614Y00443636D01*
X00637572Y00442278D01*
X00636917Y00440697D01*
X00636694Y00439000D01*
X00636917Y00437303D01*
X00637572Y00435722D01*
X00637688Y00435571D01*
X00637138Y00433344D01*
X00636750Y00433093D01*
X00634897Y00432724D01*
X00633500Y00431791D01*
X00632103Y00432724D01*
X00630250Y00433093D01*
X00628397Y00432724D01*
X00626825Y00431675D01*
X00625707Y00431452D01*
X00625250Y00431758D01*
Y00421500D01*
X00622250D01*
Y00431758D01*
X00621793Y00431452D01*
X00620675Y00431675D01*
X00619103Y00432724D01*
X00617250Y00433093D01*
X00615397Y00432724D01*
X00613825Y00431675D01*
X00612776Y00430103D01*
X00612407Y00428250D01*
Y00426088D01*
X00609000D01*
Y00427250D01*
X00607588D01*
Y00439000D01*
X00609000D01*
Y00450412D01*
X00616000D01*
X00617756Y00450761D01*
X00619244Y00451756D01*
X00626994Y00459506D01*
X00627989Y00460994D01*
X00628338Y00462750D01*
Y00465248D01*
X00630250Y00466907D01*
X00632103Y00467276D01*
X00633500Y00468209D01*
X00634897Y00467276D01*
X00636750Y00466907D01*
X00638603Y00467276D01*
X00640000Y00468209D01*
X00641397Y00467276D01*
X00643250Y00466907D01*
X00645162Y00465248D01*
Y00461250D01*
X00645511Y00459494D01*
X00646506Y00458006D01*
X00652756Y00451756D01*
X00654244Y00450761D01*
X00656000Y00450412D01*
X00672000D01*
Y00449000D01*
X00673000D01*
Y00446500D01*
X00683000D01*
Y00449000D01*
X00684000D01*
Y00461000D01*
X00672000D01*
Y00459588D01*
X00657900D01*
X00654338Y00463150D01*
Y00465248D01*
X00656250Y00466907D01*
X00658103Y00467276D01*
X00659500Y00468209D01*
X00660897Y00467276D01*
X00662750Y00466907D01*
X00664603Y00467276D01*
X00666175Y00468326D01*
X00667224Y00469897D01*
X00667593Y00471750D01*
Y00473912D01*
X00672000D01*
Y00472500D01*
X00673000D01*
Y00470000D01*
X00683000D01*
Y00472500D01*
X00684000D01*
Y00484500D01*
X00672000D01*
Y00483088D01*
X00667593D01*
Y00485250D01*
X00667224Y00487103D01*
X00666175Y00488675D01*
X00664603Y00489724D01*
X00662750Y00490093D01*
X00660897Y00489724D01*
X00659500Y00488791D01*
X00658103Y00489724D01*
X00656250Y00490093D01*
X00654397Y00489724D01*
X00653000Y00488791D01*
X00651603Y00489724D01*
X00649750Y00490093D01*
X00648152Y00491480D01*
X00648101Y00493612D01*
X00648244Y00493756D01*
X00649239Y00495244D01*
X00649588Y00497000D01*
Y00505000D01*
X00651000D01*
Y00517000D01*
X00638898D01*
X00638500Y00519000D01*
X00639278Y00519322D01*
X00640636Y00520364D01*
X00641678Y00521722D01*
X00642333Y00523303D01*
X00642556Y00525000D01*
X00642333Y00526697D01*
X00641678Y00528278D01*
X00640636Y00529636D01*
X00640588Y00529672D01*
Y00532000D01*
X00642000D01*
Y00544000D01*
X00620000D01*
Y00542588D01*
X00616563D01*
X00615706Y00543706D01*
X00614035Y00544988D01*
X00612088Y00545794D01*
X00610000Y00546069D01*
D02*
G37*
G36*
X00487565Y00615500D02*
X00478000D01*
Y00596935D01*
X00480000D01*
X00481958Y00597193D01*
X00483782Y00597949D01*
X00485349Y00599151D01*
X00486551Y00600718D01*
X00487307Y00602542D01*
X00487565Y00604500D01*
Y00615500D01*
D02*
G37*
G36*
X00448500Y00584000D02*
X00445000D01*
Y00580500D01*
X00448500D01*
Y00584000D01*
D02*
G37*
G36*
X00465000Y00577500D02*
X00461500D01*
Y00574000D01*
X00465000D01*
Y00577500D01*
D02*
G37*
G36*
X00145000Y00423000D02*
X00140500D01*
Y00418500D01*
X00145000D01*
Y00423000D01*
D02*
G37*
G36*
X00152500Y00415500D02*
X00148000D01*
Y00411000D01*
X00152500D01*
Y00415500D01*
D02*
G37*
G36*
X00145000D02*
X00140500D01*
Y00411000D01*
X00145000D01*
Y00415500D01*
D02*
G37*
G36*
X00072750Y00448750D02*
X00067250D01*
Y00432250D01*
X00072750D01*
Y00448750D01*
D02*
G37*
G36*
X00062250D02*
X00056750D01*
Y00432250D01*
X00062250D01*
Y00448750D01*
D02*
G37*
G36*
X00152500Y00423000D02*
X00148000D01*
Y00418500D01*
X00152500D01*
Y00423000D01*
D02*
G37*
G36*
X00186578Y00404997D02*
X00183078D01*
Y00401497D01*
X00186578D01*
Y00404997D01*
D02*
G37*
G36*
X00794000Y00446665D02*
X00785000D01*
X00783042Y00446407D01*
X00781218Y00445651D01*
X00779651Y00444449D01*
X00778449Y00442882D01*
X00777693Y00441058D01*
X00777435Y00439100D01*
Y00430100D01*
X00777693Y00428142D01*
X00778449Y00426318D01*
X00779651Y00424751D01*
X00781218Y00423549D01*
X00782692Y00422938D01*
X00782880Y00421900D01*
X00782692Y00420862D01*
X00781218Y00420251D01*
X00779651Y00419049D01*
X00778449Y00417482D01*
X00777693Y00415658D01*
X00777435Y00413700D01*
Y00404700D01*
X00777693Y00402742D01*
X00778449Y00400918D01*
X00779651Y00399351D01*
X00781218Y00398149D01*
X00783042Y00397393D01*
X00785000Y00397135D01*
X00794000D01*
X00795958Y00397393D01*
X00797782Y00398149D01*
X00799349Y00399351D01*
X00800551Y00400918D01*
X00801307Y00402742D01*
X00801565Y00404700D01*
Y00413700D01*
X00801307Y00415658D01*
X00800551Y00417482D01*
X00799349Y00419049D01*
X00797782Y00420251D01*
X00796308Y00420862D01*
X00796120Y00421900D01*
X00796308Y00422938D01*
X00797782Y00423549D01*
X00799349Y00424751D01*
X00800551Y00426318D01*
X00801307Y00428142D01*
X00801565Y00430100D01*
Y00439100D01*
X00801307Y00441058D01*
X00800551Y00442882D01*
X00799349Y00444449D01*
X00797782Y00445651D01*
X00795958Y00446407D01*
X00794000Y00446665D01*
D02*
G37*
G36*
X00186578Y00398497D02*
X00183078D01*
Y00394997D01*
X00186578D01*
Y00398497D01*
D02*
G37*
G36*
X00608000Y00409750D02*
X00604500D01*
Y00406250D01*
X00608000D01*
Y00409750D01*
D02*
G37*
G36*
X00601500D02*
X00598000D01*
Y00406250D01*
X00601500D01*
Y00409750D01*
D02*
G37*
G36*
X00203078Y00404997D02*
X00199578D01*
Y00401497D01*
X00203078D01*
Y00404997D01*
D02*
G37*
G36*
X00125250Y00444500D02*
X00121750D01*
Y00441000D01*
X00125250D01*
Y00444500D01*
D02*
G37*
G36*
X00683000Y00443500D02*
X00679500D01*
Y00440000D01*
X00683000D01*
Y00443500D01*
D02*
G37*
G36*
X00676500D02*
X00673000D01*
Y00440000D01*
X00676500D01*
Y00443500D01*
D02*
G37*
G36*
X00227795Y00446500D02*
X00207205D01*
X00207276Y00446147D01*
X00207746Y00445443D01*
X00208160Y00444000D01*
X00207746Y00442557D01*
X00207276Y00441853D01*
X00207205Y00441500D01*
X00227795D01*
X00227724Y00441853D01*
X00227254Y00442557D01*
X00226840Y00444000D01*
X00227254Y00445443D01*
X00227724Y00446147D01*
X00227795Y00446500D01*
D02*
G37*
G36*
X00062250Y00470250D02*
X00056750D01*
Y00453750D01*
X00062250D01*
Y00470250D01*
D02*
G37*
G36*
X00544000Y00457000D02*
X00536500D01*
Y00450500D01*
X00544000D01*
Y00457000D01*
D02*
G37*
G36*
X00533500D02*
X00526000D01*
Y00450500D01*
X00533500D01*
Y00457000D01*
D02*
G37*
G36*
X00676500Y00436500D02*
X00673000D01*
Y00433000D01*
X00676500D01*
Y00436500D01*
D02*
G37*
G36*
X00683000D02*
X00679500D01*
Y00433000D01*
X00683000D01*
Y00436500D01*
D02*
G37*
G36*
X00125250Y00438000D02*
X00121750D01*
Y00434500D01*
X00125250D01*
Y00438000D01*
D02*
G37*
G36*
X00452000Y00443500D02*
X00448500D01*
Y00440000D01*
X00452000D01*
Y00443500D01*
D02*
G37*
G36*
X00445500D02*
X00442000D01*
Y00440000D01*
X00445500D01*
Y00443500D01*
D02*
G37*
%LPD*%
G36*
X00526000Y00432500D02*
X00535000D01*
Y00431000D01*
X00536500D01*
Y00423000D01*
X00537000D01*
Y00393000D01*
X00534000Y00390000D01*
X00492928Y00390000D01*
X00490000Y00393417D01*
X00490000Y00422500D01*
X00490750D01*
Y00423500D01*
X00492500D01*
Y00431000D01*
X00494000D01*
Y00432500D01*
X00499250D01*
Y00437000D01*
X00526000D01*
Y00432500D01*
D02*
G37*
%LPC*%
G36*
X00533500Y00429500D02*
X00526000D01*
Y00423000D01*
X00533500D01*
Y00429500D01*
D02*
G37*
G36*
X00499250D02*
X00495500D01*
Y00423500D01*
X00499250D01*
Y00429500D01*
D02*
G37*
%LPD*%
D10*
X00104750Y00383250D02*
D03*
X00064750D02*
D03*
X00104750Y00451250D02*
D03*
X00064750D02*
D03*
D11*
X00218000Y00092000D02*
Y00107494D01*
X00203000D01*
X00191000D01*
X00218000Y00092000D02*
X00223798Y00086202D01*
X00231500D01*
X00228000Y00107494D02*
X00240500D01*
X00275000Y00279000D02*
Y00293000D01*
X00275000Y00293000D01*
Y00306000D01*
Y00326000D01*
X00274000Y00327000D01*
X00334000D01*
X00349000Y00342000D01*
Y00398000D01*
X00331000Y00416000D01*
X00300500D01*
Y00424000D02*
X00350000D01*
X00415000Y00359000D01*
Y00306000D01*
Y00293000D01*
X00414941Y00292941D01*
Y00279000D01*
X00440414Y00348586D02*
X00552414D01*
X00555000Y00346000D01*
Y00306000D01*
Y00293000D01*
X00555000Y00293000D01*
Y00279000D01*
X00440414Y00348586D02*
X00357000Y00432000D01*
X00300500D01*
X00279000Y00416000D02*
X00271000Y00408000D01*
Y00394500D01*
X00263000D02*
Y00422226D01*
X00278000Y00437226D01*
Y00457000D01*
X00300500Y00456000D02*
X00324000D01*
X00399300Y00531300D01*
Y00618000D01*
X00424700D02*
Y00541200D01*
X00331500Y00448000D01*
X00300500D01*
Y00440000D02*
X00365000D01*
X00446000Y00359000D01*
X00678000D01*
X00695000Y00342000D01*
Y00294000D01*
Y00279000D01*
X00599500Y00098500D02*
X00612500D01*
Y00058500D02*
Y00040000D01*
X00315250Y00349250D02*
X00330000Y00364000D01*
Y00401000D01*
X00323000Y00408000D01*
X00300500D01*
X00315250Y00349250D02*
X00222410D01*
X00200160Y00327000D01*
X00185003D01*
Y00306000D01*
Y00294000D01*
X00185000Y00293997D01*
Y00279000D01*
X00198078Y00357000D02*
Y00370997D01*
X00198081Y00371000D01*
X00212000D01*
X00231000Y00394500D02*
Y00420000D01*
X00246244Y00435244D01*
Y00445567D01*
X00244198Y00447614D01*
Y00456000D01*
X00247000Y00418000D02*
X00266452Y00437452D01*
Y00457250D01*
X00279000Y00477500D02*
Y00533500D01*
X00323100Y00577600D01*
Y00618000D01*
X00348500D02*
Y00583500D01*
X00287000Y00522000D01*
Y00477500D01*
X00300500Y00464000D02*
X00317122D01*
X00373900Y00520778D01*
Y00618000D01*
X00297700D02*
Y00577700D01*
X00271000Y00551000D01*
Y00477500D01*
X00263000D02*
Y00571000D01*
X00272300Y00580300D01*
Y00618000D01*
X00246900D02*
Y00563100D01*
X00255000Y00555000D01*
Y00477500D01*
X00231000Y00503000D02*
Y00477500D01*
X00239000D02*
Y00523750D01*
X00196100Y00566650D01*
Y00618000D01*
X00221500D02*
Y00569500D01*
X00247000Y00544000D01*
Y00477500D01*
X00231000Y00503000D02*
X00170700Y00563300D01*
Y00618000D01*
X00191250Y00432000D02*
X00217500D01*
Y00424000D02*
X00188500D01*
X00188078Y00428828D02*
X00191250Y00432000D01*
X00188078Y00428828D02*
Y00399997D01*
Y00387997D01*
X00181578D01*
X00180079Y00386497D01*
Y00370997D01*
X00198078Y00370997D02*
X00198078Y00370997D01*
X00198078Y00370997D02*
Y00387997D01*
Y00399997D01*
X00153997Y00372000D02*
X00131500D01*
X00247000Y00394500D02*
Y00418000D01*
D12*
X00288081Y00269000D02*
X00275000D01*
X00198081D02*
X00185000D01*
X00217500Y00456000D02*
X00192250D01*
X00191250Y00455000D01*
X00182000D01*
X00166500Y00439500D01*
X00164000D01*
X00136750D01*
X00164000Y00480500D02*
X00166500D01*
X00182000Y00465000D01*
X00191250D01*
X00192250Y00464000D01*
X00217500D01*
X00164000Y00480500D02*
X00136750D01*
X00414941Y00269000D02*
X00428022D01*
X00555000D02*
X00568081D01*
X00636750Y00381250D02*
Y00421500D01*
X00643250D02*
Y00439000D01*
X00656000Y00455000D02*
X00678000D01*
Y00445000D02*
X00688000D01*
X00691000Y00448000D01*
Y00465000D01*
X00687500Y00468500D01*
X00678000D01*
Y00478500D02*
X00662750D01*
X00678000Y00445000D02*
Y00431500D01*
X00703000D01*
X00678000Y00421500D02*
Y00411000D01*
X00673000Y00406000D01*
X00660404D01*
X00656250Y00410154D01*
Y00421500D01*
X00649750D02*
Y00405000D01*
Y00386000D01*
X00636750Y00381250D02*
X00645000Y00373000D01*
X00623750Y00406750D02*
Y00421500D01*
X00630250D02*
Y00379250D01*
X00624000Y00373000D01*
X00621000Y00404000D02*
X00623750Y00406750D01*
X00621000Y00404000D02*
X00610250D01*
X00603000Y00411250D01*
X00593000D01*
X00603000Y00421250D02*
Y00445000D01*
Y00455000D02*
X00616000D01*
X00623750Y00462750D01*
Y00478500D01*
X00630250D02*
Y00492750D01*
X00621671Y00501329D01*
Y00511000D01*
X00611671D02*
Y00496329D01*
X00617250Y00490750D01*
Y00478500D01*
X00656000Y00455000D02*
X00649750Y00461250D01*
Y00478500D01*
X00643250D02*
Y00495250D01*
X00645000Y00497000D01*
Y00511000D01*
X00635000D02*
Y00500750D01*
X00636750Y00499000D01*
Y00478500D01*
X00617250Y00421500D02*
X00603250D01*
X00603000Y00421250D01*
X00577750D01*
X00568000Y00431000D01*
X00535000D01*
X00514000D01*
X00498000Y00443000D02*
X00484500D01*
X00461000D01*
X00459000Y00445000D01*
X00447000D01*
Y00455000D02*
X00475000D01*
Y00431000D02*
Y00421000D01*
X00478000Y00418000D01*
X00491000D01*
X00494000Y00421000D01*
Y00431000D01*
X00484500D02*
Y00443000D01*
X00494000Y00455000D02*
Y00482000D01*
Y00496000D01*
X00480079Y00509921D01*
X00468179D01*
X00450000Y00528100D01*
Y00579000D01*
Y00617900D01*
X00450100Y00618000D01*
X00513000Y00515000D02*
X00536000Y00538000D01*
X00610000D01*
X00626000D01*
X00636000Y00525000D02*
Y00538000D01*
X00494000Y00482000D02*
X00478000D01*
X00468000D02*
X00457000D01*
X00447000D02*
Y00455000D01*
X00695000Y00269000D02*
X00708081D01*
X00598500Y00117500D02*
X00612500D01*
Y00129000D01*
X00640000Y00084000D02*
X00633500Y00077500D01*
X00612500D01*
X00566000D01*
X00548500Y00060000D01*
X00519000D01*
X00514900Y00064100D01*
Y00077800D01*
X00517400Y00090500D02*
X00571500D01*
X00598500Y00117500D01*
X00517400Y00090500D02*
X00504700Y00103200D01*
D13*
X00210798Y00074202D02*
X00241000D01*
X00272000D01*
X00241000D02*
Y00062202D01*
Y00039000D01*
X00210798Y00074202D02*
X00203000Y00082000D01*
Y00097494D01*
X00191000D01*
X00239000Y00379997D02*
Y00394500D01*
Y00379997D02*
X00239000Y00379997D01*
X00237744Y00440000D02*
X00229744Y00448000D01*
X00217500D01*
Y00440000D02*
X00201000D01*
X00196000Y00445000D01*
X00165000Y00417000D02*
X00146500D01*
X00131500D02*
X00104750D01*
Y00427000D02*
X00104750Y00427000D01*
Y00451250D01*
Y00482250D01*
X00126750Y00459000D02*
Y00480500D01*
Y00459000D02*
Y00439500D01*
X00131500Y00417000D02*
Y00399000D01*
X00144000D01*
X00131500D02*
Y00382000D01*
X00104750Y00383250D02*
Y00427000D01*
X00094750Y00482250D02*
X00070750D01*
X00064750Y00476250D01*
Y00451250D01*
Y00417250D01*
Y00383250D01*
X00085000Y00534750D02*
Y00567000D01*
X00107000D01*
X00120000Y00580000D01*
Y00588000D01*
X00119900Y00588100D02*
Y00618000D01*
X00094500D02*
X00080000D01*
X00077000Y00615000D01*
Y00595927D01*
X00067000Y00585927D01*
Y00567000D01*
Y00547750D01*
X00054000Y00534750D01*
Y00517250D02*
X00038000D01*
X00098000Y00588000D02*
X00110000D01*
X00094500Y00591500D02*
Y00618000D01*
Y00591500D02*
X00098000Y00588000D01*
X00460000Y00579000D02*
X00471000D01*
X00475500Y00583500D01*
Y00618000D01*
D14*
X00099732Y00027000D02*
X00208000D01*
X00099732D02*
X00079000Y00047732D01*
Y00322855D01*
X00040000Y00361855D01*
Y00484000D01*
X00053000Y00497000D01*
X00080000D01*
X00085000Y00502000D01*
Y00517250D01*
X00525100Y00103200D02*
Y00122900D01*
D15*
X00020000Y00000000D02*
X00820000Y00000000D01*
D02*
G03*
X00840000Y00020000I00000000J00020000D01*
G01*
Y00630000D01*
X00840000D02*
G03*
X00820000Y00650000I-00020000J-00000000D01*
G01*
X00020000D01*
D02*
G03*
X00000000Y00630000I00000000J-00020000D01*
G01*
Y00020000D01*
D02*
G03*
X00020000Y00000000I00020000J00000000D01*
G01*
D16*
X00494500Y00077800D02*
D03*
X00514900D02*
D03*
X00535300D02*
D03*
X00545500Y00103200D02*
D03*
X00525100D02*
D03*
X00504700D02*
D03*
D17*
X00460000Y00054800D02*
D03*
X00580000D02*
D03*
D18*
X00120000Y00110000D02*
D03*
X00140000Y00540000D02*
D03*
X00700000D02*
D03*
X00720000Y00110000D02*
D03*
D19*
X00789500Y00409200D02*
D03*
Y00434600D02*
D03*
Y00485400D02*
D03*
Y00510800D02*
D03*
D20*
X00475500Y00618000D02*
D03*
X00450100D02*
D03*
X00424700D02*
D03*
X00399300D02*
D03*
X00373900D02*
D03*
X00348500D02*
D03*
X00323100D02*
D03*
X00297700D02*
D03*
X00272300D02*
D03*
X00246900D02*
D03*
X00221500D02*
D03*
X00196100D02*
D03*
X00170700D02*
D03*
X00145300D02*
D03*
X00119900D02*
D03*
X00094500D02*
D03*
D21*
X00039500Y00308000D02*
D03*
Y00618000D02*
D03*
X00789500Y00308000D02*
D03*
Y00618000D02*
D03*
D22*
X00560000Y00618000D02*
D03*
X00534600D02*
D03*
D23*
X00585400Y00618000D02*
D03*
D24*
X00288081Y00269000D02*
D03*
X00275000Y00293000D02*
D03*
X00239000Y00379997D02*
D03*
X00212000Y00371000D02*
D03*
X00198078Y00357000D02*
D03*
X00185003Y00294000D02*
D03*
X00198081Y00269000D02*
D03*
X00144000Y00399000D02*
D03*
X00165000Y00417000D02*
D03*
X00196000Y00445000D02*
D03*
X00237744Y00440000D02*
D03*
X00244198Y00456000D02*
D03*
X00266452Y00457250D02*
D03*
X00279000Y00416000D02*
D03*
X00278000Y00457000D02*
D03*
X00311000Y00503000D02*
D03*
X00342559Y00536921D02*
D03*
X00327000Y00519493D02*
D03*
X00284000Y00586007D02*
D03*
X00310000Y00589380D02*
D03*
X00335000Y00591000D02*
D03*
X00385426Y00550323D02*
D03*
X00412000Y00590000D02*
D03*
X00513000Y00515000D02*
D03*
X00526000Y00478000D02*
D03*
X00550500Y00449000D02*
D03*
X00550500Y00464000D02*
D03*
Y00478000D02*
D03*
X00538250D02*
D03*
X00593000Y00411250D02*
D03*
X00624000Y00373000D02*
D03*
X00645000D02*
D03*
X00649750Y00405000D02*
D03*
X00703000Y00431500D02*
D03*
X00643250Y00439000D02*
D03*
X00636000Y00525000D02*
D03*
X00531000Y00410000D02*
D03*
Y00398000D02*
D03*
X00519000D02*
D03*
X00508000D02*
D03*
Y00410000D02*
D03*
X00519000D02*
D03*
X00496000D02*
D03*
Y00398000D02*
D03*
X00415000Y00293000D02*
D03*
X00428022Y00269000D02*
D03*
X00555000Y00293000D02*
D03*
X00568081Y00269000D02*
D03*
X00708081D02*
D03*
X00695000Y00294000D02*
D03*
X00612500Y00129000D02*
D03*
X00640000Y00084000D02*
D03*
X00612500Y00040000D02*
D03*
X00599500Y00098500D02*
D03*
X00126750Y00459000D02*
D03*
X00064750Y00417250D02*
D03*
X00038000Y00517250D02*
D03*
X00182613Y00584000D02*
D03*
X00209000D02*
D03*
X00234000Y00585000D02*
D03*
X00259000Y00589205D02*
D03*
D25*
X00272000Y00074202D02*
D03*
Y00092202D02*
D03*
X00535000Y00431000D02*
D03*
Y00449000D02*
D03*
D26*
X00241000Y00039000D02*
D03*
X00259000D02*
D03*
X00198078Y00370997D02*
D03*
X00180079D02*
D03*
X00085000Y00567000D02*
D03*
X00067000D02*
D03*
X00494000Y00482000D02*
D03*
X00512000D02*
D03*
D27*
X00203000Y00097494D02*
D03*
Y00107494D02*
D03*
X00191000D02*
D03*
Y00097494D02*
D03*
X00131500Y00372000D02*
D03*
Y00382000D02*
D03*
X00188078Y00387997D02*
D03*
X00198078D02*
D03*
Y00399997D02*
D03*
X00188078D02*
D03*
X00191250Y00455000D02*
D03*
Y00465000D02*
D03*
X00136750Y00480500D02*
D03*
X00126750D02*
D03*
Y00439500D02*
D03*
X00136750D02*
D03*
X00104750Y00482250D02*
D03*
X00094750D02*
D03*
X00110000Y00588000D02*
D03*
X00120000D02*
D03*
X00447000Y00455000D02*
D03*
Y00445000D02*
D03*
X00460000Y00579000D02*
D03*
X00450000D02*
D03*
X00611671Y00511000D02*
D03*
X00621671D02*
D03*
X00635000D02*
D03*
X00645000D02*
D03*
X00678000Y00478500D02*
D03*
Y00468500D02*
D03*
Y00431500D02*
D03*
Y00421500D02*
D03*
D28*
X00228000Y00107494D02*
D03*
X00240500D02*
D03*
X00250500D02*
D03*
X00218000D02*
D03*
X00275000Y00269000D02*
D03*
Y00279000D02*
D03*
X00274000Y00327000D02*
D03*
X00264000D02*
D03*
X00185003Y00327000D02*
D03*
X00175003D02*
D03*
X00185000Y00279000D02*
D03*
Y00269000D02*
D03*
X00414941D02*
D03*
Y00279000D02*
D03*
X00415000Y00327000D02*
D03*
X00405000D02*
D03*
X00555000Y00279000D02*
D03*
Y00269000D02*
D03*
X00555000Y00327000D02*
D03*
X00545000D02*
D03*
X00603000Y00411250D02*
D03*
Y00421250D02*
D03*
Y00445000D02*
D03*
Y00455000D02*
D03*
X00678000D02*
D03*
Y00445000D02*
D03*
X00636000Y00538000D02*
D03*
X00626000D02*
D03*
X00478000Y00482000D02*
D03*
X00468000D02*
D03*
X00457000D02*
D03*
X00447000D02*
D03*
X00695000Y00279000D02*
D03*
Y00269000D02*
D03*
X00695000Y00327000D02*
D03*
X00685000D02*
D03*
D29*
X00484500Y00431000D02*
D03*
X00494000D02*
D03*
Y00455000D02*
D03*
X00475000D02*
D03*
Y00431000D02*
D03*
D30*
X00041000Y00045000D02*
D03*
X00275000Y00306000D02*
D03*
X00185003Y00306000D02*
D03*
X00131500Y00399000D02*
D03*
X00031000Y00563000D02*
D03*
X00415000Y00306000D02*
D03*
X00555000Y00306000D02*
D03*
X00649750Y00386000D02*
D03*
X00695000Y00306000D02*
D03*
X00804000Y00034000D02*
D03*
X00610000Y00538000D02*
D03*
X00733000Y00619000D02*
D03*
D31*
X00131500Y00417000D02*
D03*
X00146500D02*
D03*
D32*
X00612500Y00058500D02*
D03*
Y00077500D02*
D03*
X00635500Y00068000D02*
D03*
X00612500Y00098500D02*
D03*
X00635500Y00108000D02*
D03*
X00612500Y00117500D02*
D03*
D33*
X00617250Y00421500D02*
D03*
X00623750D02*
D03*
X00630250D02*
D03*
X00636750D02*
D03*
X00643250D02*
D03*
X00649750D02*
D03*
X00656250D02*
D03*
X00662750D02*
D03*
Y00478500D02*
D03*
X00656250D02*
D03*
X00649750D02*
D03*
X00643250D02*
D03*
X00636750D02*
D03*
X00630250D02*
D03*
X00623750D02*
D03*
X00617250D02*
D03*
D34*
X00300500Y00408000D02*
D03*
Y00416000D02*
D03*
Y00424000D02*
D03*
Y00432000D02*
D03*
Y00440000D02*
D03*
Y00448000D02*
D03*
Y00456000D02*
D03*
Y00464000D02*
D03*
X00217500Y00464000D02*
D03*
Y00456000D02*
D03*
Y00448000D02*
D03*
Y00440000D02*
D03*
Y00432000D02*
D03*
Y00424000D02*
D03*
Y00416000D02*
D03*
Y00408000D02*
D03*
D35*
X00279000Y00394500D02*
D03*
X00287000D02*
D03*
X00271000D02*
D03*
X00263000D02*
D03*
X00255000D02*
D03*
X00247000D02*
D03*
X00239000D02*
D03*
X00231000D02*
D03*
X00279000Y00477500D02*
D03*
X00287000D02*
D03*
X00271000D02*
D03*
X00263000D02*
D03*
X00255000D02*
D03*
X00247000D02*
D03*
X00239000D02*
D03*
X00231000D02*
D03*
D36*
X00164000Y00439500D02*
D03*
Y00480500D02*
D03*
D37*
X00231500Y00062202D02*
D03*
X00241000D02*
D03*
X00250500D02*
D03*
Y00086202D02*
D03*
X00231500D02*
D03*
D38*
X00309000Y00074452D02*
D03*
Y00091952D02*
D03*
X00085000Y00517250D02*
D03*
Y00534750D02*
D03*
X00054000D02*
D03*
Y00517250D02*
D03*
M02*
