G04 Layer_Color=128*
%FSAX44Y44*%
%MOMM*%
G71*
G01*
G75*
%ADD10C,0.2000*%
%ADD21R,1.3500X1.2000*%
%ADD23R,0.6000X0.6000*%
%ADD24R,0.6000X0.6000*%
%ADD25O,0.3500X1.7000*%
%ADD26R,0.9000X0.6000*%
%ADD27R,3.2000X1.0000*%
%ADD28R,0.8000X0.8000*%
%ADD29R,1.2000X1.4000*%
%ADD30O,1.5000X0.4000*%
%ADD31R,1.1000X0.6500*%
%ADD32R,1.4500X1.2500*%
%ADD33R,1.4000X1.2000*%
%ADD62C,0.0000*%
D10*
X00020000Y00000000D02*
X00820000Y00000000D01*
D02*
G03*
X00840000Y00020000I00000000J00020000D01*
G01*
Y00630000D01*
X00840000D02*
G03*
X00820000Y00650000I-00020000J-00000000D01*
G01*
X00020000D01*
D02*
G03*
X00000000Y00630000I00000000J-00020000D01*
G01*
Y00020000D01*
D02*
G03*
X00020000Y00000000I00020000J00000000D01*
G01*
D21*
X00525100Y00143749D02*
D03*
Y00162749D02*
D03*
D23*
X00429000Y00268750D02*
D03*
Y00278750D02*
D03*
X00332500Y00396000D02*
D03*
Y00408000D02*
D03*
X00322500D02*
D03*
Y00396000D02*
D03*
X00460000Y00579000D02*
D03*
X00450000D02*
D03*
X00599000Y00240000D02*
D03*
Y00230000D02*
D03*
Y00219000D02*
D03*
Y00209000D02*
D03*
X00661671Y00251000D02*
D03*
X00671671D02*
D03*
X00685000D02*
D03*
X00695000D02*
D03*
X00728000Y00218500D02*
D03*
Y00208500D02*
D03*
Y00171500D02*
D03*
Y00161500D02*
D03*
X00120000Y00588000D02*
D03*
X00110000D02*
D03*
D24*
X00273000Y00303000D02*
D03*
Y00313000D02*
D03*
X00562000Y00240000D02*
D03*
X00572000D02*
D03*
X00653000Y00161250D02*
D03*
Y00151250D02*
D03*
Y00185000D02*
D03*
Y00195000D02*
D03*
X00728000D02*
D03*
Y00185000D02*
D03*
X00686000Y00278000D02*
D03*
X00676000D02*
D03*
D25*
X00667250Y00161500D02*
D03*
X00673750D02*
D03*
X00680250D02*
D03*
X00686750D02*
D03*
X00693250D02*
D03*
X00699750D02*
D03*
X00706250D02*
D03*
X00712750D02*
D03*
Y00218500D02*
D03*
X00706250D02*
D03*
X00699750D02*
D03*
X00693250D02*
D03*
X00686750D02*
D03*
X00680250D02*
D03*
X00673750D02*
D03*
X00667250D02*
D03*
D26*
X00612500Y00058500D02*
D03*
Y00077500D02*
D03*
X00635500Y00068000D02*
D03*
X00612500Y00098500D02*
D03*
X00635500Y00108000D02*
D03*
X00612500Y00117500D02*
D03*
D27*
X00372000Y00273000D02*
D03*
Y00313000D02*
D03*
X00304000D02*
D03*
Y00273000D02*
D03*
D28*
X00406000Y00285500D02*
D03*
Y00300500D02*
D03*
D29*
X00332500Y00379000D02*
D03*
X00314500D02*
D03*
X00548000Y00152000D02*
D03*
X00566000D02*
D03*
X00085000Y00567000D02*
D03*
X00067000D02*
D03*
D30*
X00348500Y00425000D02*
D03*
Y00431500D02*
D03*
Y00438000D02*
D03*
Y00444500D02*
D03*
Y00451000D02*
D03*
Y00457500D02*
D03*
Y00464000D02*
D03*
Y00470500D02*
D03*
X00289500D02*
D03*
Y00464000D02*
D03*
Y00457500D02*
D03*
Y00451000D02*
D03*
Y00444500D02*
D03*
Y00438000D02*
D03*
Y00431500D02*
D03*
Y00425000D02*
D03*
D31*
X00548000Y00193000D02*
D03*
Y00202500D02*
D03*
X00572000Y00193000D02*
D03*
Y00212000D02*
D03*
X00548000D02*
D03*
D32*
X00489000Y00169250D02*
D03*
Y00186750D02*
D03*
D33*
X00599000Y00175000D02*
D03*
Y00193000D02*
D03*
D62*
X00429000Y00300500D02*
D03*
X00327500Y00502000D02*
D03*
X00660000Y00278000D02*
D03*
M02*
