G04 Layer_Color=8388736*
%FSAX44Y44*%
%MOMM*%
G71*
G01*
G75*
%ADD15C,0.2000*%
%ADD40R,1.2000X3.4000*%
%ADD41C,1.7000*%
%ADD42C,2.2000*%
%ADD43C,6.2000*%
G04:AMPARAMS|DCode=44|XSize=2mm|YSize=2mm|CornerRadius=0.55mm|HoleSize=0mm|Usage=FLASHONLY|Rotation=0.000|XOffset=0mm|YOffset=0mm|HoleType=Round|Shape=RoundedRectangle|*
%AMROUNDEDRECTD44*
21,1,2.0000,0.9000,0,0,0.0*
21,1,0.9000,2.0000,0,0,0.0*
1,1,1.1000,0.4500,-0.4500*
1,1,1.1000,-0.4500,-0.4500*
1,1,1.1000,-0.4500,0.4500*
1,1,1.1000,0.4500,0.4500*
%
%ADD44ROUNDEDRECTD44*%
G04:AMPARAMS|DCode=45|XSize=2mm|YSize=3.8mm|CornerRadius=0.55mm|HoleSize=0mm|Usage=FLASHONLY|Rotation=0.000|XOffset=0mm|YOffset=0mm|HoleType=Round|Shape=RoundedRectangle|*
%AMROUNDEDRECTD45*
21,1,2.0000,2.7000,0,0,0.0*
21,1,0.9000,3.8000,0,0,0.0*
1,1,1.1000,0.4500,-1.3500*
1,1,1.1000,-0.4500,-1.3500*
1,1,1.1000,-0.4500,1.3500*
1,1,1.1000,0.4500,1.3500*
%
%ADD45ROUNDEDRECTD45*%
%ADD46C,5.2000*%
%ADD47C,1.7750*%
%ADD48R,1.7750X1.7750*%
D15*
X00020000Y00000000D02*
X00820000Y00000000D01*
D02*
G03*
X00840000Y00020000I00000000J00020000D01*
G01*
Y00630000D01*
X00840000D02*
G03*
X00820000Y00650000I-00020000J-00000000D01*
G01*
X00020000D01*
D02*
G03*
X00000000Y00630000I00000000J-00020000D01*
G01*
Y00020000D01*
D02*
G03*
X00020000Y00000000I00020000J00000000D01*
G01*
D40*
X00300000Y00181000D02*
D03*
X00260000D02*
D03*
X00300000Y00249000D02*
D03*
X00260000D02*
D03*
X00160000Y00249000D02*
D03*
X00120000D02*
D03*
Y00181000D02*
D03*
X00160000D02*
D03*
X00400000Y00181000D02*
D03*
X00440000D02*
D03*
Y00249000D02*
D03*
X00400000D02*
D03*
X00540000Y00181000D02*
D03*
X00580000D02*
D03*
Y00249000D02*
D03*
X00540000D02*
D03*
X00680000Y00181000D02*
D03*
X00720000D02*
D03*
Y00249000D02*
D03*
X00680000D02*
D03*
D41*
X00494500Y00077800D02*
D03*
X00514900D02*
D03*
X00535300D02*
D03*
X00545500Y00103200D02*
D03*
X00525100D02*
D03*
X00504700D02*
D03*
D42*
X00460000Y00054800D02*
D03*
X00580000D02*
D03*
D43*
X00120000Y00110000D02*
D03*
X00140000Y00540000D02*
D03*
X00700000D02*
D03*
X00720000Y00110000D02*
D03*
D44*
X00789500Y00409200D02*
D03*
Y00434600D02*
D03*
Y00485400D02*
D03*
Y00510800D02*
D03*
D45*
X00475500Y00618000D02*
D03*
X00450100D02*
D03*
X00424700D02*
D03*
X00399300D02*
D03*
X00373900D02*
D03*
X00348500D02*
D03*
X00323100D02*
D03*
X00297700D02*
D03*
X00272300D02*
D03*
X00246900D02*
D03*
X00221500D02*
D03*
X00196100D02*
D03*
X00170700D02*
D03*
X00145300D02*
D03*
X00119900D02*
D03*
X00094500D02*
D03*
D46*
X00039500Y00308000D02*
D03*
Y00618000D02*
D03*
X00789500Y00308000D02*
D03*
Y00618000D02*
D03*
D47*
X00560000Y00618000D02*
D03*
X00534600D02*
D03*
D48*
X00585400Y00618000D02*
D03*
M02*
